<svg width="645" height="379" viewBox="0 0 645 379" fill="none" xmlns="http://www.w3.org/2000/svg">
    <path d="M546.974 167.874c3.146 4.629 7.937 7.617 3.445 11.853-5.012 4.727-18.811 19.062-18.811 19.062l12.401 27.213s19.439-19.623 29.621-30.545c10.181-10.921 15.677-22.168 9.013-33.832-6.664-11.662-35.669 6.249-35.669 6.249z" fill="#FAAD3A"/>
    <path d="M546.542 168.126c1.343 1.897 2.939 3.599 4.251 5.516 1.788 2.616.456 4.589-1.542 6.509-2.421 2.328-4.774 4.724-7.129 7.117a1331.118 1331.118 0 0 0-10.867 11.168c-.168.174-.174.394-.078.605 4.133 9.071 8.266 18.143 12.4 27.213.136.297.575.313.785.102a2448.459 2448.459 0 0 0 14.89-15.172c3.874-3.979 7.732-7.971 11.555-11.998 4.349-4.582 8.61-9.211 11.729-14.748 2.811-4.99 4.146-10.612 3.133-16.291-.686-3.838-2.506-8.334-6.261-10.052-6.347-2.904-14.947.738-20.81 3.243-4.08 1.743-8.096 3.776-11.876 6.104-.549.338-.047 1.203.503.864 4.727-2.911 9.802-5.381 14.982-7.359 3.808-1.455 7.846-2.65 11.945-2.764 4.889-.137 7.6 2.156 9.451 6.544 5.776 13.689-6.15 26.031-14.796 35.111-7.118 7.477-14.345 14.85-21.589 22.201a1348.552 1348.552 0 0 1-3.563 3.61c.262.033.524.066.785.101l-12.359-27.125c-.148-.322-.319.725-.019.413l.582-.604c.916-.949 1.833-1.896 2.751-2.844 2.884-2.976 5.779-5.941 8.69-8.888a505.984 505.984 0 0 1 4.267-4.276c1.146-1.131 2.758-2.293 3.579-3.683 2.517-4.263-2.274-7.939-4.526-11.121-.369-.522-1.236-.023-.863.504z" fill="#FAAD3A"/>
    <path d="M464.688 248.864c-.594 8.133-7.847 84.97-11.943 128.21h45.148l12.336-105.72 10.139 105.72h51.559c-3.692-36.463-9.657-94.718-11.161-105.441-2.222-15.828-5.277-43.781-18.605-66.551-9.164-1.388-82.748 15.737-82.748 15.737 1.666 4.996 6.109 16.66 5.275 28.045z" fill="#463363"/>
    <path d="M456.631 330.657c-1.457 15.472-2.926 30.944-4.391 46.417h.997c2.033-21.462 4.069-42.924 6.084-64.388 1.997-21.26 4.296-42.525 5.867-63.822.588-9.601-2.118-18.692-5.127-27.68a1884.857 1884.857 0 0 1 30.527-6.807c15.219-3.271 30.602-6.898 46.096-8.597 1.297-.143 4.757-.942 5.471.291 3.635 6.275 6.442 13.004 8.766 19.863 4.026 11.885 6.312 24.279 8.094 36.674 1.835 12.767 3.204 25.584 4.569 38.41 2.697 25.344 5.289 50.698 7.848 76.056h.999c-2.441-24.17-4.914-48.336-7.469-72.494-1.301-12.296-2.558-24.601-4.234-36.853-1.612-11.789-3.487-23.529-6.677-35.01-1.791-6.443-4.046-12.754-6.792-18.851-1.392-3.094-2.967-6.102-4.666-9.037-.267-.459-1.373-.325-1.817-.327-5.356-.021-10.836 1.157-16.087 2.065-8.239 1.428-16.438 3.084-24.625 4.785-13.137 2.73-26.242 5.631-39.318 8.645l-1.466.339c-.255.059-.433.364-.349.616 3.046 9.066 5.85 18.218 5.257 27.912-2.013 27.295-4.99 54.547-7.557 81.793z" fill="#463363"/>
    <path d="M510.729 271.354c-.062-.649-.925-.637-1 0a1339224.217 1339224.217 0 0 0-12.335 105.72h.999c1.573-13.469 3.144-26.937 4.715-40.406 2.359-20.203 4.715-40.407 7.073-60.61l5.931 61.851 3.756 39.165h1.001c-1.3-13.552-2.601-27.105-3.899-40.656l-6.241-65.064z" fill="#463363"/>
    <path d="M333.163 107.711c-1.109-3.331-5.736-16.477-5.736-16.477s-13.515-8.513-19.438-11.845c-5.925-3.33-8.516-14.809 1.11-17.587 2.592-4.813 6.552-5.235 8.773-3.939 1.479-10.922 7.006-12.238 13.115-10.2 6.108 2.036 9.828 7.282 13.529 15.611 3.704 8.331 4.569 12.781 7.715 21.111a4313.783 4313.783 0 0 0 5.553 14.627s-7.221 15.179-24.621 8.699z" fill="#FAD1D5"/>
    <path d="M337.606 79.942c0 8.181-6.631 14.811-14.808 14.811-8.179 0-14.81-6.63-14.81-14.81 0-8.178 6.631-14.808 14.81-14.808 8.177 0 14.808 6.63 14.808 14.807z" fill="#ED4477"/>
    <path d="M305.72 77.954c2.084 2.36 5.554 1.11 4.999-4.025 3.47-.28 4.164-5.138 7.359-9.443 1.388 5.555 3.888 6.248 5.692 5.414 1.805-.833 3.332-1.943 3.469-7.08.141-5.136 1.668-6.525 3.889-5.83 2.222.694 4.166 5.83 6.941 12.217 2.776 6.387 3.055 11.385-.972 12.355-4.026.974-7.635 2.5-9.995 6.804-2.361 4.304.416 8.47 7.776 5.276 7.357-3.193 9.578-8.33 9.578-8.33s-.139-12.912-4.441-23.462c-4.305-10.553-14.026-8.333-14.026-8.333l-11.522 8.61-9.163 9.857" fill="#FAD1D5"/>
    <path d="M474.409 69.207c5.367.463 11.016-5.554 9.719-12.773-1.295-7.22-12.682 3.794-12.682 3.794l2.963 8.98z" fill="#5569AF"/>
    <path d="M474.409 69.707c4.09.178 7.395-2.488 9.212-5.986 1.152-2.22 2.479-8.172-.385-9.805-3.819-2.177-9.642 3.553-12.143 5.96a.495.495 0 0 0-.129.485l2.963 8.98c.201.608 1.167.347.964-.267l-2.528-7.66-.394-1.196c.034.103-.352.53.177.038a45.37 45.37 0 0 1 2.654-2.262c1.673-1.329 6.835-5.49 8.541-2.456 1.439 2.561.125 6.568-1.236 8.847-1.599 2.68-4.57 4.458-7.696 4.322-.644-.028-.643.972 0 1z" fill="#5569AF"/>
    <path d="M419.429 38.293c-1.112 7.033-2.409 13.098 3.886 24.39 6.295 11.291 8.516 25.5 29.248 22.628 1.668 4.63 2.594 9.442 2.594 9.442l27.211-5.923-8.701-26.475c11.57-3.42 11.381-10.694 9.344-15.506-2.036-4.815-20.08-23.92-26.561-25.586-6.478-1.668-30.357-.37-37.021 17.03z" fill="#FAD1D5"/>
    <path d="M450.913 59.184c1.707-1.908-1.41-6.015-3.215-4.283-1.808 1.734 1.815 5.85 3.215 4.283zM431.893 61.684c1.706-1.91-1.412-6.015-3.218-4.283-1.805 1.731 1.818 5.85 3.218 4.283z" fill="#292929"/>
    <path d="M440.393 70.541c-1.734 0-3.448-.474-5.239-1.45-2.417-1.612-2.179-3.928-1.631-5.984 1.176-5.082-1.208-9.534-6.543-12.196a.5.5 0 1 1 .448-.894c5.697 2.843 8.338 7.827 7.066 13.332-.574 2.155-.575 3.717 1.177 4.888 1.601.87 3.159 1.304 4.722 1.304a.5.5 0 1 1 0 1zM441.458 74.335a.499.499 0 0 1-.116-.986c4.159-.998 7.235-2.97 10.286-6.594a.499.499 0 1 1 .765.644c-3.199 3.8-6.434 5.87-10.819 6.922a.518.518 0 0 1-.116.014zM452.843 85.626a.499.499 0 0 1-.181-.966c3.103-1.205 6.002-3.189 8.614-5.896l.42-.478c1.137-1.288 2.312-2.619 3.107-4.128a40.38 40.38 0 0 0 2.193-4.938c.569-1.516 1.175-3.26 1.175-4.827a.5.5 0 1 1 1 0c0 1.734-.639 3.58-1.238 5.175a40.96 40.96 0 0 1-2.247 5.056c-.849 1.615-2.065 2.992-3.24 4.324l-.434.493c-2.73 2.83-5.748 4.893-8.989 6.151a.495.495 0 0 1-.18.034z" fill="#292929"/>
    <path d="M443.032 49.77c-.74-2.407 2.127-3.983 6.201-2.315 4.073 1.666 4.873 3.528 3.61 3.24-7.311-1.666-9.348.092-9.811-.926z" fill="#5569AF"/>
    <path d="M443.515 49.637c-.819-3.496 4.542-2.147 6.115-1.47 1.024.44 2.022 1.02 2.846 1.773l.209.222c.151.42.247.436.29.05-.702-.105-1.402-.29-2.103-.414a23.873 23.873 0 0 0-5.015-.338c-.337.013-2.204.394-2.393.057-.316-.562-1.18-.058-.864.505.643 1.144 2.999.437 3.999.417 2.151-.044 4.192.45 6.302.766.47.07.99-.183.99-.718 0-.759-.835-1.43-1.378-1.819-1.637-1.172-3.544-2.028-5.538-2.34-2.357-.369-5.065.84-4.425 3.574.147.628 1.111.362.965-.265zM428.593 50.787c-2.594-1.48-6.018-2.312-7.127-.833-1.112 1.482-.186 3.24.925 3.147 1.11-.092 5.37-.833 7.036-.648.923 0 0-1.017-.834-1.666z" fill="#5569AF"/>
    <path d="M428.845 50.355c-1.796-.983-4.838-2.447-6.899-1.387-1.505.774-2.266 3.672-.317 4.466.781.32 1.674.06 2.484-.052 1.368-.187 2.738-.368 4.119-.445.694-.038 1.591.244 2.011-.448.438-.722-.892-1.719-1.297-2.055-.492-.409-1.204.294-.707.707.244.203 1.266.802.646.783-.591-.018-1.188.043-1.776.094-1.204.105-2.403.282-3.599.446a28 28 0 0 1-1.119.137c-.764-.125-1.058-.66-.88-1.608.139-.987.942-1.232 1.719-1.309 1.732-.173 3.643.732 5.111 1.535.565.31 1.07-.554.504-.864zM459.138 27.37c-1.297 6.665.369 19.9 6.847 26.842 6.481 6.941 5.555-5.46 4.815-7.497 3.701-4.256 10.715-5.053 13.402 1.797.834 2.774-.607 7.921-.607 7.921 4.834-1.834 7.199-8.792 5.439-12.68-1.76-3.887-2.406-11.478-1.943-17.403.461-5.92-5.463-19.342-21.846-15.086-4.639-8.063-9.408-9.589-17.795-8.333-7.617 1.14-16.143-4.022-22.529-1.893-4.223 1.408-6.696 5.97-.309 12.356-9.904-2.777-18.789-2.406-22.676 7.405-3.888 9.811 1.108 22.491 16.569 22.77.369-3.38 1.34-6.225 1.34-6.225 1.203 7.22 7.265 7.334 12.912 2.984 5.646-4.35 10.09-10.829 10.09-10.829-2.223 6.017-.28 6.757 4.072 6.295 4.351-.463 9.349-7.222 12.219-8.424z" fill="#5569AF"/>
    <path d="M458.655 27.237c-1.182 6.543-.017 13.692 2.394 19.826.742 1.888 6.001 12.562 9.404 9.27 1.237-1.198 1.32-3.21 1.365-4.823.029-1.018-.049-2.04-.168-3.05-.13-1.1-.496-1.437.285-2.195 2.881-2.8 7.398-3.175 10.245-.207 2.627 2.74 1.837 6.936.932 10.242-.127.463.353.728.735.564 4.098-1.753 6.336-6.259 6.256-10.586-.039-2.13-1.214-4.135-1.698-6.184-.818-3.47-.979-7.115-.953-10.667.026-3.654.187-6.502-1.313-9.927-1.466-3.345-4.075-6.107-7.289-7.814-1.67-.886-3.588-1.429-5.466-1.618a22.9 22.9 0 0 0-3.804-.056c-.773.05-3.921.97-4.301.324-2.333-3.957-5.585-7.152-10.205-8.047-2.271-.44-4.638-.244-6.914.041-3.699.462-7.122-.035-10.743-.843-4.698-1.049-10.445-2.825-14.803.168-4.756 3.266-1.327 9 1.645 12.093l.486-.835c-5.072-1.388-11.155-2.57-16.148-.236-4.725 2.208-7.58 7.086-8.239 12.163-.607 4.678.524 9.261 3.46 12.976 3.504 4.432 9.262 6.081 14.687 6.252.298.01.467-.237.5-.5.26-2.06.665-4.117 1.322-6.092h-.965c1.193 6.077 6.093 7.496 11.301 4.822 5.105-2.622 9.394-7.886 12.615-12.547l-.914-.385c-.618 1.754-1.521 4.073-.472 5.843.842 1.42 3.114 1.235 4.473 1.138 5.639-.402 8.342-6.307 13.025-8.545.582-.278.074-1.14-.504-.864-3.472 1.66-5.897 5.178-9.138 7.244-1.734 1.105-3.929 1.488-5.95 1.103-2.517-.48-.984-4.195-.469-5.653.199-.566-.61-.825-.914-.385-2.469 3.571-5.459 6.846-8.732 9.69-2.199 1.911-4.803 3.583-7.776 3.81-3.373.258-5.014-2.65-5.58-5.536-.102-.518-.819-.436-.965 0-.685 2.062-1.086 4.205-1.357 6.357l.5-.5c-5.153-.163-10.085-1.667-13.637-5.556-2.861-3.133-3.921-7.494-3.628-11.639.345-4.884 2.95-9.78 7.347-12.093 4.798-2.524 10.96-1.252 15.892.096.49.135.831-.477.487-.835-3.36-3.496-5.979-9.302.088-11.52 4.965-1.817 11.09.88 16.034 1.717 4.62.784 9.124-.688 13.72.015 4.703.721 7.723 4.392 10.005 8.263a.509.509 0 0 0 .565.23c5.483-1.346 11.216-1.083 15.721 2.632 2.99 2.466 4.981 6.3 5.45 10.13.293 2.397-.132 4.904-.08 7.32.066 3.086.42 6.188 1.128 9.195.676 2.87 1.878 4.91 1.249 7.98-.623 3.04-2.639 5.772-5.503 6.998l.734.564c1.174-4.289 1.607-8.79-2.013-12.006-3.547-3.15-8.777-1.285-11.618 1.802a.507.507 0 0 0-.129.487c.652 1.994.648 4.43.365 6.486-.704 5.102-4.82.18-6.249-1.904-4.462-6.508-6.211-16.193-4.813-23.927.113-.63-.85-.9-.965-.266z" fill="#5569AF"/>
    <path d="M420.074 39.35a.5.5 0 0 1-.495-.436l-.088-.638c-.174-1.232-.353-2.507-.189-3.75.364-2.27 1.427-4.5 3.076-6.458.696-.87 1.488-1.785 2.505-2.495a.5.5 0 1 1 .572.82c-.912.637-1.647 1.486-2.304 2.31-1.54 1.83-2.526 3.89-2.859 5.968-.146 1.094.025 2.3.189 3.465l.09.647a.5.5 0 0 1-.497.566zM471.63 53.122a.485.485 0 0 1-.491-.564c.094-.573.178-1.082.178-1.583 0-.502-.084-.923-.173-1.369-.17-.762-.361-1.623-.635-2.455a17.228 17.228 0 0 0-1.53-3.514.5.5 0 0 1 .864-.504 18.268 18.268 0 0 1 1.618 3.714c.288.87.485 1.756.659 2.54.1.497.197.987.197 1.588 0 .583-.094 1.157-.186 1.712a.52.52 0 0 1-.501.435z" fill="#292929"/>
    <path d="M332.237 106.971c5.832 1.666 18.606-1.388 24.992-10.274 4.444 9.996 19.438 43.595 20.547 45.261 1.112 1.667 14.717-8.331 30.268-20.827 15.549-12.494 24.99-16.104 34.431-14.992 9.442 1.109 13.885-.279 13.051-5.554-.834-5.277-1.943-9.72-1.943-9.72s10.828 4.443 27.767-5.554c3.61 10.553 3.332 12.497 4.721 14.162 1.389 1.667 13.885-3.609 25.824-1.942 11.938 1.664 36.561 27.973 48.221 38.874 14.254 13.328 30.775 27.767 22.77 43.875-5.59 11.24-25.729 3.33-25.729 3.33s-1.668-4.998-10.553-13.884c-8.886-8.885-23.88-24.16-23.88-24.16s17.585 52.946 20.917 60.999c-17.771 14.994-69.869 22.592-83.99 16.172-4.621-13.865-20.23-61.896-27.172-74.948-21.103 14.717-35.82 28.879-48.314 33.321-12.496 4.443-23.604 8.885-34.711-21.382-6.359-17.33-17.217-52.757-17.217-52.757z" fill="#FAAD3A"/>
    <path d="M332.104 107.453c9.123 2.389 20.205-3.312 25.557-10.503h-.863c6.515 14.655 12.838 29.443 19.832 43.878.628 1.297.986 2.13 2.587 1.606 3.694-1.21 7.124-4.129 10.229-6.354 11.502-8.246 21.9-18.431 34.383-25.204 4.019-2.179 8.367-3.817 12.933-4.304 4.506-.482 8.964.741 13.478.292 2.721-.271 5.419-1.428 5.84-4.397.29-2.056-.46-4.37-.844-6.363a105.102 105.102 0 0 0-1.171-5.372l-.615.615c2.358.947 5.169 1.042 7.664.99 7.276-.15 14.277-2.994 20.488-6.594l-.734-.299c1.413 4.163 2.377 8.5 3.865 12.626.804 2.228 2.069 2.371 4.3 2.067 6.215-.846 12.154-2.46 18.49-2.43 4.846.021 8.621 1.44 12.688 3.946 9.103 5.612 16.995 13.344 24.68 20.705 7.832 7.501 15.718 14.967 23.482 22.535 8.975 8.75 20.253 20.995 14.409 34.445-3.79 8.721-15.422 6.862-22.75 4.705a39.434 39.434 0 0 1-2.551-.843c-.473-.176.222.445.124.183a11.1 11.1 0 0 0-.371-.853c-1.716-3.651-4.468-6.873-7.132-9.854-7.378-8.259-15.613-15.861-23.38-23.756a4235.267 4235.267 0 0 1-3.645-3.707c-.341-.347-.996.003-.836.486a5192.94 5192.94 0 0 0 11.978 35.643c2.425 7.129 4.846 14.262 7.418 21.34.362.998.73 1.994 1.112 2.984.152.395.333.715.208.821-.895.742-1.849 1.412-2.814 2.06-3.756 2.524-7.921 4.436-12.115 6.106-9.634 3.834-19.858 6.244-30.072 7.914-9.357 1.529-19.01 2.451-28.49 1.736a44.745 44.745 0 0 1-5.248-.701c-.627-.123-3.95-.594-4.177-1.277-1.054-3.161-2.096-6.327-3.145-9.489-3.103-9.357-6.242-18.701-9.478-28.011-2.55-7.334-5.158-14.649-7.933-21.902-1.985-5.192-3.978-10.461-6.574-15.386-.119-.228-.468-.331-.684-.18-11.524 8.063-22.308 17.116-33.807 25.203-6.975 4.907-14.515 8.87-22.89 10.729-8.14 1.807-14.143-2.25-18.562-8.906-6.228-9.379-9.304-20.974-12.815-31.58-3.953-11.942-7.747-23.939-11.433-35.965-.188-.615-1.155-.353-.964.265 4.785 15.611 9.691 31.202 15.036 46.63 3.28 9.469 6.683 20.461 14.492 27.267 4.834 4.213 10.786 4.35 16.692 2.705 8.132-2.267 15.221-6.212 22.081-11.081 11.087-7.869 21.529-16.605 32.674-24.403l-.683-.18c3.72 7.061 6.375 14.746 9.121 22.22 3.62 9.851 7.025 19.78 10.38 29.724 2.539 7.525 5.02 15.07 7.527 22.605.601 1.805 5.643 2.145 7.222 2.371 3.858.549 7.778.619 11.669.539 12.266-.246 24.596-2.283 36.446-5.392 10.256-2.692 21.303-6.307 29.582-13.19.122-.101.189-.338.129-.486-4.484-10.92-7.932-22.344-11.709-33.52a5532.99 5532.99 0 0 1-9.209-27.478l-.836.486a5426.169 5426.169 0 0 0 17.012 17.254c4.24 4.28 8.665 8.425 12.485 13.092 1.794 2.193 3.831 4.748 4.805 7.465.358 1.002 3.654 1.445 4.475 1.666 3.656.99 7.475 1.57 11.266 1.369 3.699-.197 7.329-1.469 9.732-4.389 3.01-3.658 3.71-9.145 3.1-13.679-.746-5.539-3.964-10.531-7.309-14.854-4.227-5.465-9.355-10.214-14.387-14.919-7.54-7.05-14.805-14.384-22.344-21.435-7.167-6.703-14.711-13.822-23.475-18.408-9.422-4.93-19.842-.92-29.664.177-2.092.234-2.364-1.285-2.854-3-1.065-3.719-2.136-7.417-3.379-11.08-.104-.305-.443-.469-.734-.299-6.128 3.551-12.84 6.192-19.985 6.457-2.408.09-5.126-.042-7.398-.954-.373-.15-.698.28-.616.615.441 1.78.815 3.575 1.172 5.372.493 2.478 1.848 6.08-.269 8.141-1.653 1.608-4.773 1.497-6.875 1.477-2.668-.026-5.299-.528-7.967-.539-10.332-.043-19.698 6.357-27.606 12.309-10.191 7.672-19.762 16.826-31.02 22.974-.396.217-2.16 1.282-2.447.769-.424-.756-.781-1.557-1.152-2.34-1.506-3.173-2.956-6.375-4.409-9.573-5.011-11.023-9.947-22.079-14.866-33.143-.169-.38-.667-.264-.863 0-5.075 6.819-15.773 12.31-24.428 10.044-.624-.164-.889.8-.266.964z" fill="#FAAD3A"/>
    <path d="M330.257 95.27c-1.489 0-2.693-.447-3.504-1.338-1.261-1.383-1.295-3.608-.089-5.807 2.53-4.614 6.453-6.114 10.315-7.048 1.048-.253 1.767-.796 2.198-1.66.959-1.925.402-5.48-1.567-10.01-2.479-5.708-4.622-10.637-6.67-11.275-.896-.28-1.516-.266-1.954.047-.758.541-1.178 2.107-1.247 4.655-.144 5.41-1.86 6.644-3.76 7.52-.97.448-1.968.455-2.884.017-1.372-.658-2.452-2.246-3.216-4.729-.806 1.22-1.449 2.47-2.03 3.598-1.282 2.492-2.4 4.667-4.591 5.117.156 2.487-.628 4.341-2.141 5.008-1.251.551-2.697.137-3.772-1.08a.5.5 0 1 1 .75-.662c.777.881 1.781 1.197 2.618.828.919-.406 1.798-1.792 1.509-4.469a.497.497 0 0 1 .457-.552c1.972-.159 2.991-2.14 4.281-4.647.735-1.429 1.568-3.047 2.716-4.595a.5.5 0 0 1 .886.177c.865 3.46 2.089 4.685 2.965 5.104.804.385 1.55.201 2.033-.023 1.722-.795 3.05-1.788 3.179-6.639.081-2.959.61-4.688 1.666-5.442.937-.669 2.067-.428 2.833-.188 2.37.738 4.222 4.77 7.29 11.831 1.477 3.4 2.945 8.043 1.543 10.855-.562 1.13-1.523 1.864-2.857 2.185-3.639.881-7.33 2.284-9.673 6.558-.994 1.812-1.013 3.595-.049 4.652 1.243 1.366 3.932 1.337 7.187-.074 7.068-3.068 9.296-8.022 9.318-8.072a.5.5 0 0 1 .918.398c-.094.217-2.385 5.356-9.838 8.591-1.796.78-3.433 1.168-4.82 1.168zM341.257 122.065c-1.739 0-3.319-.296-4.766-.887a.5.5 0 0 1 .379-.926c2.547 1.042 5.576 1.08 9.265.12 3.098-.777 7.069-2.049 10.342-5.024.19-.191.413-.399.645-.612.691-.64 1.406-1.302 1.893-2.177a.5.5 0 0 1 .874.486c-.565 1.015-1.374 1.764-2.088 2.425-.221.204-.436.402-.634.601-3.455 3.141-7.577 4.465-10.784 5.269-1.852.484-3.554.725-5.126.725z" fill="#292929"/>
    <path d="M341.589 121.725a.5.5 0 0 1-.47-.329c-.308-.84-.598-1.697-.892-2.563-.414-1.218-.84-2.478-1.327-3.72-.517-1.29-1.105-2.757-1.583-4.189a13.16 13.16 0 0 0-.437-1.096c-.31-.715-.63-1.455-.698-2.259a.5.5 0 1 1 .997-.084c.054.641.329 1.275.619 1.946.167.386.335.776.468 1.177.468 1.404 1.05 2.855 1.564 4.137.496 1.268.927 2.538 1.344 3.767.292.859.58 1.708.884 2.541a.5.5 0 0 1-.469.672zM346.679 121.076a.498.498 0 0 1-.424-.235c-.35-.559-.598-1.248-.837-1.915-.103-.284-.205-.57-.317-.847-.195-.584-.403-1.139-.611-1.694a46.344 46.344 0 0 1-.602-1.666 45.384 45.384 0 0 0-1.552-3.744 29.133 29.133 0 0 1-.754-2.025c-.226-.655-.459-1.332-.732-1.966a.5.5 0 0 1 .918-.396c.289.668.528 1.364.759 2.036.224.648.454 1.317.723 1.945a46.047 46.047 0 0 1 1.583 3.824c.185.553.39 1.097.593 1.641.213.567.425 1.133.614 1.701.105.26.212.557.318.853.233.645.451 1.255.744 1.723a.499.499 0 0 1-.423.765zM352.972 119.042a.501.501 0 0 1-.486-.379c-.111-.444-.34-.983-.561-1.505a20.518 20.518 0 0 1-.347-.848c-.23-.55-.442-1.117-.655-1.684a49.88 49.88 0 0 0-.634-1.633l-.054-.129c-1.073-2.594-2.183-5.275-3.366-7.91a.5.5 0 1 1 .912-.41c1.189 2.648 2.302 5.337 3.378 7.938l.054.128c.23.555.438 1.11.646 1.665.208.555.416 1.111.649 1.667.1.269.217.544.337.825.236.557.481 1.133.612 1.653a.501.501 0 0 1-.485.622zM356.026 112.839a.498.498 0 0 1-.446-.276 9.034 9.034 0 0 1-.398-.988c-.108-.303-.214-.605-.343-.865l-1.417-3.438c-.398-.854-.808-1.736-1.111-2.642a10.193 10.193 0 0 0-.284-.575c-.275-.536-.587-1.143-.663-1.742a.5.5 0 0 1 .992-.126c.054.424.324.948.561 1.411.123.239.24.468.329.678.299.889.697 1.746 1.082 2.575l.302.653 1.12 2.797c.13.256.253.597.374.938.109.306.217.613.349.875a.5.5 0 0 1-.447.725zM461.078 105.527a.498.498 0 0 1-.496-.45c-.094-.936-.384-2.039-.624-2.76-.102-.429-.181-.813-.26-1.194-.169-.818-.329-1.59-.574-2.322-.453-1.178-.826-2.389-1.187-3.56a34.594 34.594 0 0 1-.398-1.62 36.003 36.003 0 0 0-.366-1.51.5.5 0 1 1 .965-.264c.14.517.258 1.034.377 1.551.113.5.226 1.001.363 1.502.371 1.201.738 2.396 1.187 3.563.271.81.445 1.647.613 2.457.077.374.154.75.242 1.126.32.954.571 2.067.656 2.932a.5.5 0 0 1-.447.547l-.051.002zM466.079 106.453a.5.5 0 0 1-.5-.5c0-.267-.087-.559-.171-.84-.034-.117-.067-.229-.094-.334-.102-.615-.3-1.272-.45-1.722-.31-1.43-.709-2.783-1.023-3.807-.194-.724-.359-1.43-.524-2.137a63.409 63.409 0 0 0-.499-2.046c-.069-.342-.165-.664-.262-.993-.198-.67-.403-1.364-.403-2.096a.5.5 0 0 1 1 0c0 .587.184 1.21.362 1.812.106.36.209.71.277 1.05.177.662.338 1.354.5 2.045.162.696.324 1.393.511 2.09.314 1.025.72 2.405 1.025 3.819.146.432.359 1.143.465 1.783.014.052.044.149.074.251.095.317.212.712.212 1.125a.5.5 0 0 1-.5.5zM471.724 105.343a.5.5 0 0 1-.475-.343 11.428 11.428 0 0 1-.142-.475c-.045-.157-.09-.315-.135-.45a7.039 7.039 0 0 1-.387-1.357c-.121-.729-.327-1.47-.526-2.185-.104-.375-.208-.749-.301-1.123l-.343-1.279c-.637-2.372-1.238-4.613-1.788-6.966a.499.499 0 1 1 .974-.227c.546 2.336 1.145 4.57 1.78 6.934l.345 1.288c.093.373.195.74.296 1.105.206.741.419 1.508.546 2.274.083.418.167.755.342 1.191.061.176.109.349.158.521.044.153.087.304.13.434a.5.5 0 0 1-.474.658zM477.184 103.121a.5.5 0 0 1-.476-.349c-.678-2.131-1.249-4.252-1.765-6.226l-.261-.858c-.287-.943-.582-1.92-.931-2.894a17.074 17.074 0 0 1-.412-1.386c-.166-.62-.337-1.26-.589-1.817a.5.5 0 0 1 .912-.412c.285.63.467 1.312.643 1.971.12.45.237.892.386 1.305.36 1 .658 1.988.948 2.944l.265.873c.52 1.982 1.086 4.088 1.757 6.198a.5.5 0 0 1-.477.651z" fill="#292929"/>
    <path d="M463.9 108.088c-.685 0-1.296-.053-1.891-.163-.865-.129-1.702-.361-2.512-.586-.956-.265-1.858-.515-2.817-.611a.5.5 0 1 1 .099-.995c1.044.104 2.03.378 2.985.642.781.217 1.588.441 2.409.564.894.164 1.825.19 3.03.09.46-.043.937-.031 1.401-.019.594.013 1.207.03 1.798-.07 2.168-.362 4.3-1.289 6.363-2.186 1.691-.761 3.499-1.603 5.298-2.741 1.01-.642 2.031-1.291 3.029-2.018.524-.438 1.098-1.014 1.606-1.522a.5.5 0 0 1 .707.706c-.521.524-1.113 1.116-1.699 1.605-1.049.764-2.083 1.422-3.084 2.059-1.879 1.188-3.723 2.047-5.453 2.826-2.123.923-4.313 1.875-6.602 2.258-.683.114-1.345.097-1.987.083a11.182 11.182 0 0 0-1.289.015c-.502.042-.961.063-1.391.063zM433.034 150.094a.498.498 0 0 1-.447-.277 15.203 15.203 0 0 1-.575-1.364c-.175-.452-.339-.879-.537-1.275-.288-.852-.697-1.672-1.092-2.464-.206-.46-.417-.851-.628-1.242-.442-.82-.899-1.669-1.098-2.666a.5.5 0 1 1 .981-.196c.169.851.572 1.597.998 2.388.222.414.444.827.634 1.256.419.837.844 1.689 1.127 2.544.192.372.372.842.547 1.296.175.453.34.881.537 1.276a.5.5 0 0 1-.447.724zM519.199 143.101a.558.558 0 0 1-.258-.063c-.994-.512-1.799-1.288-2.577-2.039-.297-.286-.595-.575-.905-.85-.866-.743-1.78-1.388-2.954-2.083l-3.865-2.487a.605.605 0 0 1-.184-.82.57.57 0 0 1 .795-.19l3.847 2.476c1.215.721 2.18 1.401 3.106 2.196.329.292.641.591.949.889.75.725 1.46 1.409 2.304 1.844.285.147.4.503.259.797a.577.577 0 0 1-.517.33zM544.175 207.711a.5.5 0 0 1-.469-.325l-6.457-17.355a.501.501 0 0 1 .937-.35l6.457 17.356a.5.5 0 0 1-.468.674zM480.957 234.734c-4.691 0-9.349-.235-13.913-.715a.499.499 0 0 1-.445-.55.49.49 0 0 1 .55-.444c26.987 2.84 57.309-2.992 77.256-14.859a.5.5 0 0 1 .512.86c-16.743 9.96-40.72 15.708-63.96 15.708zM544.603 251.097c-1.607 0-3.218-.34-4.826-1.018-7.394-3.129-13.264-12.97-15.59-20.79a.502.502 0 0 1 .337-.622.502.502 0 0 1 .622.337c2.331 7.844 8.241 17.284 15.021 20.153 3.279 1.386 6.581 1.231 9.815-.459a.5.5 0 1 1 .463.886c-1.93 1.008-3.883 1.513-5.842 1.513z" fill="#292929"/>
    <path d="M553.545 263.801a.5.5 0 0 1-.497-.453c-1.912-20.214-12.34-41.264-12.446-41.474a.5.5 0 0 1 .895-.447c.105.212 10.617 21.423 12.547 41.827a.501.501 0 0 1-.499.547zM310.789 74.372c-.934 0-1.856-.43-2.503-1.205-.706-.985-1.504-2.616-1.504-4.069-.152-2.69 1.238-5.629 2.43-7.615a.5.5 0 0 1 .858.514c-1.12 1.866-2.427 4.608-2.289 7.073.001 1.166.651 2.585 1.296 3.486.571.682 1.484.981 2.303.728a.499.499 0 1 1 .293.956c-.29.09-.588.132-.884.132zM318.102 65.11a.499.499 0 0 1-.496-.446c-.198-1.809-.178-3.82-.16-5.768.006-.535.01-1.059.01-1.562a.5.5 0 0 1 1 0c0 .506-.004 1.033-.01 1.572-.018 1.917-.037 3.9.154 5.65a.5.5 0 0 1-.498.554zM508.828 265.292c-2.717 0-5.345-.776-5.498-.823a.499.499 0 0 1-.334-.331l-12.055-38.916a.5.5 0 1 1 .955-.295l11.974 38.655c.997.266 4.724 1.158 7.375.425-2.453-8.507-8.196-30.646-8.256-30.873a.501.501 0 0 1 .969-.252c.059.232 6.017 23.197 8.383 31.313a.5.5 0 0 1-.308.608c-.976.36-2.098.489-3.205.489z" fill="#292929"/>
    <path d="M168.346 178.871c-1.667.925-5.501 2.483-7.668 2.816-.659.101-3.068-18.366-3.068-18.366 11.176-4.097 16.66-7.962 19.621-16.477 2.962-8.514-5.206-9.993-5.669-18.579-.369-6.863 1.042-28.996-24.503-25.664-25.548 3.333-46.096 39.43-35.73 50.354 10.369 10.92 19.809 12.401 19.624 15.179-.186 2.776-9.997 17.956-10.551 18.696-.557.741 7.034 15.734 14.809 18.882 7.774 3.147 50.907 1.666 33.135-26.841z" fill="#FAD1D5"/>
    <path d="M53.758 376.853c-1.111-16.105-1.111-68.586 29.711-91.356 2.499-1.943 4.536-7.773 4.536-7.773 13.79 3.609 49.15 13.051 64.791 12.219-1.85 5.273-7.034 13.328-7.034 13.328l4.904 73.304-40.263.834-8.051-12.774 1.109 12.218H53.758z" fill="#FAAD3A"/>
    <path d="M54.258 376.853c-1.099-16.227.192-32.888 4.153-48.663 2.541-10.122 6.452-19.975 12.335-28.632a58.352 58.352 0 0 1 10.619-11.775c1.77-1.495 3.362-2.594 4.618-4.57 1.021-1.605 1.783-3.41 2.445-5.191l.059-.165-.615.349c10.527 2.756 21.066 5.465 31.702 7.775 10.739 2.332 22.157 4.978 33.222 4.462l-.482-.633c-1.672 4.572-4.236 8.855-6.827 12.962-.398.632-.159 1.476-.112 2.191l1.052 15.712 3.076 45.99.663 9.91.5-.5-30.844.638-7.012.146-1.902.039c-.856.017-.001.374-.246-.015l-7.878-12.5c-.247-.39-.979-.271-.932.252l1.109 12.218.5-.5H53.758c-.645 0-.645 1 0 1h49.703c.254 0 .525-.229.5-.5l-1.109-12.218-.932.252 7.879 12.501c.454.721 1.115.51 1.898.494l6.863-.142 32.106-.665c.259-.005.519-.224.5-.5l-4.779-71.444-.101-1.506c-.04-.587-.142-.017.327-.764 2.541-4.055 5.018-8.28 6.665-12.785.11-.3-.174-.648-.482-.633-10.995.513-22.279-2.126-32.957-4.426-10.638-2.292-21.175-5.019-31.701-7.775-.278-.073-.523.09-.615.349a30.885 30.885 0 0 1-2.099 4.602c-1.368 2.472-3.628 3.888-5.712 5.69-3.764 3.256-7 7.088-9.829 11.17-5.77 8.324-9.528 17.948-12.13 27.687-4.228 15.823-5.516 32.674-4.566 49.006.022.369.046.738.071 1.107.044.64 1.044.644 1 0z" fill="#FAAD3A"/>
    <path d="M111.888 296.92a.499.499 0 0 1-.086-.007c-11.371-1.958-21.868-6.373-26.742-11.247a.5.5 0 0 1 .707-.707c4.738 4.738 15.024 9.043 26.205 10.968a.5.5 0 0 1-.084.993z" fill="#292929"/>
    <path d="M63.384 377.077a.499.499 0 0 1-.499-.478c-.473-10.61-1.401-64.726 26.838-88.154a.5.5 0 1 1 .639.769c-27.875 23.127-26.948 76.813-26.478 87.34a.5.5 0 0 1-.477.522l-.023.001z" fill="#292929"/>
    <path d="M160.72 181.312c8.25-2 11.79-4.755 17.252-5.311 1.853-5.925-4.349-16.105-8.699-17.957-4.444 2.963-9.164 4.813-11.848 5.277 1.295 8.741 3.295 17.991 3.295 17.991z" fill="#463363"/>
    <path d="M160.853 181.794c5.752-1.443 11.21-4.596 17.119-5.293.224-.026.419-.133.482-.367 1.438-5.324-1.723-11.231-4.986-15.242-.501-.616-3.373-3.978-4.448-3.279-3.569 2.32-7.512 4.405-11.728 5.226-.29.056-.387.363-.349.615a291.16 291.16 0 0 0 3.295 17.991c.136.631 1.1.363.964-.266a291.91 291.91 0 0 1-3.295-17.991l-.349.615c1.727-.336 3.405-.903 5.02-1.598a53.571 53.571 0 0 0 3.014-1.411c.517-.261 3.376-2.343 3.795-2.145 3.618 1.711 6.08 6.455 7.425 9.994.704 1.85 1.075 3.817.961 5.795-.102 1.779-3.005 1.62-4.455 2.078-4.291 1.355-8.345 3.213-12.731 4.314-.625.157-.36 1.121.266.964z" fill="#463363"/>
    <path d="M151.724 164.33c-5.279 0-10.718-1.305-15.316-3.763a.5.5 0 0 1 .472-.882c6.084 3.252 13.687 4.422 20.338 3.131a.5.5 0 0 1 .19.982c-1.84.357-3.751.532-5.684.532z" fill="#292929"/>
    <path d="M125.398 143.327c2.456 7.734 7.463 9.788 6.179-1.767 21.797-13.051 22.56-30.998 19.506-37.246 13.467 1.806 22.493 7.914 20.41 23.185 14.299-3.747 13.329-27.906.97-32.347-.276-17.494-19.351-21.917-38.179-11.247-8.439 4.782-11.439 10.615-22.939 15.115-13.489 5.278-18.167 22.5-18.167 37 0 22.061-.129 32.854-17.483 46.32-17.355 13.47-33.643 30.566-23.602 51.788 6.108 12.91 19.437 12.079 19.437 12.079-3.748 17.354 6.941 27.627 17.215 26.935 0 0 2.916-36.098 6.665-51.926 3.748-15.828 11.105-22.353 23.463-28.6 12.357-6.247 15.524-8.451 14.3-20.41-.955-9.334-2.637-16.244-2.637-16.244-10.969 4.582-16.415-1.774-17.633-6.386-1.944-7.359 8.191-13.051 12.495-6.249z" fill="#463363"/>
    <path d="M124.916 143.459c.575 1.73 3.837 9.543 6.556 5.751.52-.725.617-1.746.729-2.6.111-.847.085-1.713.066-2.564-.043-1.948.128-2.377 1.792-3.454a50.518 50.518 0 0 0 9.988-8.488c6.221-6.874 11.824-18.797 7.468-28.043l-.564.735c5.521.773 11.22 2.233 15.453 6.065 4.679 4.238 5.334 10.718 4.589 16.638-.042.329.349.562.632.482 7.799-2.201 11.151-10.063 10.815-17.641-.168-3.802-1.362-7.597-3.528-10.73-.92-1.332-2.079-2.457-3.377-3.414-.734-.54-1.553-.953-2.388-1.31-.46-.198-.391-2.466-.482-3.07-1.412-9.474-9.989-14.112-18.891-14.16-11.603-.064-21.302 6.32-29.917 13.357-2.303 1.883-4.72 3.577-7.313 5.037-2.883 1.623-6.071 2.572-8.915 4.263-4.311 2.564-7.472 6.692-9.744 11.086-5.275 10.199-5.083 21.502-5.25 32.65-.149 9.884-1.101 19.646-7.062 27.879-3.469 4.789-8.159 8.374-12.731 12.031-5.109 4.088-9.975 8.508-14.223 13.496-4.252 4.992-7.719 10.721-9.318 17.122-1.678 6.717-.492 13.593 2.36 19.803 3.413 7.43 11.564 12.795 19.869 12.327l-.482-.632c-1.447 7.092-.968 14.606 3.4 20.62 3.29 4.53 8.7 7.228 14.297 6.947.29-.015.478-.218.5-.5 1.298-16.024 2.781-32.209 5.835-48.003 2.085-10.775 6.23-20.373 15.328-26.956 4.466-3.23 9.541-5.412 14.333-8.088 3.212-1.794 6.454-3.943 8.054-7.382 2.006-4.309 1.014-9.726.448-14.219-.536-4.243-1.222-8.504-2.226-12.664-.058-.244-.366-.448-.614-.35-6.275 2.495-13.773 2.059-16.661-4.948-2.837-6.881 6.649-13.605 11.224-6.953.363.527 1.23.028.863-.505-4.352-6.328-14.69-2.103-13.618 5.488.449 3.174 2.339 5.901 4.955 7.699 4.027 2.767 9.266 1.867 13.502.183l-.614-.349c1.054 4.369 1.74 8.843 2.302 13.297.585 4.634 1.419 10.056-1.198 14.243-2.493 3.989-7.83 6.153-11.834 8.193-4.508 2.295-8.888 4.776-12.725 8.103-7.678 6.657-10.845 16.288-12.681 25.977-1.87 9.872-2.979 19.902-4.033 29.887a715.222 715.222 0 0 0-1.64 17.347l.5-.5c-5.215.262-9.885-2.126-13.169-6.11-4.602-5.582-4.947-13.41-3.564-20.192.061-.301-.139-.652-.482-.633-7.529.424-14.669-4.122-18.324-10.5-7.124-12.433-2.814-26.06 5.635-36.462 4.117-5.07 9.042-9.46 14.088-13.578 4.513-3.681 9.072-7.13 12.731-11.716 5.715-7.163 7.403-15.855 7.838-24.799.539-11.087-.363-21.918 3.45-32.582 1.792-5.012 4.652-9.659 8.721-13.13 2.269-1.936 4.918-3.042 7.633-4.19 2.845-1.205 5.517-2.772 8.039-4.549 4.102-2.893 7.675-6.439 11.938-9.12 5.362-3.375 11.589-5.654 17.9-6.297 4.968-.507 10.149.297 14.348 3.107 4.428 2.961 6.283 8.132 6.436 13.261.008.24.152.4.367.482 12.645 4.832 12.273 27.645-.97 31.383l.633.482c.752-5.98.025-12.036-4.17-16.636-4.154-4.554-10.744-6.21-16.607-7.031-.442-.062-.764.31-.564.734 2.233 4.74 1.255 10.703-.397 15.444-3.208 9.21-10.8 16.173-18.931 21.118-.14.085-.265.26-.247.432.123 1.231 1.013 7.469-1.187 7.617-2.048.137-3.576-4.679-4.01-5.983-.202-.609-1.168-.348-.964.265z" fill="#463363"/>
    <path d="M149.349 135.206c-2.538.337-2.848 5.483-.348 5.345 2.498-.138 2.429-5.624.348-5.345z" fill="#292929"/>
    <path d="M149.071 136.26a.5.5 0 0 1-.284-.911l.107-.075c.795-.547 1.545-1.064 1.822-1.561a.5.5 0 0 1 .874.487c-.391.701-1.196 1.255-2.128 1.898l-.108.074a.5.5 0 0 1-.283.088zM167.539 129.312c-2.522.431-2.643 5.583-.151 5.353 2.493-.228 2.225-5.707.151-5.353z" fill="#292929"/>
    <path d="M167.283 130.377a.5.5 0 0 1-.3-.9l.129-.096c.763-.57 1.485-1.108 1.74-1.61a.5.5 0 1 1 .892.453c-.361.711-1.137 1.289-2.035 1.959l-.127.095a.499.499 0 0 1-.299.099zM162.607 147.646a.5.5 0 0 1-.361-.847c.305-.316.595-.611.867-.888 2.867-2.918 3.637-3.703.811-8l-.145-.221c-3.312-5.038-3.777-6.032-.779-11.608a.5.5 0 1 1 .881.474c-2.801 5.209-2.467 5.718.734 10.585l.145.221c3.269 4.971 2.039 6.223-.933 9.249-.271.276-.558.568-.86.882a.498.498 0 0 1-.36.153zM142.267 130.972c-1.773 3.208-1.458 4.858.833 2.847 2.292-2.015 5.553-4.097 7.429-4.931 1.874-.832.064-3.18-2.917-2.637-1.527.277-3.887 2.08-5.345 4.721z" fill="#292929"/>
    <path d="M148.483 126.671c-.255 0-.517.024-.782.072-1.381.251-3.627 1.991-4.997 4.471-.938 1.698-1.123 2.675-1.072 2.974.131-.029.474-.162 1.138-.745 2.382-2.093 5.712-4.192 7.556-5.012.354-.157.506-.359.455-.602-.103-.485-.959-1.158-2.298-1.158zm-6.915 7.526.005.5v-.5h-.005zm.005 1h-.001a.884.884 0 0 1-.782-.436c-.507-.86.286-2.667 1.039-4.031 1.587-2.874 4.065-4.676 5.694-4.971.322-.058.646-.088.96-.088 1.86 0 3.076 1.005 3.276 1.951.154.725-.23 1.369-1.027 1.723-1.775.789-4.992 2.819-7.302 4.849-.769.675-1.376 1.003-1.857 1.003zM163.025 126.667c1.803-3.261 4.787-6.525 6.316-6.109 1.529.416 2.221 2.5 1.319 3.125-.904.624-1.598-1.111-4.582.902-2.617 1.764-3.194 2.637-3.053 2.082z" fill="#292929"/>
    <path d="M169.06 121.022c-.977 0-2.794 1.687-4.368 3.926.321-.235.688-.495 1.107-.777 1.09-.736 2.041-1.093 2.906-1.093.449 0 .799.092 1.081.166.259.068.397.161.589.028.161-.111.223-.376.166-.708-.104-.605-.594-1.323-1.331-1.524a.582.582 0 0 0-.15-.018zm-6.022 6.311h-.244l-.174-.203c-.172-.221-.107-.477-.08-.586l.047-.119c1.846-3.337 5.021-6.861 6.886-6.349 1.193.324 1.901 1.43 2.054 2.319.124.725-.094 1.36-.583 1.699-.423.293-.925.245-1.412.117-.25-.066-.507-.133-.827-.133-.66 0-1.427.301-2.347.922a31.224 31.224 0 0 0-2.462 1.832c-.46.375-.615.501-.858.501zM157.597 154.056c-1.443 0-2.823-.56-4.13-1.669-1.094-.902-2.195-2.257-3.095-3.811a.5.5 0 1 1 .866-.501c.841 1.453 1.861 2.712 2.87 3.545 1.4 1.188 2.868 1.643 4.379 1.352.636-.16 1.393-.4 1.983-.924a.5.5 0 1 1 .664.747c-.751.668-1.651.958-2.431 1.153a5.82 5.82 0 0 1-1.106.108z" fill="#292929"/>
    <path d="M161.496 150.562c-.254 0-.509-.018-.764-.037-.802-.057-1.612-.081-2.38-.187a17.414 17.414 0 0 0-1.058-.125 40.817 40.817 0 0 1-2.644-.498c-.264-.071-.51-.131-.756-.19-.518-.125-1.053-.255-1.593-.452-.286-.081-.587-.216-.905-.359a10.775 10.775 0 0 0-.628-.268.499.499 0 1 1 .355-.934c.238.089.464.191.684.29.284.128.552.249.802.32.522.189 1.007.307 1.52.431.255.062.51.123.764.193a41.53 41.53 0 0 0 2.52.475c.33.023.703.074 1.077.126.81.112 1.557.127 2.314.181a7.652 7.652 0 0 0 1.839-.095l.185.982c-.443.074-.881.147-1.332.147z" fill="#292929"/>
    <path d="M159.328 133.74c.588-.853 1.329-1.507 2.3-1.894 1.017-.405 1.828.1 2.679.605.556.33 1.058-.535.504-.864-1.161-.689-2.102-1.109-3.448-.705-1.222.365-2.196 1.333-2.899 2.353-.367.533.5 1.032.864.505z" fill="#5569AF"/>
    <path d="M154.807 123.042c-12.368-7.697-20.671 14.059-10.838 21.266 5.162 3.783 11.385.653 13.921-4.583 2.543-5.254 1.93-13.06-3.083-16.683-.524-.378-1.022.49-.505.864 4.407 3.185 4.746 9.693 3.097 14.408-1.901 5.439-8.339 8.99-13.261 4.84-8.139-6.861-.936-26.157 10.164-19.248.549.341 1.05-.524.505-.864z" fill="#5569AF"/>
    <path d="M131.779 143.324c3.216-.949 6.433-1.897 9.649-2.847.617-.181.355-1.147-.266-.963l-9.649 2.846c-.617.182-.354 1.147.266.964zM178.015 130.48c.687-4.199.623-11.261-3.727-13.629-1.918-1.045-4.189-.041-5.695 1.222-2.478 2.075-3.485 5.772-4.043 8.797-.756 4.099-1.19 12.761 4.723 13.453 5.449.637 7.894-5.46 8.742-9.843.122-.63-.842-.899-.964-.266-.703 3.633-2.343 8.717-6.657 9.157-5.534.563-5.399-7.214-5.079-10.768.332-3.699 3.187-13.765 8.855-10.679 3.605 1.963 3.436 8.896 2.881 12.29-.104.631.86.901.964.266z" fill="#5569AF"/>
    <path d="M176.212 373.382c1.136-1.819-.811-4.638-1.804-5.692-2.935-3.11-5.97-5.832-11.707-6.109-2.103-.101-6.815.839-8.886.371-3.358-.759-4.722-24.249-4.722-24.249-13.328 1.804-27.582 3.887-27.582 3.887s7.508 30.168 9.534 32.21c2.519 2.536 5.241 3.551 8.422 2.775 3.045-.742 8.153-1.77 11.292-2.036 3.434-.293 6.234.026 9.442 1.111 1.341.453 1.519 1.589 4.074.65 1.029-.381 3.564 1.065 4.627.738 0 0 1.759-.971 2.037-1.388.277-.417 3.331.827 5.273-2.268z" fill="#FAD1D5"/>
    <path d="m89.116 271.06-1.111 6.664s7.034 5.366 19.991 6.849c2.593 12.588 13.515 57.017 13.515 57.017 9.442 2.221 23.603-.187 28.045-3.148-.185-13.884-5.459-46.279-6.941-49.057 6.478 1.481 10.181.558 10.181.558 4.073-12.405 9.071-25.918 10.921-31.102 1.852-5.182 3.703-7.404 8.147-9.255 4.443-1.852 19.253-8.329 16.289-32.211 9.441 1.296 23.327 3.517 23.327 3.517l-.37-39.614s-23.882-11.849-44.244-1.852c6.294 5.924 4.258 16.292-7.22 21.845-11.477 5.555-27.028.74-36.098-10.367-10.366 2.962-24.621 11.849-28.323 30.915-3.702 19.066-6.109 49.241-6.109 49.241z" fill="#5569AF"/>
    <path d="m88.634 270.927-1.111 6.664c-.041.246.033.416.23.565 1.629 1.227 3.526 2.139 5.375 2.975 1.934.874 3.941 1.573 5.973 2.179.831.248 8.442 1.535 8.471 1.674 1.431 6.914 3.101 13.782 4.729 20.65a4543.957 4543.957 0 0 0 8.728 36.089c.04.161.185.313.349.35 8.052 1.784 17.217 1.028 25.011-1.614 1.19-.403 2.356-.914 3.419-1.586.651-.411.19-2.501.16-3.149-.161-3.53-.505-7.054-.883-10.566-.822-7.661-1.923-15.296-3.201-22.893-.498-2.959-1.031-5.914-1.656-8.85-.3-1.409-.536-2.977-1.182-4.282l-.564.735c3.312.712 7.078 1.349 10.447.557.442-.104.551-.961.628-1.197.563-1.709 1.14-3.415 1.719-5.119a820.464 820.464 0 0 1 3.186-9.168c1.693-4.794 3.43-9.571 5.158-14.354 1.746-4.836 3.585-8.515 8.538-10.586 4.319-1.805 8.165-4.404 11.118-8.078 5.528-6.877 6.362-16.081 5.377-24.548l-.633.483c7.789 1.075 15.562 2.275 23.327 3.516.313.05.636-.129.633-.482l-.37-39.614c-.002-.167-.092-.356-.248-.432-13.493-6.647-30.988-8.411-44.749-1.851-.293.139-.317.573-.101.785 3.551 3.493 4.212 8.305 2.067 12.756-2.46 5.103-8.099 8.404-13.381 9.818-11.529 3.087-23.985-3.044-31.296-11.804-.11-.132-.328-.175-.487-.129-7.08 2.07-13.519 5.951-18.622 11.282-6.717 7.016-9.404 15.825-10.986 25.181-2.469 14.605-4.01 29.415-5.191 44.176-.052.644.948.639 1 0 .537-6.713 1.214-13.417 1.954-20.111a509 509 0 0 1 2.329-18.259c.863-5.852 1.66-11.83 3.663-17.419 3.7-10.323 12.037-18.343 22.078-22.488.895-.37 1.808-.692 2.726-.995 1.407-.467 1.86.693 2.794 1.676 2.037 2.145 4.406 3.964 6.9 5.541 4.605 2.914 9.942 4.631 15.366 5.03 7.444.546 15.832-2.414 20.425-8.511 3.872-5.139 4.111-11.786-.632-16.451l-.101.785c11.247-5.361 24.064-4.661 35.75-1.164 2.658.796 5.301 1.746 7.814 2.93.057.028-.075-.627-.066.299l.027 2.916.337 36.053.633-.482c-7.765-1.241-15.538-2.442-23.327-3.517-.285-.039-.675.124-.633.482 1 8.592.09 17.655-5.636 24.515-3.167 3.795-7.256 5.765-11.607 7.806-3.335 1.564-5.257 4.295-6.644 7.61-1.638 3.917-2.927 8.023-4.361 12.017a900.843 900.843 0 0 0-5.96 17.084c-.113.334-.872 3.074-.892 3.078-.485.105-.981.146-1.475.188-2.791.236-5.61-.185-8.331-.77-.442-.095-.762.335-.564.734 1.065 2.156 1.295 4.999 1.741 7.326.882 4.596 1.617 9.22 2.304 13.848a361.142 361.142 0 0 1 2.048 16.161c.232 2.245.426 4.493.577 6.745.067.985.116 1.969.156 2.954.055 1.345.082 1.536-1.147 2.13-5.135 2.479-11.514 3.03-17.119 3.151a48.064 48.064 0 0 1-4.426-.137c-.473-.034-4.351-.47-4.325-.364l-.316-1.286a5748.055 5748.055 0 0 1-4.81-19.768c-2.888-11.957-5.894-23.909-8.388-35.957-.048-.235-.269-.341-.482-.367-6.403-.785-12.809-2.544-18.376-5.882a20.195 20.195 0 0 1-1.181-.767c-.383-.268.123-.014.056.389l.151-.909.952-5.711c.105-.631-.859-.901-.964-.266z" fill="#5569AF"/>
    <path d="M107.996 285.073a.502.502 0 0 1-.49-.401c-3.072-15.178-6.415-29.776-8.131-35.5a.5.5 0 0 1 .958-.287c1.723 5.749 5.076 20.384 8.154 35.588a.501.501 0 0 1-.491.6zM143.172 290.81a.5.5 0 0 1-.491-.407c-.249-1.322-.935-2.869-1.804-4.829-1.011-2.284-2.271-5.124-3.37-8.819-1.272-4.285-1.545-14.046-1.785-22.657-.147-5.278-.286-10.264-.639-13.153a.5.5 0 0 1 .436-.557.493.493 0 0 1 .557.436c.358 2.936.498 7.944.646 13.246.238 8.55.508 18.241 1.744 22.4 1.08 3.633 2.325 6.442 3.326 8.698.894 2.02 1.601 3.615 1.871 5.049a.499.499 0 0 1-.491.593zM188.339 218.616a.501.501 0 0 1-.497-.449c-.006-.053-.561-5.4-1.109-9.048a.5.5 0 0 1 .99-.149c.55 3.671 1.108 9.04 1.114 9.094a.501.501 0 0 1-.498.552zM102.259 365.967a.5.5 0 0 1-.499-.474l-.648-12.68a.5.5 0 0 1 .474-.525c.262-.034.511.198.525.474l.648 12.68a.5.5 0 0 1-.474.524l-.026.001z" fill="#292929"/>
    <path d="M101.887 357.824a.5.5 0 0 1-.107-.989l8.425-1.852a.498.498 0 0 1 .596.381.499.499 0 0 1-.381.595l-8.425 1.853a.51.51 0 0 1-.108.012zM164.551 376.52a.5.5 0 0 1-.147-.978c.121-.037.148-.088.166-.138.151-.422-.317-1.473-.712-2.07-1.625-2.22-4.549-3.959-7.436-4.409-1.254-.267-2.478-.18-3.775-.087-.571.057-1.156.193-1.775.337-.313.073-.626.146-.939.208a.5.5 0 1 1-.195-.98c.302-.061.605-.131.907-.201.623-.146 1.267-.295 1.917-.361 1.323-.094 2.676-.191 4.042.101 3.108.484 6.288 2.379 8.075 4.821.137.207 1.221 1.89.832 2.978-.133.373-.414.634-.813.756a.474.474 0 0 1-.147.023z" fill="#292929"/>
    <path d="M169.921 376.614a.501.501 0 0 1-.224-.948c.741-.371 1.054-.728 1.115-1.275.187-.768.16-1.484-.064-2.081-.448-1.606-1.934-2.975-3.018-3.974-1.286-1.195-2.982-1.915-4.47-2.495-1.486-.576-2.962-.715-4.643-.433-.721.049-1.416.165-2.088.277-.693.115-1.409.234-2.126.282-.269.033-.514-.189-.533-.466a.5.5 0 0 1 .466-.532c.668-.045 1.36-.159 2.029-.27.696-.117 1.416-.237 2.137-.284 1.815-.305 3.459-.152 5.121.495 1.575.614 3.372 1.378 4.786 2.692 1.171 1.079 2.778 2.56 3.289 4.398.281.744.32 1.67.096 2.568-.116 1.087-.944 1.639-1.65 1.993a.497.497 0 0 1-.223.053z" fill="#292929"/>
    <path d="m253.963 141.108-2.498-9.998s6.477-16.843 9.994-17.401c3.518-.555 7.592-2.778 6.296-9.071-1.297-6.293-4.445-4.813-4.445-4.813-3.145-5.368-5.924-4.997-7.774-4.072-4.998-6.664-15.736-7.59-21.66 3.332-5.922 10.922-3.886 31.839.187 56.275 6.295-4.257 19.9-14.252 19.9-14.252z" fill="#FAD1D5"/>
    <path d="M149.495 209.432c-6.758 0-17.448-1.7-27.316-10.54a.499.499 0 1 1 .667-.744c10.978 9.833 22.997 10.607 29.18 10.201 7.107-.473 13.544-2.935 16.399-6.272 3.532-4.263 4.945-10.067 5.088-14.075.009-.277.269-.487.517-.482.276.01.491.242.482.518-.192 5.404-2.182 10.893-5.322 14.683-3.027 3.538-9.736 6.137-17.098 6.626-.779.052-1.65.085-2.597.085z" fill="#292929"/>
    <path d="M239.533 126.348c-3.608-1.326-4.146-4.426-1.193-6.886l15.952-13.293c2.953-2.462 5.903-1.376 6.556 2.413l3.54 20.457c.655 3.79-1.761 5.801-5.368 4.475l-19.487-7.166z" fill="#65B6DE"/>
    <path d="M255.926 106.6c.187 3.313 2.117 4.049 3.497 3.222-.551 3.68 2.762 4.415 3.683 3.587.92-.828-.278-11.594-6.719-10.766-.92 2.485-.461 3.957-.461 3.957z" fill="#FAD1D5"/>
    <path d="M249.532 91.184c-8.423-2.345-16.289 4.28-18.775 16.842-1.133 5.727-.831 13.465-.074 21.012 1.389.128 2.759.36 4.115.667l.514-9.808c2.348.691 12.701 2.071 14.22-3.588 1.517-5.66-5.247-7.455-11.321-5.246.691-3.037 2.208-8.145 6.074-9.525 3.866-1.38 6.211 8.559 10.629 6.074 4.417-2.484 3.037-14.08-5.382-16.428z" fill="#FAD1D5"/>
    <path d="M240.897 121.063c-2.462 0-4.716-.389-5.726-.687a.5.5 0 1 1 .282-.959c1.75.515 7.957 1.378 11.411-.559 1.145-.642 1.88-1.543 2.185-2.678.453-1.692.139-3.047-.933-4.03-1.912-1.753-5.914-2.006-9.734-.617a.5.5 0 0 1-.658-.581c1.265-5.567 3.356-8.801 6.392-9.885 2.149-.769 3.778 1.264 5.358 3.226 1.942 2.414 3.352 3.918 5.195 2.883.954-.537 1.639-1.583 1.979-3.025.625-2.646-.064-5.974-1.757-8.479a.501.501 0 0 1 .83-.56c1.84 2.726 2.587 6.364 1.901 9.269-.407 1.72-1.258 2.989-2.462 3.666-2.715 1.53-4.709-.943-6.465-3.127-1.423-1.767-2.766-3.436-4.242-2.912-2.535.906-4.354 3.624-5.545 8.297 3.89-1.168 7.86-.748 9.884 1.108.941.862 1.917 2.435 1.223 5.025-.377 1.406-1.273 2.514-2.663 3.293-1.799 1.009-4.213 1.332-6.455 1.332z" fill="#292929"/>
    <path d="M257.945 110.627c-.15 0-.296-.012-.439-.037-.735-.129-1.989-.719-2.124-3.228a.5.5 0 1 1 .999-.053c.051.953.318 2.125 1.298 2.296 1.437.247 3.964-1.634 5.194-4.535.647-1.521.475-3.598-.459-5.555a.5.5 0 0 1 .903-.43c1.071 2.244 1.245 4.568.476 6.376-1.24 2.928-3.823 5.166-5.848 5.166z" fill="#292929"/>
    <path d="M261.93 114.154c-.706 0-1.349-.22-1.856-.651-.943-.799-1.283-2.189-.956-3.913a.5.5 0 0 1 .982.186c-.256 1.355-.036 2.408.621 2.965.542.46 1.362.538 2.248.214a.5.5 0 1 1 .344.938 4.012 4.012 0 0 1-1.383.261z" fill="#292929"/>
    <path d="m397.802 158.632-74.35-42.925c-7.406-4.276-19.526-4.276-26.931 0l-74.35 42.925c-7.406 4.277-13.466 14.773-13.466 23.324v85.852c0 8.552 6.06 19.048 13.466 23.325l74.35 42.924c7.405 4.277 19.525 4.277 26.931 0l74.35-42.924c7.406-4.277 13.464-14.773 13.464-23.325v-85.852c0-8.551-6.058-19.047-13.464-23.324z" fill="#D8EFFB"/>
    <path d="M361.979 208.267c0-28.012-22.711-50.722-50.723-50.722s-50.721 22.71-50.721 50.722c0 20.236 11.852 37.699 28.992 45.84 5.543 3.367 5.556 7.739 5.315 15.546-.202 6.572-.646 11.867 2.382 14.648 2.418 2.649 7.785 4.493 14.032 4.493 6.249 0 11.614-1.844 14.034-4.493 3.029-2.781 2.584-8.076 2.381-14.648-.24-7.807-.227-12.179 5.314-15.546 17.141-8.141 28.994-25.604 28.994-45.84z" fill="#FAAD3A"/>
    <path d="M362.479 208.267c-.149-21.905-14.209-41.462-34.931-48.575-20.902-7.175-44.36.656-57.503 18.157-13.788 18.358-12.928 44.308 1.077 62.238 3.498 4.478 7.824 8.27 12.578 11.36 2.425 1.576 5.259 2.593 7.465 4.47 2.207 1.877 2.936 4.615 3.17 7.387.498 5.877-1.003 11.965.451 17.752 1.173 4.669 6.233 6.709 10.46 7.645 7.139 1.579 19.832.824 22.482-7.645 2.622-8.383-3.989-21.924 6.15-26.827 17.465-8.445 28.461-26.709 28.601-45.962.005-.645-.995-.645-1 0-.093 12.777-4.878 24.924-13.551 34.31-4.13 4.468-9.126 8.069-14.555 10.789-4.048 2.028-5.824 5.562-6.194 9.938-.513 6.047 1.673 13.311-.991 18.985-2.835 6.04-12.873 6.36-18.391 5.812-3.305-.329-6.815-1.337-9.45-3.419-2.644-2.09-3.046-5.267-3.143-8.426-.17-5.549 1.122-11.528-.599-16.929-1.526-4.79-6.544-6.313-10.401-8.744-5.292-3.336-9.868-7.76-13.574-12.785-7.42-10.061-10.56-22.727-9.293-35.103 2.449-23.906 22.681-42.75 46.418-44.531 13.884-1.041 27.666 4.035 37.839 13.453 10.161 9.408 15.792 22.868 15.885 36.65.004.645 1.004.646 1 0z" fill="#FAAD3A"/>
    <path d="M327.749 262.563a75.913 75.913 0 0 1-16.493 1.795c-5.693 0-11.22-.622-16.492-1.795.211 2.007.163 4.332.078 7.09-.202 6.572-.646 11.867 2.382 14.648 2.418 2.649 7.785 4.493 14.032 4.493 6.249 0 11.614-1.844 14.034-4.493 3.029-2.781 2.584-8.076 2.381-14.648-.084-2.758-.133-5.083.078-7.09z" fill="#463363"/>
    <path d="M327.616 262.08a77.336 77.336 0 0 1-32.719 0c-.293-.062-.664.141-.633.483.58 6.468-1.654 14.154 1.199 20.231 2.523 5.378 10.674 6.428 15.793 6.5 5.465.078 12.841-1.303 15.796-6.5 1.336-2.349 1.273-5.468 1.263-8.074-.014-4.053-.428-8.109-.066-12.157.058-.643-.943-.637-1 0-.538 6.004.995 12.332-.485 18.226-1.564 6.228-10.246 7.431-15.508 7.505-5.536.078-13.6-1.416-15.506-7.505-.837-2.676-.578-5.759-.495-8.522.097-3.232.299-6.477.009-9.704l-.633.482a78.624 78.624 0 0 0 33.251 0c.63-.136.363-1.1-.266-.965z" fill="#463363"/>
    <path d="M311.219 195.975c-.394 0-.784.029-1.162.087-3.492.529-7.132 3.589-6.878 10.588.249 6.855 3.557 13.984 8.363 18.719.268-.307.52-.612.757-.913 6.084-7.713 7.538-18.416 6.249-23.174-.975-3.593-4.295-5.307-7.329-5.307zm10.641 34.862c3.706.54 7.527-.276 11.284-2.442 5.512-3.179 8.646-6.957 8.598-10.366-.024-1.768-.929-3.262-2.481-4.101-1.891-1.021-4.285-.826-6.403.522-2.214 1.407-7.365 5.677-10.998 16.387zm-37.587-13.036c-1.233 0-2.195.339-2.814 1.013-.952 1.036-1.025 2.83-.194 4.799 1.585 3.758 6.56 8.237 15.36 8.494.847.025 1.66-.003 2.441-.078-2.704-6.75-6.499-11.995-11.513-13.627-1.231-.402-2.335-.601-3.28-.601zm21.055 48.167-.035-.001a.999.999 0 0 1-.965-1.033c.315-9.136-1.082-21.299-4.531-30.972a21.68 21.68 0 0 1-3.23.145c-9.749-.285-15.329-5.412-17.145-9.717-1.143-2.71-.932-5.301.565-6.93.958-1.042 3.294-2.552 8.185-.961 5.932 1.932 10.099 7.887 12.935 15.219 3.87-.816 6.854-2.787 9.063-4.908-5.168-5.099-8.723-12.744-8.99-20.088-.302-8.312 4.232-11.978 8.576-12.638 4.882-.742 9.49 2.13 10.721 6.674 1.613 5.952-.658 17.393-6.607 24.937-.276.35-.558.689-.844 1.017a20.322 20.322 0 0 0 3.151 2.169 17.346 17.346 0 0 0 3.654 1.521c3.645-10.979 8.955-15.734 11.954-17.64 2.738-1.744 5.888-1.964 8.426-.594 2.177 1.176 3.497 3.356 3.531 5.832.034 2.443-1.168 7.266-9.599 12.127-4.881 2.815-9.269 3.25-12.901 2.645-2.17 7.232-3.633 17.107-3.27 30.52a1.002 1.002 0 0 1-.973 1.028c-.54-.004-1.013-.42-1.027-.973-.365-13.532 1.064-23.585 3.26-31.034a19.472 19.472 0 0 1-4.024-1.682 22.222 22.222 0 0 1-3.555-2.467c-2.861 2.79-6.188 4.627-9.852 5.453 3.69 10.659 4.794 23.613 4.526 31.385a1 1 0 0 1-.999.966z" fill="#463363"/>
    <path d="M310.736 270.907c-4.389 0-8.884-.447-13.282-1.741a.498.498 0 0 1-.338-.62.501.501 0 0 1 .62-.339c8.714 2.563 17.884 1.722 25.797.734a.508.508 0 0 1 .558.434.5.5 0 0 1-.435.558c-4.051.507-8.43.974-12.92.974z" fill="#292929"/>
    <path d="M234.347 255.788c-3.016 2.362-5.924 1.192-6.461-2.601l-2.9-20.487c-.537-3.795 1.928-5.726 5.482-4.294l19.192 7.728c3.554 1.432 3.994 4.534.978 6.897l-16.291 12.757z" fill="#ED4477"/>
    <path d="M304.98 307.328c-.645.225-1.261.49-1.842.796-1.81.956-3.982 2.713-4.046 5.663-.038 1.728.512 2.908 1.59 3.41 1.301.607 3.22.139 4.668-1.133.781-.686 2.497-2.598 1.569-5.524-.366-1.155-1.043-2.248-1.939-3.212zm-3.012 11.134a4.033 4.033 0 0 1-1.708-.359c-.837-.39-2.231-1.471-2.168-4.338.058-2.68 1.685-4.997 4.579-6.524.483-.255.989-.484 1.514-.685-1.908-1.677-4.508-2.837-7.19-3.047-2.13-.167-6.01.183-8.117 4.396a.5.5 0 1 1-.894-.448c1.73-3.46 5.043-5.268 9.089-4.945 3.084.242 6.072 1.656 8.177 3.68 5.033-1.529 11.411-.834 15.626 1.916a.5.5 0 0 1-.547.838c-3.855-2.516-9.63-3.211-14.309-1.94.845.985 1.487 2.079 1.852 3.232.768 2.42.071 4.879-1.862 6.577-1.216 1.069-2.693 1.647-4.042 1.647z" fill="#5569AF"/>
    <path d="M381.924 266.477c0 6.644-5.388 12.031-12.033 12.031-6.644 0-12.032-5.387-12.032-12.031 0-6.646 5.388-12.033 12.032-12.033 6.645 0 12.033 5.387 12.033 12.033z" fill="#65B6DE"/>
    <path d="M382.884 177.678a5.83 5.83 0 0 1-8.17 1.111l-9.065-6.889a5.834 5.834 0 0 1-1.111-8.172 5.83 5.83 0 0 1 8.172-1.112l9.062 6.89a5.833 5.833 0 0 1 1.112 8.172zM257.278 272.771a5.83 5.83 0 0 1 7.339 3.761l3.493 10.836a5.83 5.83 0 0 1-3.762 7.337 5.83 5.83 0 0 1-7.34-3.76l-3.492-10.836a5.831 5.831 0 0 1 3.762-7.338z" fill="#F8C1C6"/>
    <path d="M241.328 173.447c-4.088 0-7.415 3.326-7.415 7.414 0 4.088 3.327 7.414 7.415 7.414 4.087 0 7.414-3.326 7.414-7.414 0-4.088-3.327-7.414-7.414-7.414zm0 15.828c-4.64 0-8.415-3.775-8.415-8.414 0-4.64 3.775-8.414 8.415-8.414 4.639 0 8.414 3.774 8.414 8.414 0 4.639-3.775 8.414-8.414 8.414z" fill="#5569AF"/>
    <path d="M295.495 130.831c-.209 0-.415.013-.615.038-1.231.311-2.15 1.123-2.674 2.402-.79 1.932-.515 4.722.655 6.634 1.045 1.708 2.482 2.959 4.144 3.673 2.672-2.982 4.777-6.768 3.196-9.928-.695-1.845-2.851-2.819-4.706-2.819zm-9.479 19.772c-1.668 0-3.479-.292-5.498-.867a.5.5 0 1 1 .275-.962c5.264 1.499 8.855 1.016 12.393-1.673a28.135 28.135 0 0 0 3.095-2.748c-1.708-.812-3.183-2.145-4.273-3.926-1.324-2.163-1.629-5.331-.727-7.535.642-1.567 1.823-2.606 3.416-3.004 2.452-.314 5.483.868 6.419 3.363 1.859 3.711-.544 7.772-3.099 10.687a8.887 8.887 0 0 0 3.734.233c4.043-.587 7.344-3.546 8.411-7.54a.5.5 0 0 1 .966.258c-1.17 4.381-4.794 7.628-9.234 8.272-1.62.233-3.189.087-4.625-.404a30.859 30.859 0 0 1-3.478 3.14c-2.394 1.82-4.87 2.706-7.775 2.706z" fill="#FAAD3A"/>
    <path d="M429.175 253.725c-.418-3.61-2.434-11.164-3.938-15.062-1.109-2.876-.305-4.674-4.609-7.173-4.305-2.499-9.58-6.943-10.553-7.359-.971-.417-2.498-6.385-8.191-1.11-5.69 5.275-11.938 5.692-13.465.693-2.916-.554-4.582-2.914-3.75-4.581.834-1.666 7.498-6.247 7.498-6.247-3.332 1.803-9.164 2.22-9.996-.277-.834-2.5 1.943-4.445 6.664-5.832 4.721-1.389 23.603-9.858 28.738-6.664 5.137 3.192 13.33 10.135 19.16 14.023 5.832 3.886 7.914 10.134 10.692 17.492 2.775 7.359 4.998 15.134 4.998 15.134s-7.283 12.795-23.248 6.963z" fill="#FAD1D5"/>
    <path d="M387.962 223.839c-1.252 0-2.427-.484-3.346-1.818a.5.5 0 1 1 .824-.566c1.817 2.638 4.926 1.068 8.22-.927l.662-.399c.251-.131.483-.246.715-.36.827-.408 1.608-.794 2.234-1.382a.502.502 0 0 1 .686.729c-.735.69-1.621 1.127-2.478 1.549-.225.112-.45.223-.671.338l-.63.38c-1.672 1.013-4.057 2.456-6.216 2.456zM385.829 214.741c-.551 0-1.113-.06-1.701-.215a.5.5 0 1 1 .254-.967c1.322.348 2.579.12 3.911-.119.319-.059.642-.116.972-.169a20.917 20.917 0 0 0 3.312-1.077c.25-.128.511-.246.772-.364.249-.114.498-.227.769-.363.186-.094.37-.208.56-.325.376-.232.802-.496 1.285-.635a.497.497 0 0 1 .618.343.499.499 0 0 1-.343.618c-.349.101-.698.317-1.035.525-.215.132-.426.262-.637.368-.282.142-.543.261-.803.379-.249.113-.498.226-.77.362-1.222.51-2.368.881-3.538 1.15-.356.058-.672.115-.984.171-.891.161-1.751.318-2.642.318z" fill="#292929"/>
    <path d="M422.524 202.198a4.295 4.295 0 0 1 1.198 5.927L412.2 225.472a4.285 4.285 0 0 1-5.924 1.197l-17.347-11.518a4.29 4.29 0 0 1-1.198-5.926l11.52-17.346a4.288 4.288 0 0 1 5.926-1.198l17.347 11.517z" fill="#5569AF"/>
    <path d="M515.042 152.233c-25.727 1.365-21.291 22.578-19.236 29.513 1.88 6.345-6.856 11.639-2.397 19.475 4.461 7.835 12.326 12.081 24.545 12.638 0 0-.605 13.608-1.16 18.047l25.549-1.666c-1.071-7.869-3.379-24.191-.233-30.267 1.28-2.472 9.004 7.905 17.213-4.719 8.211-12.625-18.555-44.386-44.281-43.021z" fill="#FAD1D5"/>
    <path d="M517.931 214.243a.5.5 0 0 1-.03-.999c6.149-.364 12.698-2.878 17.523-6.727a.5.5 0 0 1 .623.781c-4.979 3.974-11.74 6.57-18.087 6.944l-.029.001zM518.714 184.71c2.556-.129 3.795 4.876 1.312 5.194-2.482.316-3.41-5.088-1.312-5.194z" fill="#292929"/>
    <path d="M519.089 185.706a.49.49 0 0 1-.205-.043l-.154-.07c-1.018-.457-1.898-.852-2.404-1.465a.5.5 0 0 1 .772-.636c.357.432 1.175.799 2.042 1.189l.154.069a.501.501 0 0 1-.205.956zM499.755 182.22c2.558-.037 3.613 5.01 1.121 5.236-2.49.229-3.223-5.209-1.121-5.236z" fill="#292929"/>
    <path d="M500.11 183.229a.505.505 0 0 1-.222-.052l-.168-.084c-.993-.49-1.85-.914-2.33-1.543a.499.499 0 1 1 .792-.607c.34.442 1.137.837 1.981 1.254l.17.084a.5.5 0 0 1-.223.948zM507.877 196.063c-1.635 0-3.267-.188-4.669-1.445-1.768-1.581-.725-3.501-.035-4.772 1.009-1.864 2.036-4.074 1.992-6.333-.038-1.896-.761-2.776-1.856-4.107l-.456-.559a.501.501 0 0 1 .78-.626l.449.549c1.139 1.386 2.038 2.479 2.083 4.724.048 2.491-1.041 4.849-2.113 6.829-.819 1.507-1.273 2.569-.177 3.549 1.409 1.264 3.169 1.222 5.03 1.174.285-.007.569-.014.854-.016h.004a.5.5 0 0 1 .003 1c-.278.002-.557.008-.835.016-.35.008-.703.017-1.054.017zM507.928 200.093c.91 1.727 1.876 2.633 2.817 2.633 1.679 0 3.243-2.692 4.045-5.213-2 1.354-5.066 2.4-6.862 2.58zm2.817 3.633c-1.5 0-2.869-1.315-4.069-3.911a.502.502 0 0 1 .048-.503.514.514 0 0 1 .462-.204c1.612.197 6.48-1.516 8.11-3.313a.5.5 0 0 1 .86.434c-.623 3.113-2.713 7.497-5.411 7.497z" fill="#292929"/>
    <path d="M514.845 178.312c-.692-1.735 1.002-3.693 4.125-2.375 2.328.983 4.607 3.211 5.716 5.295 1.112 2.081-.211.869-1.529-.17-1.318-1.041-3.111-2.257-6.375-2.188-1.144.024-1.797.132-1.937-.562z" fill="#ED4477"/>
    <path d="M517.047 178.372c3.085 0 4.909 1.104 6.42 2.297l.445.355.155.125c-1.165-1.986-3.294-3.907-5.292-4.752-1.481-.624-2.793-.47-3.343.339-.27.4-.316.907-.123 1.391.048.199.063.267.617.267.143 0 .301-.004.473-.009l.648-.013zm7.961 4.499c-.378 0-.801-.328-1.722-1.067l-.438-.349c-1.277-1.008-2.882-2.083-5.801-2.083l-.617.012c-.183.006-.351.01-.504.01-.446 0-1.372 0-1.572-.983a2.385 2.385 0 0 1 .251-2.236c.819-1.207 2.627-1.514 4.559-.699 2.334.986 4.73 3.205 5.964 5.521.478.895.572 1.282.387 1.591a.68.68 0 0 1-.507.283z" fill="#ED4477"/>
    <path d="M494.306 172.485c2.22-3.794 11.107-13.329 23.509-18.606 0 11.663 6.2 29.804 20.547 30.265-.463 4.814-1.017 8.331.184 8.794 1.207.464 5.183-2.128 5.832-7.867 3.428-3.701 11.66-2.5 13.513 3.333 1.852 5.832-3.794 14.901-14.16 10.737-1.666-.278-3.703 2.776-3.332 9.439 8.422.927 17.68-2.036 22.772-10.735 5.088-8.7 4.164-19.342-1.115-27.86-5.274-8.517-6.293-11.941-5.274-16.291 15.365 3.147 24.908-7.598 22.828-21.203-2.084-13.608-15.158-21.999-29.875-18.25-14.715 3.749-18.875 21.125-4 31.25-2.084 2.359-8.482.057-16.535-3.69-8.053-3.748-32.033-9.225-43.873 9.304-12.125 18.974 5.832 31.375 10.412 30.127-1.666-4.999-1.433-8.747-1.433-8.747z" fill="#ED4477"/>
    <path d="m567.89 344.179 2.406-26.286 6.664 25.546-9.07.74zm45.167-24.807c-9.441-21.842-12.587-34.801-21.658-57.384-9.07-22.584-25.73-22.584-35.726-23.696-9.998-1.109-13.221-5.664-13.778-13.067-20.546 7.59-24.543-2.112-24.912-1.371-1.759 10.923-5.183 10.922-17.033 9.255-11.846-1.665-27.025 17.586-39.242 33.322 0 0-7.406-20.827-9.258-23.974-9.719 8.469-17.676 7.562-23.646 5.621 0 0 2.593 9.19 4.109 15.576-11.93 4.026 2.393 35.945 8.707 48.222 11.568 22.493 31.73 15.802 47.098-7.523 3.722 3.852 7.9 7.777 8.088 9.629.183 1.849.074 11.502-.852 17.055-.924 5.552-5.553 21.473-5.553 22.027 0 .556 5.922 14.995 5.922 14.995s58.127 1.112 57.943 9.441c8.885-1.295 38.504.555 56.09-7.961 17.586-8.514 13.143-28.322 3.701-50.167z" fill="#65B6DE"/>
    <path d="M613.489 319.121c-5.219-12.117-9.564-24.536-13.972-36.959a546.61 546.61 0 0 0-7.271-19.397c-2.125-5.339-4.843-10.344-8.814-14.539-5.574-5.888-13.193-8.682-21.076-9.711-4.013-.523-8.128-.592-12.003-1.858-5.285-1.728-7.508-6.191-7.958-11.432-.025-.299-.303-.601-.632-.482-6.914 2.5-17.074 5.372-23.299-.303-.425-.388-1.311-1.681-1.912-.838-.466.651-.457 2.321-.649 3.132a16.127 16.127 0 0 1-1.043 3.063c-.79 1.71-2.11 2.831-3.918 3.326-4.219 1.157-8.702-.695-12.941-.605-4.321.092-8.388 2.617-11.751 5.091-10.284 7.56-18.143 18.486-25.896 28.469l.836.22a828.678 828.678 0 0 0-4.028-11.057c-1.605-4.315-2.998-9.014-5.28-13.036-.169-.297-.545-.305-.785-.101-6.81 5.793-14.522 8.236-23.161 5.491-.366-.116-.715.259-.615.615 1.457 5.168 2.86 10.355 4.11 15.577l.349-.616c-6.613 2.43-5.149 11.523-4.038 16.873 1.958 9.427 5.903 18.516 10.019 27.177 3.895 8.198 8.898 17.234 18.725 18.801 10.074 1.606 19.267-6.155 25.426-13.145 2.284-2.591 4.323-5.399 6.237-8.272l-.785.101c1.615 1.664 3.255 3.302 4.843 4.992 1.197 1.272 3.022 2.896 3.131 4.755.197 3.35-.01 6.76-.211 10.105-.42 6.988-2.267 13.629-4.08 20.358-.666 2.471-1.369 4.933-1.997 7.414-.29 1.146.276 2.098.69 3.175 1.636 4.254 3.372 8.47 5.101 12.687.088.213.238.362.482.367a420.97 420.97 0 0 1 27.32 1.445c6.728.571 13.483 1.284 20.097 2.673 2.162.453 9.97 1.604 10.026 4.823.006.357.313.527.633.483 8.222-1.141 16.719-.691 24.995-1.28 10.173-.726 20.647-2.076 30.064-6.197 21.427-9.376 11.949-35.297 5.031-51.385-.254-.592-1.115-.082-.863.503 4.144 9.64 8.297 20.091 8.214 30.75-.034 4.297-1.124 8.499-3.545 12.073-2.866 4.229-7.581 6.627-12.234 8.363-9.538 3.561-20.001 4.519-30.088 5.115-7.24.429-14.648.096-21.839 1.093l.632.482c-.065-3.745-7.018-4.927-9.621-5.536-7.352-1.717-14.973-2.417-22.483-3.042-6.998-.583-14.015-.956-21.032-1.208-1.654-.058-3.307-.11-4.961-.147-.717-.017.283.717-.051-.097-.587-1.434-1.171-2.87-1.753-4.307a610.57 610.57 0 0 1-2.873-7.184c-.417-1.064-1.205-2.461-.978-3.384 1.272-5.171 2.806-10.276 4.096-15.444 1.487-5.947 2.094-11.835 2.241-17.966.043-1.761.521-4.49-.318-6.147-1.774-3.501-5.27-6.268-7.962-9.039-.235-.242-.61-.162-.785.102-5.959 8.945-14.319 18.83-25.486 20.867-10.76 1.962-17.671-7.118-21.903-15.633-4.006-8.059-7.584-16.423-10.072-25.083-1.493-5.198-5.031-17.453 2.221-20.116.262-.097.417-.333.349-.615-1.251-5.222-2.653-10.409-4.109-15.576l-.615.615c8.999 2.858 17.049.278 24.133-5.749l-.786-.102c2.326 4.098 3.73 8.901 5.367 13.298 1.304 3.51 2.586 7.03 3.84 10.557.112.312.585.544.836.221 7.863-10.124 15.812-21.048 26.237-28.712 4.222-3.105 8.652-5.011 13.928-4.286 3.5.479 7.584 1.289 10.999-.034 2.81-1.088 3.947-4.06 4.643-6.754.246-.956.779-2.07 0-2.723.158.133.298.292.443.439.515.522 1.073.99 1.665 1.42 6.534 4.75 16.258 2.028 23.052-.428l-.633-.482c.322 3.752 1.323 7.328 4.205 9.917 3.203 2.874 7.804 3.433 11.903 3.84 8.367.832 16.417 2.357 23.058 7.915 4.78 3.999 8.017 9.524 10.356 15.224 2.745 6.688 5.214 13.496 7.636 20.306 4.447 12.504 8.819 25.001 14.073 37.197.254.591 1.115.081.863-.503z" fill="#65B6DE"/>
    <path d="m568.39 344.179 2.406-26.286-.983.133c2.222 8.515 4.444 17.03 6.664 25.546l.483-.633-9.07.74c-.638.052-.644 1.053 0 1l9.07-.74c.323-.026.569-.299.482-.633l-6.664-25.546c-.15-.577-.933-.405-.982.133l-2.406 26.286c-.059.643.941.637 1 0z" fill="#65B6DE"/>
    <path d="M456.263 357.879c4.074-3.887 13.882-10.737 16.291-7.22 3.332-2.591 6.293-2.036 6.293-2.036 2.777-2.961 6.111-3.704 9.441.185 3.334 3.887 13.326 12.217 14.994 13.884 1.668 1.665 14.625 1.295 43.69-4.999 5.921 2.407 6.242 19.168 6.242 19.168-10.789.682-90.262.304-90.262.304l-6.689-19.286z" fill="#FAD1D5"/>
    <path d="M489.768 368.19a.5.5 0 0 1-.357-.151l-.137-.139a.51.51 0 0 1-.121-.204c-.456-.681-.711-1.439-.957-2.176a57.316 57.316 0 0 1-.741-1.551c-.245-.525-.489-1.049-.771-1.609-.609-.943-1.178-2.01-1.729-3.043a53.745 53.745 0 0 0-1.354-2.439c-.715.837-1.484 1.644-2.231 2.429-1.071 1.125-2.18 2.288-3.144 3.549l-.178.239c-1.238 1.666-3.541 4.761-6.439 3.083-.803-.425-1.341-1.068-1.579-1.902-.508-1.776.517-3.818.981-4.613.71-1.138 1.492-2.239 2.248-3.304.746-1.051 1.516-2.138 2.203-3.235.372-.559.706-1.136 1.04-1.712.683-1.181 1.389-2.401 2.362-3.374a.5.5 0 0 1 .707.708c-.88.879-1.522 1.99-2.204 3.167-.345.594-.689 1.189-1.065 1.753-.694 1.11-1.474 2.209-2.228 3.272-.748 1.053-1.52 2.142-2.208 3.241-.304.522-1.287 2.377-.875 3.822.163.571.524.996 1.103 1.302 1.984 1.148 3.567-.673 5.151-2.805l.184-.246c1-1.307 2.127-2.49 3.216-3.634.934-.981 1.817-1.907 2.628-2.907a.503.503 0 0 1 .809.045c.636.99 1.205 2.057 1.756 3.09.541 1.016 1.1 2.066 1.715 3.02.311.615.559 1.147.808 1.68.238.508.475 1.018.745 1.56a.668.668 0 0 1 .037.097c.27.801.524 1.559 1.016 2.174a.5.5 0 0 1-.391.813z" fill="#292929"/>
    <path d="M464.27 364.441c-1.182 0-2.368-.405-3.209-1.433-1.832-2.557.825-5.213 1.698-6.086 2.975-2.831 6.529-4.821 9.966-6.746a.5.5 0 0 1 .489.873c-3.383 1.895-6.882 3.853-9.757 6.589-1.989 1.989-2.502 3.506-1.603 4.763 1.109 1.35 3.119 1.229 4.507.537 1.473-.67 2.85-1.769 4.182-2.831l.658.754c-1.414 1.129-2.84 2.266-4.409 2.979a5.753 5.753 0 0 1-2.522.601z" fill="#292929"/>
    <path d="M458.113 364.302a.5.5 0 0 1-.069-.995c.854-.122 2.156-.633 2.771-1.247a.5.5 0 0 1 .707.707c-.799.799-2.316 1.385-3.338 1.53a.552.552 0 0 1-.071.005zM489.641 307.163a.493.493 0 0 1-.34-.134c-1.717-1.602-3.719-4.806-4.464-7.143-2.936-9.185-.582-18.739 2.398-27.696.162-.486-.634-1.378-1.16-1.968a13.58 13.58 0 0 1-.55-.643 396.91 396.91 0 0 1-1.502-2.571.5.5 0 0 1 .866-.502c.486.84.973 1.677 1.463 2.514.103.126.281.325.47.536.76.853 1.707 1.914 1.362 2.95-2.927 8.796-5.244 18.163-2.394 27.076.614 1.927 2.445 5.085 4.192 6.716a.5.5 0 0 1-.341.865zM435.635 264.72c-2.184 0-3.911-.358-4.9-1.01a.5.5 0 0 1 .551-.836c3.001 1.979 13.571.733 22.024-5.036a.505.505 0 0 1 .696.131.501.501 0 0 1-.131.695c-6.274 4.281-13.386 6.056-18.24 6.056zM464.83 279.273a.501.501 0 0 1-.49-.406c-.907-4.737-1.673-7.192-4.318-13.829a.502.502 0 0 1 .281-.65c.255-.1.546.023.649.28 2.673 6.709 3.448 9.198 4.37 14.011a.5.5 0 0 1-.492.594zM577.099 343.476a.502.502 0 0 1-.481-.361c-.78-2.71-1.614-5.819-2.497-9.111-1.765-6.58-3.765-14.039-5.881-20.26-3.051-8.969-5.495-18.104-8.148-28.259a.499.499 0 1 1 .966-.252c2.649 10.135 5.089 19.252 8.129 28.188 2.127 6.253 4.131 13.729 5.9 20.325.882 3.287 1.714 6.391 2.492 9.091a.5.5 0 0 1-.48.639z" fill="#292929"/>
    <path d="M546.552 357.638a.495.495 0 0 1-.349-.144c-.144-.143-.224-.414-.146-.602.077-.187.347-.323.55-.323.05 0 .107 0 .14-.016a.597.597 0 0 1 .102-.039c.221-.055.442-.135.672-.217.337-.12.72-.257 1.154-.344.786-.113 1.478-.316 2.21-.531l.529-.153c.47-.082.883-.118 1.281-.153.172-.015.341-.03.505-.047l-.083-.19c-.52-1.187-1.06-2.414-.808-3.8.369-2.379 2.612-4.037 3.559-4.637 2.528-1.566 5.51-2.016 8.394-2.451.553-.084 1.104-.167 1.647-.258 2.352-.377 4.727-.503 7.023-.625 1.144-.061 2.289-.121 3.434-.212 2.73-.139 5.539-.281 8.367-.281h6.11a.5.5 0 1 1 0 1h-6.11c-2.803 0-5.598.141-8.302.278-1.14.091-2.293.152-3.446.213-2.27.121-4.619.245-6.915.614-.545.091-1.1.175-1.659.259-2.784.421-5.662.855-8.013 2.309-.827.526-2.795 1.968-3.102 3.956-.199 1.099.256 2.135.737 3.233.118.27.236.539.344.808a.496.496 0 0 1-.025.424.497.497 0 0 1-.341.252c-.388.077-.796.114-1.229.151-.373.032-.76.065-1.147.131l-.468.139c-.769.226-1.494.439-2.322.556-.335.068-.667.187-.988.302-.246.087-.481.171-.717.232-.114.05-.223.074-.317.086a.5.5 0 0 1-.271.08z" fill="#292929"/>
    <path d="M562.104 375.409a.5.5 0 0 1-.5-.5c0-3.748-.596-7.24-1.772-10.376l-.242-.684c-.584-1.656-1.135-3.221-2.201-4.76-.968-1.523-2.78-2.718-4.131-3.456a.5.5 0 1 1 .478-.877c1.455.793 3.414 2.093 4.486 3.78 1.131 1.633 1.704 3.259 2.31 4.98l.238.673c1.183 3.153 1.8 6.654 1.833 10.404l.001.037v.279a.5.5 0 0 1-.5.5zM506.153 357.083l-.029-.001a.5.5 0 0 1-.47-.528c.092-1.564 1.771-7.573 2.547-9.386.739-1.726 1.216-3.443 1.72-5.26.214-.77.428-1.544.666-2.327 1.883-6.189 3.487-11.791 4.047-17.664a28.28 28.28 0 0 0 .552-5.504c0-1.769-.526-3.35-1.083-5.024a226.6 226.6 0 0 0-1.038-3.179c-.813-2.452-1.655-4.989-2.307-7.596-1.144-3.623-1.51-7.277-1.864-10.81-.143-1.443.037-2.884.21-4.277.058-.458.116-.917.161-1.376l.046-.466c.176-1.77.359-3.599.702-5.319.285-.958.512-1.871.741-2.785.23-.921.47-1.874.753-2.816.391-1.44.876-2.699 1.388-4.03.215-.559.435-1.13.656-1.735.617-1.955 1.171-3.946 1.756-6.054.446-1.604.896-3.222 1.381-4.84a57.09 57.09 0 0 1 .639-2.738c.228-.911.463-1.852.647-2.771.118-.422.21-.787.301-1.146.223-.88.433-1.71.839-2.656a.495.495 0 0 1 .656-.261.498.498 0 0 1 .262.656c-.374.872-.575 1.666-.787 2.506-.094.369-.188.744-.301 1.135-.178.905-.417 1.858-.647 2.779-.225.899-.457 1.83-.64 2.738-.494 1.657-.942 3.269-1.386 4.865-.563 2.025-1.144 4.117-1.774 6.109-.23.631-.451 1.208-.668 1.771-.504 1.308-.979 2.543-1.361 3.948-.281.932-.516 1.872-.744 2.783-.232.927-.464 1.856-.743 2.783-.321 1.628-.501 3.431-.674 5.177l-.047.466c-.046.467-.105.934-.163 1.401-.175 1.4-.34 2.722-.208 4.054.349 3.482.71 7.083 1.831 10.637.651 2.6 1.487 5.118 2.295 7.554.353 1.064.705 2.123 1.039 3.183.556 1.67 1.132 3.403 1.132 5.334 0 1.872-.189 3.773-.564 5.65-.562 5.915-2.18 11.567-4.078 17.809-.236.774-.448 1.541-.659 2.303-.492 1.77-.999 3.599-1.764 5.387-.734 1.713-2.383 7.593-2.469 9.051a.499.499 0 0 1-.499.47zM532.193 244.811c-1.504 0-2.893-.805-3.959-2.347-1.892-2.416-2.327-5.315-2.747-8.12a82.947 82.947 0 0 0-.274-1.737c-.767 1.305-1.546 2.599-2.402 3.881l-.235.356c-1.199 1.818-3.431 5.202-5.951 5.517-.945.116-1.819-.194-2.617-.922-2.003-1.859-1.858-4.218-1.717-6.498l.025-.426c.017-.275.258-.5.529-.47a.499.499 0 0 1 .469.529l-.025.428c-.132 2.143-.257 4.166 1.395 5.702.577.525 1.162.743 1.818.664 2.062-.257 4.208-3.511 5.239-5.075l.238-.36c1.088-1.631 2.06-3.295 2.999-4.904.103-.177.321-.306.529-.277.204.033.386.151.431.352.228 1.023.385 2.075.537 3.092.42 2.8.817 5.444 2.564 7.676.713 1.031 2.23 2.582 4.558 1.649 1.293-.462 3.754-1.424 5.894-2.738 1.844-1.137 3.438-2.503 4.735-4.059a.5.5 0 0 1 .768.641c-1.367 1.638-3.042 3.075-4.979 4.269-2.217 1.363-4.751 2.354-6.065 2.822a4.714 4.714 0 0 1-1.757.355z" fill="#292929"/>
    <path d="M523.761 242.278c-.288 0-.564.09-.799.267-.461.35-.647.951-.495 1.606.069.348.26.547.569.603.396.074.985-.118 1.297-.617.193-.262.305-.766.2-1.157-.063-.237-.191-.394-.39-.479a.504.504 0 0 1-.239-.216 1.383 1.383 0 0 0-.143-.007zm-.54 3.493a2.03 2.03 0 0 1-.365-.033c-.71-.129-1.22-.645-1.367-1.377-.235-1.02.097-2.027.868-2.613.749-.568 1.76-.626 2.639-.145a.5.5 0 0 1 .247.556c.113.165.2.354.256.562.174.651.03 1.484-.342 1.981a2.332 2.332 0 0 1-1.936 1.069zM518.741 267.826c-.115 0-.203.052-.349.162-.509.383-.853.993-.895 1.593-.023.311.028.758.394 1.124.595.522.951.328 1.066.261.634-.349 1.043-1.611.92-2.36-.014-.084-.07-.361-.208-.387a.501.501 0 0 1-.317-.2.06.06 0 0 0-.007-.003c-.314-.125-.476-.19-.604-.19zm-.109 4.228c-.4 0-.889-.147-1.425-.621a2.414 2.414 0 0 1-.708-1.922c.063-.894.547-1.764 1.294-2.324.755-.564 1.27-.361 1.923-.1a.562.562 0 0 1 .226.169c.486.13.819.558.922 1.189.185 1.13-.385 2.823-1.423 3.397a1.673 1.673 0 0 1-.809.212zM516.368 295.398a.501.501 0 0 1-.221.373c-.167.111-.288.357-.34.693-.099.642.086 1.348.315 1.633.27.329.514.45.727.348.455-.216.879-1.251.708-2.108-.116-.578-.448-.872-1.016-.9a.52.52 0 0 1-.173-.039zm.325 4.082c-.375 0-.858-.158-1.347-.753-.44-.548-.659-1.562-.527-2.416.097-.624.364-1.099.774-1.372a.5.5 0 0 1 .474-.044c.023-.266.236-.489.523-.456 1.016.049 1.745.685 1.948 1.702.254 1.27-.335 2.769-1.26 3.207-.124.06-.33.132-.585.132zM517.758 335.929a.485.485 0 0 1-.011.075c-.156.703.025 1.837.452 2.108.229.151.584-.056.839-.252.607-.508.712-1.583.197-2.2-.195-.194-.516-.427-.842-.32a1.4 1.4 0 0 1-.035.046c-.12.156-.301.391-.593.54l-.007.003zm.617 3.236a1.3 1.3 0 0 1-.713-.21c-.912-.579-1.104-2.211-.892-3.167a.5.5 0 0 1 .269-.341.501.501 0 0 1 .272-.413c.092-.046.171-.149.254-.257.062-.08.119-.152.175-.207a.471.471 0 0 1 .129-.093c.675-.337 1.441-.153 2.105.509.903 1.082.744 2.774-.311 3.654-.509.392-.939.525-1.288.525z" fill="#292929"/>
    <path d="M433.309 216.913c-1.943-2.129-6.849-4.72-11.199-6.85-3.689-1.806-8.609 1.573-3.334 7.22 5.278 5.645 15.182 8.422 15.182 8.422" fill="#FAD1D5"/>
    <path d="M433.958 226.205a.489.489 0 0 1-.135-.019c-.41-.115-10.1-2.88-15.412-8.562-3.498-3.744-2.406-6.133-1.774-6.987 1.179-1.595 3.628-2.032 5.693-1.023 4.205 2.058 9.294 4.711 11.349 6.963a.5.5 0 1 1-.739.673c-1.963-2.151-7.247-4.876-11.05-6.738-1.613-.789-3.566-.472-4.45.72-1.006 1.358-.369 3.493 1.701 5.709 5.123 5.48 14.854 8.255 14.952 8.282a.5.5 0 0 1-.135.982z" fill="#292929"/>
    <path d="M504.14 367.413h-39.475l-15.885-46.395c-1.387-4.045-6.019-7.355-10.295-7.355h-67.41c-4.275 0-6.641 3.31-5.256 7.355l16.363 47.793c1.792 4.64 2 8.459 6.653 8.459H504.14a4.93 4.93 0 0 0 0-9.857z" fill="#FAAD3A"/>
    <path d="M504.14 366.913h-39.082c-.772 0 .197.682-.014.065l-1.804-5.268-7.318-21.375-6.143-17.94c-1.794-5.24-5.927-9.232-11.768-9.232h-59.143c-3.391 0-7.951-.701-11.127.779-5.1 2.377-1.809 8.948-.533 12.672l7.277 21.258 6.44 18.807c1.472 4.3 2.335 11.091 7.981 11.091h115.208c7.07 0 6.959-10.391.026-10.857-.645-.043-.64.957 0 1 6.105.411 5.375 8.857-.477 8.857H389.016c-4.437 0-5.196-4.718-6.36-8.116l-1.357-3.964-13.816-40.352-1.181-3.453c-1.494-4.36 1.79-6.722 5.691-6.722h59.984c5.714 0 11.086-.561 15.098 4.674 1.107 1.446 1.589 3.382 2.172 5.084l2.84 8.295 12.095 35.329c.074.213.25.368.483.368h39.475c.644 0 .644-1 0-1z" fill="#FAAD3A"/>
    <path d="M461.184 369.602h-78.4a.5.5 0 0 1 0-1h78.4a.5.5 0 1 1 0 1zM409.974 338.649c-1.148 0-2.096.455-2.743 1.314-.938 1.249-1.131 3.161-.527 5.247 1.089 3.773 4.422 6.841 7.43 6.841 1.145 0 2.092-.455 2.739-1.314.939-1.25 1.132-3.162.528-5.247-1.087-3.773-4.419-6.841-7.427-6.841zm4.16 14.402c-3.422 0-7.187-3.392-8.391-7.563-.691-2.39-.44-4.622.689-6.125.832-1.106 2.088-1.714 3.542-1.714 3.423 0 7.186 3.392 8.388 7.563.692 2.389.44 4.621-.69 6.125-.83 1.106-2.087 1.714-3.538 1.714z" fill="#292929"/>
    <path d="M503.294 178.494c-2.367-2.88-5.891-5.381-7.317-4.693-1.425.686-1.732 2.861-.73 3.311 1.002.45 1.369-1.384 4.67.055 2.892 1.26 3.615 1.848 3.377 1.327z" fill="#ED4477"/>
    <path d="M497.684 176.105c.706 0 1.501.198 2.433.604.581.253 1.076.48 1.493.676-1.858-1.855-3.931-3.199-5.07-3.199a.804.804 0 0 0-.345.065c-.69.332-1.043 1.127-1.034 1.742.001.126.027.544.291.663a.283.283 0 0 0 .119.029c.108 0 .269-.076.455-.164.373-.175.884-.416 1.658-.416zm5.592 3.079c-.233 0-.476-.118-1.197-.467a61.194 61.194 0 0 0-2.361-1.091c-.792-.345-1.477-.521-2.034-.521-.55 0-.897.163-1.232.321-.415.196-.915.363-1.41.142-.542-.244-.872-.828-.881-1.562-.012-.903.483-2.119 1.6-2.655a1.78 1.78 0 0 1 .779-.165c1.974 0 5.151 2.571 7.141 4.99a.562.562 0 0 1 .068.11c.042.093.173.378 0 .647a.617.617 0 0 1-.473.251z" fill="#ED4477"/>
    <path d="M550.31 137.905c-.168 0-.338.035-.505.12-.583.296-.96 1.095-.96 2.037 0 1.544.348 3.238 1.095 5.332.478 1.665 1.276 3.288 2.086 4.807 1.087-2.643 3.151-8.983-.611-11.867-.291-.214-.69-.429-1.105-.429zm1.41 13.282a.5.5 0 0 1-.441-.263c-.883-1.639-1.77-3.407-2.29-5.225-.777-2.174-1.144-3.974-1.144-5.637 0-1.336.578-2.458 1.507-2.929.467-.238 1.436-.5 2.663.401 4.341 3.328 2.087 10.266.917 13.094a.5.5 0 0 1-.741.224.496.496 0 0 1-.471.335z" fill="#292929"/>
    <path d="M552.699 150.965c1.554.623 3.127 1.259 4.593 1.887l.682.278c1.695.693 3.447 1.415 5.089 1.308.93-.052 1.681-.47 2.064-1.147.385-.681.349-1.523-.099-2.37-1.257-2.282-4.329-2.569-6.586-2.119-1.807.402-3.494 1.158-5.124 1.888l-.619.275zm10.05 4.483c-1.753 0-3.553-.738-5.153-1.393l-.687-.279c-1.756-.752-3.659-1.513-5.5-2.25a.5.5 0 0 1 .186-.964h.015a.499.499 0 0 1 .284-.333l1.015-.451c1.676-.751 3.409-1.528 5.327-1.954 2.597-.518 6.152-.141 7.672 2.622.608 1.149.64 2.363.089 3.337-.553.98-1.601 1.583-2.875 1.653a5.784 5.784 0 0 1-.373.012z" fill="#292929"/>
    <path d="M557.595 156.062a.499.499 0 0 1-.3-.1c-.451-.339-.88-.727-1.294-1.103-.529-.48-1.076-.976-1.684-1.381-.783-.469-1.468-.988-2.194-1.538-.421-.318-.851-.643-1.316-.968-1.921-1.537-3.57-3.186-5.316-4.932a.5.5 0 0 1 .707-.707c1.726 1.726 3.356 3.356 5.209 4.838.449.314.889.646 1.319.972.705.533 1.369 1.036 2.125 1.49.69.459 1.265.981 1.822 1.486.272.247.535.485.801.708.296-.072.622.167.621.485v.25a.502.502 0 0 1-.5.5z" fill="#292929"/>
    <path d="M195.891 376.476h25.794l36.699-33.234c1.233-1.116 1.781-2.34 1.544-3.446-.239-1.107-1.243-1.999-2.827-2.509l-69.053-22.214c-1.74-.56-3.223-.314-4.011.659-.631.781-.809 2-.501 3.43l12.355 57.314zm25.987 1h-26.39a.5.5 0 0 1-.489-.395l-12.441-57.709c-.373-1.731-.124-3.248.701-4.268 1.053-1.307 2.936-1.678 5.096-.982l69.053 22.213c1.939.625 3.181 1.78 3.497 3.25.317 1.471-.341 3.033-1.85 4.399l-36.841 33.363a.502.502 0 0 1-.336.129z" fill="#FAD1D5"/>
    <path d="M202.184 20.477c-2.892 5.686-3.231 12.29-.56 17.187 1.968 3.608 4.675 5.624 7.621 5.676 2.328.032 4.564-1.255 5.876-3.47 1.94-3.276 1.606-7.685-.915-12.097-2.426-4.246-7.038-6.583-12.022-7.296zm7.172 23.864h-.129c-3.273-.058-6.364-2.317-8.481-6.198-2.773-5.086-2.495-11.89.387-17.793-3.58-.348-7.288.12-10.466 1.296-7.558 2.8-11.202 8.984-9.747 16.546a.5.5 0 1 1-.982.19c-1.555-8.084 2.326-14.69 10.382-17.674 3.424-1.267 7.439-1.737 11.299-1.298a23.373 23.373 0 0 1 3.094-4.395c6.025-6.74 14.616-8.516 23.568-4.866a.5.5 0 1 1-.377.926c-8.54-3.478-16.72-1.8-22.445 4.607a22.375 22.375 0 0 0-2.779 3.873c5.135.817 9.866 3.298 12.394 7.722 2.705 4.733 3.036 9.51.907 13.103-1.473 2.488-3.942 3.961-6.625 3.961z" fill="#FAAD3A"/>
    <path d="M23.03 162.058c-1.254 0-2.447.69-3.313 1.93-1.366 1.956-2.057 5.662.098 10.199 1.563 3.289 4.564 5.109 7.791 5.728 1.917-4.381 2.227-9.538.476-13.402-1.221-2.695-2.903-4.271-4.736-4.441a3.355 3.355 0 0 0-.316-.014zm-6.874 27.607c-2.015 0-4.115-.516-6.241-1.557a.5.5 0 0 1 .44-.899c4.985 2.445 9.808 1.772 13.581-1.89 1.303-1.265 2.391-2.799 3.234-4.476-3.419-.719-6.584-2.703-8.258-6.226-2.339-4.925-1.541-9.016-.015-11.202 1.15-1.646 2.801-2.499 4.54-2.338 2.207.203 4.18 1.987 5.556 5.023 1.827 4.033 1.55 9.382-.377 13.97 1.91.218 3.854.035 5.589-.498 4.572-1.404 9.036-5.646 7.856-13.342a.499.499 0 1 1 .988-.151c1.277 8.325-3.579 12.922-8.55 14.449-1.955.6-4.157.785-6.311.492-.909 1.885-2.105 3.609-3.556 5.017-2.482 2.409-5.379 3.628-8.476 3.628z" fill="#FAD1D5"/>
    <path d="M621.2 247.031c2.511 5.368 7.149 9.391 12.26 10.24 3.77.628 6.789-.2 8.511-2.321 1.381-1.704 1.689-4.049.822-6.272-1.286-3.293-4.705-5.573-9.38-6.255-4.495-.655-8.837 1.375-12.213 4.608zm.539 26.69a.491.491 0 0 1-.228-.055c-6.842-3.509-9.469-10.168-7.026-17.812 1.035-3.238 2.991-6.454 5.527-9.035a21.739 21.739 0 0 1-1.442-4.78c-1.493-8.309 2.145-15.648 9.98-20.133a.499.499 0 1 1 .496.867c-7.446 4.264-10.906 11.221-9.491 19.09a20.873 20.873 0 0 0 1.225 4.21c3.551-3.286 8.085-5.323 12.777-4.64 5.042.735 8.747 3.243 10.167 6.882 1 2.561.635 5.277-.977 7.265-1.93 2.378-5.371 3.352-9.451 2.677-5.322-.884-10.156-4.983-12.842-10.475-2.291 2.418-4.062 5.386-5.017 8.377-2.281 7.138.161 13.35 6.531 16.617a.501.501 0 0 1-.229.945z" fill="#FAAD3A"/>
    <path d="M567.076 52.618a4.57 4.57 0 0 0-2.575.79l-14.758 10.025a4.577 4.577 0 0 0-1.932 2.95 4.584 4.584 0 0 0 .709 3.453l10.024 14.756a4.613 4.613 0 0 0 3.825 2.014c.925 0 1.816-.274 2.579-.792l14.754-10.02a4.619 4.619 0 0 0 1.225-6.405l-10.024-14.755a4.613 4.613 0 0 0-3.827-2.016zm-4.707 34.988a5.613 5.613 0 0 1-4.653-2.453l-10.024-14.756a5.57 5.57 0 0 1-.862-4.203 5.564 5.564 0 0 1 2.351-3.589l14.757-10.025a5.564 5.564 0 0 1 3.138-.962c1.871 0 3.611.917 4.655 2.454l10.024 14.755a5.623 5.623 0 0 1-1.49 7.794l-14.754 10.021a5.58 5.58 0 0 1-3.142.964z" fill="#FAD1D5"/>
    <path d="M508.772 28.903a5.72 5.72 0 0 0-5.713 5.714 5.719 5.719 0 0 0 5.713 5.711 5.718 5.718 0 0 0 5.713-5.71 5.72 5.72 0 0 0-5.713-5.715zm0 12.425c-3.701 0-6.713-3.01-6.713-6.71a6.722 6.722 0 0 1 6.713-6.715 6.72 6.72 0 0 1 6.713 6.714 6.72 6.72 0 0 1-6.713 6.711zM57.722 102.847a4.8 4.8 0 1 1-9.601-.001 4.8 4.8 0 0 1 9.601.001zM68.645 93.221a4.8 4.8 0 1 1-9.601-.001 4.8 4.8 0 0 1 9.601.001zM70.496 107.291a4.797 4.797 0 0 1-4.8 4.797 4.799 4.799 0 1 1 0-9.597c2.652 0 4.8 2.147 4.8 4.8zM354.332 352.001c-.625 0-1.233.135-1.805.4a4.272 4.272 0 0 0-2.228 2.422 4.275 4.275 0 0 0 .135 3.289 4.322 4.322 0 0 0 3.906 2.491c.625 0 1.232-.135 1.804-.399a4.275 4.275 0 0 0 2.229-2.423 4.273 4.273 0 0 0-.136-3.288 4.319 4.319 0 0 0-3.905-2.492zm.008 9.602a5.32 5.32 0 0 1-4.812-3.07 5.266 5.266 0 0 1-.168-4.054 5.266 5.266 0 0 1 2.747-2.985 5.246 5.246 0 0 1 2.225-.493 5.318 5.318 0 0 1 4.811 3.071 5.26 5.26 0 0 1 .169 4.053 5.266 5.266 0 0 1-2.748 2.986 5.26 5.26 0 0 1-2.224.492zM341.003 346.142c-.625 0-1.232.134-1.804.399a4.307 4.307 0 0 0-2.093 5.711 4.321 4.321 0 0 0 3.907 2.492c.625 0 1.231-.134 1.803-.4a4.307 4.307 0 0 0 2.092-5.711 4.318 4.318 0 0 0-3.905-2.491zm.01 9.602a5.322 5.322 0 0 1-4.813-3.071 5.307 5.307 0 0 1 2.579-7.039 5.244 5.244 0 0 1 2.224-.492 5.32 5.32 0 0 1 4.812 3.07 5.307 5.307 0 0 1-4.802 7.532zM352.989 338.543a4.307 4.307 0 0 0-3.896 6.111 4.31 4.31 0 0 0 3.899 2.491 4.27 4.27 0 0 0 1.808-.401 4.267 4.267 0 0 0 2.23-2.421 4.273 4.273 0 0 0-.137-3.288 4.318 4.318 0 0 0-3.904-2.492zm.003 9.602a5.315 5.315 0 0 1-4.807-3.071 5.307 5.307 0 0 1 4.804-7.531 5.32 5.32 0 0 1 4.811 3.071 5.268 5.268 0 0 1 .169 4.053 5.263 5.263 0 0 1-2.748 2.984 5.269 5.269 0 0 1-2.229.494z" fill="#65B6DE"/>
    <path d="M608.539 179.69a4.27 4.27 0 0 0-1.805.4 4.269 4.269 0 0 0-2.227 2.421 4.277 4.277 0 0 0 .136 3.288 4.318 4.318 0 0 0 3.906 2.492c.625 0 1.232-.134 1.804-.4a4.307 4.307 0 0 0 2.092-5.711 4.32 4.32 0 0 0-3.906-2.49zm.01 9.601a5.319 5.319 0 0 1-4.813-3.072 5.265 5.265 0 0 1-.168-4.052 5.26 5.26 0 0 1 2.746-2.984 5.25 5.25 0 0 1 2.225-.493 5.325 5.325 0 0 1 4.813 3.069 5.308 5.308 0 0 1-2.579 7.039 5.245 5.245 0 0 1-2.224.493zM595.213 173.83a4.26 4.26 0 0 0-1.804.4 4.275 4.275 0 0 0-2.23 2.422 4.268 4.268 0 0 0 .136 3.288 4.316 4.316 0 0 0 3.905 2.492c.626 0 1.233-.135 1.805-.399a4.306 4.306 0 0 0 2.092-5.711 4.32 4.32 0 0 0-3.904-2.492zm.007 9.602a5.317 5.317 0 0 1-4.812-3.071 5.263 5.263 0 0 1-.169-4.053 5.269 5.269 0 0 1 2.749-2.985 5.246 5.246 0 0 1 2.225-.493 5.323 5.323 0 0 1 4.811 3.071 5.307 5.307 0 0 1-2.579 7.039 5.26 5.26 0 0 1-2.225.492zM607.197 166.232a4.28 4.28 0 0 0-1.807.4 4.306 4.306 0 0 0-2.09 5.71 4.315 4.315 0 0 0 3.901 2.491 4.27 4.27 0 0 0 1.808-.401 4.265 4.265 0 0 0 2.229-2.421 4.264 4.264 0 0 0-.138-3.288 4.313 4.313 0 0 0-3.903-2.491zm.004 9.601a5.317 5.317 0 0 1-4.808-3.07 5.307 5.307 0 0 1 2.577-7.038 5.265 5.265 0 0 1 2.227-.493 5.318 5.318 0 0 1 4.811 3.07 5.273 5.273 0 0 1 .17 4.053 5.266 5.266 0 0 1-2.748 2.984 5.269 5.269 0 0 1-2.229.494z" fill="#5569AF"/>
    <path d="M640.765 378.13H1a1 1 0 1 1 0-2h639.765a1 1 0 0 1 0 2z" fill="#fff"/>
</svg>
