<svg width="335" height="197" viewBox="0 0 335 197" fill="none" xmlns="http://www.w3.org/2000/svg">
    <path d="M284.405 87.288c1.636 2.407 4.127 3.96 1.791 6.163-2.606 2.458-9.781 9.912-9.781 9.912l6.448 14.149s10.108-10.203 15.402-15.882c5.294-5.678 8.151-11.526 4.686-17.591-3.465-6.064-18.546 3.249-18.546 3.249z" fill="#FAAD3A"/>
    <path d="M284.18 87.419c.699.986 1.529 1.871 2.211 2.868.929 1.36.237 2.386-.802 3.384-1.259 1.211-2.482 2.457-3.707 3.701a692.484 692.484 0 0 0-5.65 5.807c-.088.091-.091.205-.041.315l6.448 14.149c.07.155.299.163.408.053a1252.1 1252.1 0 0 0 7.742-7.889 680.116 680.116 0 0 0 6.008-6.238c2.262-2.382 4.477-4.79 6.099-7.668 1.461-2.595 2.156-5.518 1.629-8.471-.357-1.996-1.303-4.333-3.256-5.227-3.3-1.51-7.771.384-10.82 1.686a47.065 47.065 0 0 0-6.175 3.174c-.285.176-.024.626.262.45a46.607 46.607 0 0 1 7.79-3.827c1.98-.756 4.079-1.378 6.211-1.437 2.542-.071 3.951 1.121 4.914 3.403 3.003 7.117-3.198 13.535-7.694 18.256-3.701 3.888-7.458 7.721-11.225 11.544-.617.627-1.234 1.252-1.853 1.877l.408.052-6.426-14.104c-.077-.167-.166.377-.01.215l.303-.314 1.43-1.479c1.5-1.547 3.005-3.089 4.519-4.621a252.8 252.8 0 0 1 2.219-2.224c.595-.588 1.434-1.192 1.86-1.915 1.309-2.216-1.182-4.127-2.353-5.782-.192-.272-.643-.012-.449.262z" fill="#FAAD3A"/>
    <path d="M241.62 129.4c-.309 4.228-4.081 44.181-6.21 66.664h23.475l6.414-54.971 5.272 54.971h26.809c-1.92-18.96-5.022-49.25-5.804-54.825-1.155-8.23-2.743-22.765-9.674-34.604-4.764-.722-43.025 8.182-43.025 8.182.866 2.598 3.176 8.663 2.743 14.583z" fill="#463363"/>
    <path d="M237.43 171.929c-.757 8.045-1.521 16.089-2.283 24.135h.518c1.058-11.16 2.116-22.319 3.164-33.479 1.038-11.055 2.234-22.112 3.051-33.185.305-4.993-1.102-9.72-2.666-14.393a966.466 966.466 0 0 1 15.873-3.539c7.913-1.701 15.911-3.587 23.968-4.47.674-.075 2.473-.49 2.844.151 1.89 3.263 3.35 6.761 4.558 10.328 2.094 6.18 3.282 12.624 4.209 19.069.954 6.638 1.666 13.303 2.376 19.972a7283.081 7283.081 0 0 1 4.08 39.546h.52a8057.026 8057.026 0 0 0-3.884-37.694c-.676-6.394-1.33-12.792-2.201-19.162-.839-6.13-1.814-12.235-3.472-18.204a68.554 68.554 0 0 0-3.532-9.802 51.752 51.752 0 0 0-2.426-4.699c-.139-.239-.714-.169-.945-.17-2.785-.011-5.634.602-8.364 1.074-4.284.742-8.547 1.603-12.804 2.488a964.597 964.597 0 0 0-20.444 4.495l-.762.176c-.133.031-.226.189-.182.32 1.584 4.714 3.042 9.473 2.734 14.514-1.047 14.192-2.595 28.362-3.93 42.529z" fill="#463363"/>
    <path d="M265.559 141.093c-.032-.337-.481-.331-.52 0a404313.892 404313.892 0 0 0-6.414 54.971h.52l2.452-21.01 3.677-31.515 3.084 32.16 1.953 20.365h.521l-2.028-21.14-3.245-33.831z" fill="#463363"/>
    <path d="M173.232 56.006c-.577-1.732-2.983-8.568-2.983-8.568s-7.027-4.426-10.107-6.159c-3.081-1.732-4.428-7.7.577-9.144 1.348-2.503 3.407-2.722 4.562-2.048.769-5.68 3.643-6.364 6.819-5.305 3.176 1.06 5.11 3.787 7.035 8.118 1.926 4.332 2.375 6.646 4.011 10.977 1.636 4.333 2.887 7.605 2.887 7.605s-3.754 7.893-12.801 4.524z" fill="#FAD1D5"/>
    <path d="M175.542 41.567a7.7 7.7 0 1 1-15.401 0 7.7 7.7 0 0 1 15.401 0z" fill="#ED4477"/>
    <path d="M158.962 40.533c1.084 1.227 2.888.577 2.6-2.093 1.804-.145 2.165-2.671 3.826-4.91.722 2.889 2.022 3.249 2.96 2.815.938-.433 1.732-1.01 1.803-3.681.074-2.67.868-3.393 2.023-3.032 1.155.361 2.166 3.032 3.609 6.353 1.443 3.321 1.588 5.92-.506 6.424-2.093.507-3.97 1.3-5.197 3.538-1.227 2.238.217 4.403 4.043 2.743 3.826-1.66 4.981-4.332 4.981-4.332s-.073-6.713-2.31-12.198c-2.238-5.487-7.293-4.333-7.293-4.333l-5.991 4.477-4.764 5.125" fill="#FAD1D5"/>
    <path d="M246.674 35.985c2.791.24 5.728-2.888 5.054-6.641-.674-3.755-6.595 1.972-6.595 1.972l1.541 4.669z" fill="#5569AF"/>
    <path d="M246.674 36.245c2.126.093 3.845-1.294 4.79-3.112.599-1.155 1.289-4.25-.2-5.099-1.986-1.132-5.014 1.848-6.314 3.099a.255.255 0 0 0-.067.253l1.54 4.668c.105.317.607.181.501-.138-.437-1.328-.876-2.656-1.314-3.983l-.205-.622c.018.054-.183.276.092.02.443-.411.907-.8 1.38-1.176.87-.691 3.554-2.855 4.441-1.277.748 1.331.065 3.415-.643 4.6-.831 1.393-2.376 2.318-4.001 2.247-.335-.014-.335.505 0 .52z" fill="#5569AF"/>
    <path d="M218.087 19.91c-.578 3.658-1.253 6.811 2.02 12.682 3.273 5.872 4.428 13.26 15.208 11.767.867 2.406 1.349 4.909 1.349 4.909l14.149-3.08-4.525-13.766c6.016-1.778 5.918-5.56 4.859-8.062-1.059-2.504-10.441-12.438-13.811-13.304-3.368-.867-15.784-.192-19.249 8.855z" fill="#FAD1D5"/>
    <path d="M234.457 30.773c.888-.992-.733-3.127-1.672-2.226-.94.901.944 3.041 1.672 2.226zM224.567 32.073c.887-.993-.734-3.127-1.673-2.227-.938.9.945 3.042 1.673 2.227z" fill="#292929"/>
    <path d="M228.987 36.679c-.902 0-1.793-.247-2.724-.754-1.257-.838-1.133-2.043-.848-3.112.611-2.642-.628-4.957-3.402-6.341a.259.259 0 0 1-.116-.349.26.26 0 0 1 .349-.116c2.962 1.478 4.335 4.07 3.674 6.932-.299 1.12-.299 1.933.612 2.542.832.452 1.642.678 2.455.678a.26.26 0 1 1 0 .52zM229.541 38.651a.26.26 0 0 1-.061-.512c2.163-.52 3.762-1.545 5.349-3.429a.259.259 0 0 1 .366-.031c.11.092.124.256.031.366-1.663 1.976-3.345 3.052-5.625 3.6a.269.269 0 0 1-.06.006zM235.46 44.522a.26.26 0 0 1-.094-.502c1.614-.627 3.121-1.658 4.479-3.066l.219-.248c.591-.67 1.202-1.362 1.615-2.147.427-.805.81-1.668 1.14-2.567.296-.788.611-1.696.611-2.51a.26.26 0 1 1 .52 0c0 .901-.332 1.861-.643 2.69a21.27 21.27 0 0 1-1.169 2.63c-.441.84-1.073 1.555-1.684 2.248l-.226.256c-1.42 1.471-2.989 2.544-4.674 3.199a.259.259 0 0 1-.094.017z" fill="#292929"/>
    <path d="M230.359 25.878c-.385-1.251 1.106-2.07 3.224-1.203 2.118.866 2.534 1.834 1.878 1.684-3.802-.866-4.861.048-5.102-.481z" fill="#5569AF"/>
    <path d="M230.61 25.81c-.425-1.818 2.362-1.117 3.18-.765.532.229 1.051.53 1.48.922l.108.115c.079.218.129.227.151.026-.365-.054-.729-.15-1.093-.215a12.42 12.42 0 0 0-2.608-.176c-.175.007-1.146.205-1.244.03-.164-.292-.614-.03-.449.263.334.594 1.559.227 2.079.216 1.118-.023 2.18.234 3.277.399.244.036.514-.096.514-.374 0-.394-.434-.743-.716-.946-.851-.609-1.843-1.054-2.88-1.216-1.225-.192-2.633.437-2.3 1.858.076.327.577.188.501-.138zM222.852 26.407c-1.349-.77-3.129-1.202-3.706-.433-.578.77-.097 1.685.481 1.636.577-.047 2.792-.433 3.658-.337.48 0 0-.528-.433-.866z" fill="#5569AF"/>
    <path d="M222.983 26.183c-.934-.511-2.516-1.273-3.588-.722-.782.403-1.178 1.91-.164 2.323.406.166.87.03 1.291-.027a26.863 26.863 0 0 1 2.142-.232c.361-.02.827.127 1.045-.233.228-.375-.463-.894-.674-1.068-.256-.213-.626.153-.368.367.127.106.659.417.336.407-.307-.009-.617.023-.923.05-.626.054-1.25.146-1.871.231-.194.027-.388.053-.582.072-.397-.066-.55-.344-.458-.837.072-.513.49-.64.894-.68.901-.09 1.894.38 2.658.798.293.16.556-.288.262-.45zM238.734 14.232c-.675 3.465.192 10.346 3.56 13.956 3.37 3.61 2.888-2.84 2.503-3.898 1.925-2.213 5.572-2.627 6.969.934.434 1.443-.316 4.12-.316 4.12 2.514-.954 3.744-4.572 2.828-6.594-.915-2.021-1.251-5.968-1.01-9.049.24-3.079-2.84-10.057-11.359-7.844-2.412-4.192-4.892-4.986-9.253-4.333-3.96.593-8.393-2.091-11.714-.984-2.196.732-3.481 3.104-.16 6.424-5.15-1.443-9.77-1.25-11.791 3.85-2.022 5.102.576 11.695 8.615 11.84.192-1.757.697-3.236.697-3.236.625 3.753 3.777 3.813 6.714 1.551 2.935-2.262 5.246-5.63 5.246-5.63-1.156 3.128-.146 3.513 2.117 3.273 2.263-.241 4.861-3.755 6.354-4.38z" fill="#5569AF"/>
    <path d="M238.483 14.162c-.615 3.402-.009 7.12 1.244 10.309.386.982 3.121 6.532 4.89 4.82.643-.623.686-1.67.71-2.508.015-.529-.026-1.06-.088-1.586-.067-.572-.257-.747.149-1.14 1.498-1.457 3.846-1.652 5.327-.109 1.366 1.425.955 3.607.484 5.326-.066.24.184.378.382.293 2.131-.911 3.295-3.254 3.253-5.504-.02-1.108-.631-2.15-.883-3.216-.425-1.804-.509-3.7-.495-5.546.013-1.9.097-3.38-.683-5.162a8.495 8.495 0 0 0-3.79-4.063 7.808 7.808 0 0 0-2.842-.84 11.91 11.91 0 0 0-1.978-.03c-.402.026-2.039.504-2.236.168-1.213-2.057-2.904-3.718-5.306-4.184-1.181-.228-2.412-.127-3.595.022-1.924.24-3.704-.019-5.586-.439-2.443-.545-5.431-1.469-7.697.088-2.473 1.698-.69 4.68.855 6.288l.253-.435c-2.638-.721-5.8-1.336-8.397-.122-2.456 1.148-3.941 3.684-4.284 6.324-.315 2.432.273 4.815 1.799 6.747 1.822 2.304 4.816 3.162 7.637 3.25.155.006.243-.122.26-.26.135-1.07.346-2.14.687-3.167h-.501c.62 3.16 3.168 3.898 5.876 2.507 2.654-1.363 4.884-4.1 6.559-6.524l-.475-.2c-.321.912-.791 2.118-.246 3.038.438.739 1.62.643 2.326.592 2.932-.209 4.338-3.28 6.773-4.443.302-.144.038-.593-.262-.45-1.806.864-3.067 2.693-4.752 3.767-.901.575-2.043.774-3.094.574-1.308-.25-.511-2.181-.243-2.94.103-.294-.318-.428-.476-.2a27.276 27.276 0 0 1-4.54 5.039c-1.143.994-2.497 1.863-4.043 1.98-1.754.135-2.607-1.377-2.902-2.878-.053-.269-.425-.226-.501 0-.356 1.073-.565 2.187-.706 3.306l.26-.26c-2.679-.085-5.244-.867-7.091-2.89-1.487-1.628-2.038-3.896-1.886-6.051.179-2.54 1.534-5.085 3.82-6.288 2.495-1.312 5.699-.65 8.263.05.255.07.432-.248.254-.434-1.747-1.818-3.109-4.837.045-5.99 2.582-.945 5.767.457 8.337.893 2.403.407 4.744-.358 7.134.008 2.446.374 4.016 2.283 5.202 4.296.061.102.18.148.294.12 2.851-.7 5.832-.564 8.175 1.368 1.554 1.282 2.589 3.275 2.833 5.267.153 1.247-.068 2.55-.041 3.806.034 1.605.218 3.218.586 4.781.352 1.492.977 2.553.65 4.15-.324 1.58-1.373 3-2.862 3.638l.382.294c.61-2.23.836-4.571-1.047-6.243-1.844-1.638-4.563-.668-6.041.937a.266.266 0 0 0-.067.253c.339 1.037.337 2.304.19 3.373-.366 2.652-2.506.093-3.249-.99-2.32-3.384-3.23-8.42-2.503-12.441.059-.329-.442-.468-.501-.139z" fill="#5569AF"/>
    <path d="M218.422 20.46a.26.26 0 0 1-.257-.226l-.046-.332c-.091-.64-.184-1.303-.099-1.95.19-1.18.742-2.34 1.6-3.358.362-.452.774-.928 1.302-1.297a.26.26 0 1 1 .298.426c-.474.332-.857.773-1.198 1.201-.801.952-1.314 2.023-1.487 3.104-.076.569.013 1.196.099 1.801l.046.337a.26.26 0 0 1-.258.294zM245.229 27.621a.252.252 0 0 1-.255-.293c.049-.298.092-.562.092-.823 0-.26-.043-.48-.09-.712-.088-.396-.187-.844-.33-1.276a8.94 8.94 0 0 0-.795-1.827.26.26 0 1 1 .449-.262 9.5 9.5 0 0 1 .841 1.93c.15.453.252.914.343 1.32.052.26.102.515.102.827 0 .303-.049.602-.097.89a.27.27 0 0 1-.26.226z" fill="#292929"/>
    <path d="M172.75 55.62c3.033.867 9.675-.72 12.995-5.341 2.311 5.197 10.107 22.667 10.684 23.534.578.867 7.652-4.332 15.738-10.83 8.085-6.496 12.994-8.373 17.903-7.795 4.909.577 7.219-.145 6.786-2.888-.434-2.743-1.011-5.054-1.011-5.054s5.631 2.31 14.438-2.888c1.877 5.488 1.733 6.498 2.455 7.364.722.867 7.22-1.876 13.427-1.01 6.208.866 19.011 14.545 25.073 20.213 7.412 6.93 16.002 14.438 11.84 22.814-2.907 5.844-13.378 1.731-13.378 1.731s-.867-2.599-5.487-7.219c-4.621-4.62-12.417-12.562-12.417-12.562s9.144 27.53 10.876 31.717c-9.24 7.796-36.329 11.747-43.671 8.409-2.403-7.21-10.519-32.184-14.129-38.97-10.973 7.652-18.625 15.016-25.121 17.325-6.498 2.31-12.273 4.62-18.049-11.118-3.306-9.01-8.952-27.431-8.952-27.431z" fill="#FAAD3A"/>
    <path d="M172.681 55.871c4.744 1.243 10.506-1.722 13.289-5.46h-.449c3.388 7.62 6.675 15.308 10.312 22.814.327.675.513 1.108 1.345.835 1.921-.629 3.704-2.147 5.319-3.304 5.98-4.287 11.387-9.583 17.878-13.105 2.089-1.133 4.35-1.985 6.724-2.238 2.343-.25 4.661.386 7.008.152 1.415-.14 2.818-.742 3.037-2.286.151-1.07-.239-2.272-.439-3.309a54.54 54.54 0 0 0-.609-2.793l-.32.32c1.227.492 2.688.542 3.985.515 3.784-.079 7.424-1.557 10.653-3.429l-.381-.155c.734 2.164 1.236 4.419 2.009 6.565.418 1.158 1.076 1.232 2.236 1.074 3.232-.44 6.32-1.279 9.614-1.264 2.52.012 4.483.75 6.598 2.053 4.733 2.918 8.836 6.938 12.832 10.765 4.073 3.9 8.173 7.783 12.21 11.718 4.667 4.55 10.531 10.916 7.492 17.91-1.971 4.534-8.019 3.568-11.829 2.446a20.47 20.47 0 0 1-1.327-.438c-.245-.092.116.231.065.095a5.575 5.575 0 0 0-.193-.444c-.892-1.898-2.323-3.573-3.708-5.123-3.837-4.294-8.118-8.247-12.157-12.352l-1.895-1.928c-.178-.18-.518.002-.435.253a2684.464 2684.464 0 0 0 6.228 18.533c1.261 3.707 2.52 7.415 3.857 11.096.188.519.38 1.037.578 1.551.079.206.174.372.109.427a18.05 18.05 0 0 1-1.464 1.071c-1.953 1.313-4.118 2.307-6.299 3.175-5.009 1.994-10.325 3.247-15.636 4.115-4.865.795-9.885 1.275-14.814.903a23.195 23.195 0 0 1-2.729-.365c-.326-.064-2.053-.309-2.171-.664-.549-1.643-1.09-3.289-1.636-4.934a1065.816 1065.816 0 0 0-4.928-14.564c-1.326-3.814-2.682-7.617-4.125-11.388-1.032-2.7-2.068-5.44-3.418-8-.062-.119-.243-.173-.356-.094-5.992 4.192-11.599 8.9-17.578 13.105-3.627 2.55-7.547 4.612-11.902 5.578-4.232.94-7.354-1.17-9.651-4.63-3.239-4.877-4.838-10.906-6.664-16.421a880.69 880.69 0 0 1-5.944-18.7c-.098-.32-.601-.184-.502.137 2.488 8.117 5.039 16.224 7.818 24.246 1.706 4.924 3.475 10.64 7.536 14.178 2.513 2.19 5.608 2.262 8.679 1.406 4.228-1.178 7.914-3.23 11.481-5.761 5.765-4.092 11.194-8.634 16.989-12.689l-.355-.093c1.935 3.671 3.315 7.667 4.743 11.553 1.882 5.122 3.653 10.285 5.397 15.455 1.32 3.913 2.61 7.836 3.914 11.754.312.939 2.934 1.115 3.755 1.233 2.006.285 4.044.322 6.067.28 6.378-.128 12.789-1.187 18.951-2.803 5.333-1.4 11.077-3.28 15.381-6.859.064-.052.099-.175.067-.252-2.331-5.678-4.124-11.618-6.088-17.43a2869.778 2869.778 0 0 1-4.788-14.287l-.435.253a2760.67 2760.67 0 0 0 8.846 8.971c2.204 2.226 4.505 4.38 6.491 6.808.933 1.14 1.992 2.468 2.499 3.881.186.521 1.9.751 2.327.866 1.901.515 3.886.817 5.858.712 1.923-.102 3.81-.764 5.06-2.282 1.565-1.902 1.929-4.755 1.612-7.113-.388-2.88-2.061-5.475-3.801-7.723-2.198-2.842-4.864-5.311-7.48-7.757-3.921-3.666-7.698-7.48-11.618-11.146-3.727-3.485-7.65-7.187-12.206-9.571-4.9-2.564-10.318-.48-15.425.092-1.087.122-1.229-.668-1.484-1.56-.553-1.934-1.11-3.857-1.757-5.761-.054-.159-.23-.244-.381-.156-3.186 1.847-6.676 3.22-10.392 3.358-1.252.046-2.665-.022-3.846-.496-.194-.078-.363.145-.321.32.23.924.424 1.858.61 2.793.256 1.288.961 3.161-.14 4.233-.86.836-2.482.778-3.575.768-1.387-.014-2.755-.275-4.142-.28-5.373-.023-10.242 3.305-14.354 6.4-5.299 3.989-10.276 8.748-16.129 11.945-.206.113-1.124.667-1.273.4-.22-.393-.406-.81-.599-1.217-.783-1.65-1.537-3.314-2.292-4.977a2264.384 2264.384 0 0 1-7.73-17.233c-.088-.198-.347-.138-.449 0-2.639 3.545-8.201 6.4-12.701 5.222-.325-.085-.463.416-.139.501z" fill="#FAAD3A"/>
    <path d="M171.721 49.536c-.774 0-1.4-.232-1.822-.695-.656-.72-.674-1.876-.046-3.02 1.315-2.398 3.355-3.178 5.363-3.664.545-.132.919-.414 1.143-.863.498-1.001.209-2.85-.815-5.205-1.289-2.968-2.403-5.53-3.468-5.862-.466-.147-.788-.139-1.016.024-.394.281-.613 1.095-.648 2.42-.075 2.813-.968 3.455-1.956 3.91-.504.233-1.023.237-1.499.01-.713-.343-1.275-1.169-1.672-2.46-.419.635-.754 1.285-1.056 1.871-.666 1.296-1.248 2.427-2.387 2.66.081 1.294-.326 2.258-1.113 2.605-.651.286-1.403.071-1.961-.562a.26.26 0 1 1 .389-.344c.404.458.927.622 1.362.43.478-.21.935-.931.784-2.323a.261.261 0 0 1 .238-.287c1.025-.083 1.555-1.113 2.226-2.416.382-.743.815-1.585 1.412-2.39.06-.08.16-.12.26-.1.098.02.176.095.201.192.45 1.799 1.086 2.436 1.542 2.654.418.2.805.105 1.057-.012.895-.413 1.585-.93 1.653-3.452.042-1.538.317-2.437.866-2.83.487-.347 1.075-.222 1.473-.097 1.232.384 2.195 2.48 3.79 6.152.768 1.767 1.532 4.182.803 5.644-.293.587-.792.969-1.486 1.136-1.892.458-3.811 1.187-5.029 3.41-.517.942-.527 1.869-.026 2.419.646.71 2.045.695 3.737-.039 3.675-1.595 4.834-4.171 4.845-4.197a.26.26 0 1 1 .477.207c-.049.113-1.24 2.785-5.115 4.467-.934.405-1.785.607-2.506.607zM177.44 63.47c-.904 0-1.726-.155-2.478-.462a.26.26 0 0 1 .197-.482c1.324.542 2.899.562 4.818.063 1.61-.404 3.675-1.066 5.377-2.612.099-.1.215-.208.335-.319.36-.333.731-.677.985-1.132a.26.26 0 1 1 .454.253c-.294.528-.714.917-1.086 1.26-.114.107-.226.21-.329.313-1.797 1.634-3.94 2.322-5.607 2.74-.963.252-1.848.377-2.666.377z" fill="#292929"/>
    <path d="M177.613 63.292a.26.26 0 0 1-.244-.17c-.161-.438-.311-.883-.464-1.334-.216-.633-.437-1.288-.69-1.934-.269-.67-.575-1.433-.823-2.178a6.726 6.726 0 0 0-.228-.57c-.161-.372-.327-.756-.363-1.174a.26.26 0 0 1 .519-.044c.028.333.171.663.322 1.012.087.2.174.403.243.612.243.73.546 1.484.813 2.15.258.66.482 1.32.699 1.96.152.446.302.888.46 1.32a.26.26 0 0 1-.244.35zM180.26 62.955a.259.259 0 0 1-.221-.122c-.182-.291-.311-.65-.435-.996-.054-.148-.107-.297-.165-.44a23.104 23.104 0 0 0-.318-.881 27.339 27.339 0 0 1-.313-.867c-.207-.58-.471-1.219-.807-1.946-.149-.35-.273-.707-.392-1.053-.117-.34-.238-.693-.38-1.023a.26.26 0 1 1 .477-.205c.15.347.275.709.395 1.058.116.337.236.685.376 1.012.339.735.609 1.387.823 1.988.096.288.203.57.308.853.111.295.221.59.319.885.055.135.111.29.166.443.121.335.234.653.387.896a.26.26 0 0 1-.22.398zM183.532 61.897a.26.26 0 0 1-.253-.197c-.058-.23-.177-.51-.292-.782-.065-.154-.129-.303-.18-.441-.12-.286-.23-.581-.341-.876a26.95 26.95 0 0 0-.329-.849l-.028-.067a151.03 151.03 0 0 0-1.751-4.113.26.26 0 0 1 .475-.213c.618 1.377 1.196 2.775 1.756 4.127l.028.067c.12.288.228.577.336.866.108.288.216.577.337.866.052.14.113.283.176.43.122.289.25.588.318.859a.261.261 0 0 1-.252.323zM185.119 58.672a.258.258 0 0 1-.231-.144 4.505 4.505 0 0 1-.207-.513c-.057-.158-.112-.315-.179-.45l-.737-1.788c-.206-.444-.42-.902-.577-1.373a6.029 6.029 0 0 0-.148-.3c-.143-.278-.305-.594-.345-.905a.26.26 0 0 1 .226-.29.262.262 0 0 1 .29.224c.028.22.169.493.292.734.064.124.125.243.171.352.155.463.362.908.563 1.34l.157.339.582 1.454c.068.133.131.31.194.488.057.16.113.319.182.455a.26.26 0 0 1-.233.377zM239.742 54.87a.26.26 0 0 1-.258-.234 7.237 7.237 0 0 0-.324-1.435c-.053-.223-.094-.423-.135-.621-.088-.425-.171-.827-.299-1.207-.235-.613-.429-1.242-.617-1.851-.085-.309-.146-.576-.207-.843a18.654 18.654 0 0 0-.19-.785.26.26 0 1 1 .502-.137c.072.269.134.538.196.806.058.26.117.52.188.781.193.625.384 1.246.618 1.853.141.42.231.856.318 1.277.04.195.08.39.126.586a7.41 7.41 0 0 1 .341 1.524.26.26 0 0 1-.232.285l-.027.001zM242.343 55.351a.26.26 0 0 1-.26-.26c0-.138-.045-.29-.089-.436a5.008 5.008 0 0 1-.049-.174 6.206 6.206 0 0 0-.234-.895 24.553 24.553 0 0 0-.532-1.98c-.101-.376-.186-.744-.272-1.111-.082-.355-.165-.71-.26-1.064a5.857 5.857 0 0 0-.136-.516c-.103-.349-.209-.71-.209-1.09a.26.26 0 1 1 .519 0c0 .305.096.63.189.942.055.187.108.37.144.546.092.344.175.704.26 1.063.084.362.168.725.265 1.087.164.533.375 1.25.533 1.986.076.224.187.594.242.927.007.027.023.078.039.13.049.165.11.37.11.586a.26.26 0 0 1-.26.26zM245.278 54.774a.26.26 0 0 1-.247-.178 8.065 8.065 0 0 1-.074-.247 6.08 6.08 0 0 0-.07-.234 3.654 3.654 0 0 1-.201-.706c-.063-.379-.17-.764-.274-1.136-.054-.195-.108-.39-.156-.584l-.179-.665a113.328 113.328 0 0 1-.929-3.622.26.26 0 1 1 .506-.118c.284 1.215.596 2.377.926 3.606l.179.67c.048.193.102.384.154.574.107.385.218.784.284 1.182.043.218.087.393.178.62.031.091.056.181.082.27.023.08.045.159.068.226a.26.26 0 0 1-.247.342zM248.117 53.619a.26.26 0 0 1-.248-.182 65.512 65.512 0 0 1-.918-3.237l-.135-.446c-.149-.49-.303-.998-.484-1.505a8.547 8.547 0 0 1-.215-.72c-.086-.323-.175-.656-.306-.945a.26.26 0 0 1 .474-.214c.149.327.243.682.335 1.025.062.233.123.463.2.678.188.52.343 1.034.493 1.53l.138.455c.271 1.03.565 2.125.914 3.222a.261.261 0 0 1-.248.339z" fill="#292929"/>
    <path d="M241.21 56.202c-.356 0-.674-.028-.983-.085-.45-.067-.885-.188-1.307-.305-.497-.138-.966-.268-1.464-.318a.26.26 0 1 1 .051-.517c.543.054 1.056.197 1.552.334.406.113.826.23 1.253.293.465.085.949.099 1.575.047.24-.022.488-.016.729-.01.309.007.627.016.935-.036 1.127-.189 2.236-.67 3.308-1.137.879-.396 1.82-.834 2.755-1.425.525-.334 1.056-.671 1.575-1.05.272-.227.571-.527.835-.79a.26.26 0 0 1 .368-.001.26.26 0 0 1 0 .367c-.271.273-.579.58-.884.835-.545.397-1.083.74-1.603 1.07-.977.618-1.936 1.065-2.836 1.47-1.104.48-2.242.975-3.432 1.174-.356.06-.7.05-1.034.043a5.829 5.829 0 0 0-.67.008c-.261.022-.5.033-.723.033zM225.161 78.043a.26.26 0 0 1-.233-.144c-.114-.228-.208-.473-.299-.71-.091-.234-.176-.456-.279-.662-.15-.443-.362-.87-.568-1.281-.107-.24-.217-.443-.326-.646-.23-.426-.468-.868-.571-1.386a.26.26 0 1 1 .51-.102c.088.442.297.83.519 1.241.115.216.231.43.329.654.218.435.439.878.586 1.322.1.194.194.438.285.674.091.236.177.458.279.664a.26.26 0 0 1-.232.376zM269.963 74.407a.29.29 0 0 1-.134-.033c-.517-.266-.936-.67-1.34-1.06-.155-.149-.31-.299-.471-.442-.45-.386-.925-.722-1.536-1.083l-2.009-1.293a.315.315 0 0 1-.096-.427.296.296 0 0 1 .413-.098l2.001 1.287c.631.375 1.133.729 1.615 1.142.171.152.333.307.493.462.39.377.759.733 1.198.959a.315.315 0 0 1 .135.414.3.3 0 0 1-.269.172zM282.95 108.002a.26.26 0 0 1-.244-.169l-3.358-9.024a.261.261 0 0 1 .153-.335.26.26 0 0 1 .335.153l3.357 9.024a.261.261 0 0 1-.243.351zM250.079 122.053c-2.439 0-4.861-.123-7.234-.372a.26.26 0 0 1-.232-.286.255.255 0 0 1 .286-.231c14.032 1.477 29.799-1.556 40.17-7.726a.26.26 0 0 1 .267.447c-8.706 5.179-21.173 8.168-33.257 8.168zM283.172 130.561a6.412 6.412 0 0 1-2.509-.53c-3.845-1.627-6.897-6.744-8.106-10.81a.26.26 0 0 1 .498-.148c1.212 4.079 4.285 8.987 7.811 10.479 1.705.721 3.422.64 5.103-.239a.26.26 0 0 1 .241.461c-1.004.524-2.019.787-3.038.787z" fill="#292929"/>
    <path d="M287.822 137.166a.26.26 0 0 1-.259-.235c-.994-10.511-6.416-21.456-6.471-21.565a.26.26 0 0 1 .465-.233c.055.111 5.521 11.14 6.524 21.749a.26.26 0 0 1-.234.283l-.025.001zM161.598 38.67c-.486 0-.965-.223-1.301-.626-.368-.512-.782-1.36-.782-2.116-.08-1.399.643-2.926 1.263-3.96a.26.26 0 1 1 .446.267c-.582.971-1.262 2.397-1.19 3.679 0 .606.338 1.344.674 1.812.297.355.771.51 1.197.379a.26.26 0 0 1 .153.497 1.568 1.568 0 0 1-.46.069zM165.401 33.855a.26.26 0 0 1-.258-.232c-.103-.94-.093-1.987-.083-3 .003-.277.005-.55.005-.812a.26.26 0 1 1 .52 0c0 .264-.002.538-.005.818-.01.997-.02 2.027.08 2.938a.26.26 0 0 1-.259.288zM264.57 137.941c-1.412 0-2.779-.403-2.858-.427a.262.262 0 0 1-.174-.173l-6.268-20.234a.258.258 0 0 1 .172-.325.258.258 0 0 1 .325.171l6.226 20.099c.518.139 2.456.602 3.834.221-1.275-4.423-4.261-15.934-4.293-16.052a.262.262 0 0 1 .187-.318.259.259 0 0 1 .317.187c.031.12 3.129 12.061 4.359 16.281a.26.26 0 0 1-.16.316c-.508.187-1.091.254-1.667.254z" fill="#292929"/>
    <path d="M87.533 93.006c-.866.481-2.86 1.291-3.987 1.464-.342.053-1.595-9.55-1.595-9.55 5.811-2.13 8.663-4.14 10.202-8.567 1.54-4.427-2.707-5.196-2.947-9.66-.192-3.569.541-15.077-12.741-13.344C63.181 55.082 52.497 73.85 57.887 79.53c5.391 5.678 10.3 6.448 10.204 7.892-.097 1.444-5.199 9.337-5.487 9.721-.29.386 3.658 8.181 7.7 9.818 4.043 1.637 26.47.867 17.23-13.956z" fill="#FAD1D5"/>
    <path d="M27.952 195.949c-.578-8.374-.578-35.662 15.449-47.502 1.299-1.01 2.358-4.041 2.358-4.041 7.17 1.876 25.556 6.786 33.689 6.353-.962 2.742-3.657 6.93-3.657 6.93l2.55 38.115-20.936.434-4.186-6.642.577 6.353H27.952z" fill="#FAAD3A"/>
    <path d="M28.212 195.949c-.572-8.438.1-17.101 2.16-25.303 1.32-5.263 3.354-10.386 6.413-14.888a30.348 30.348 0 0 1 5.522-6.122c.92-.777 1.748-1.349 2.4-2.376.532-.835.928-1.773 1.272-2.699l.03-.086-.32.181c5.474 1.433 10.954 2.842 16.485 4.043 5.583 1.213 11.52 2.588 17.274 2.32l-.25-.329c-.87 2.377-2.203 4.604-3.55 6.74-.207.328-.083.767-.059 1.139l.547 8.169 1.6 23.913.344 5.153.26-.26-16.037.332-3.646.076-.99.02c-.444.009 0 .195-.127-.008l-4.096-6.499c-.129-.203-.51-.141-.485.131l.577 6.353.26-.26H27.951c-.335 0-.335.52 0 .52h25.843c.133 0 .273-.119.26-.26l-.576-6.353-.485.131 4.097 6.5c.236.375.58.265.987.257l3.568-.074 16.694-.346c.135-.002.27-.116.26-.26l-2.485-37.148-.052-.783c-.02-.305-.074-.009.17-.397 1.321-2.109 2.609-4.305 3.465-6.648.058-.156-.09-.337-.25-.329-5.717.267-11.584-1.105-17.136-2.301-5.532-1.192-11.01-2.61-16.484-4.043-.144-.038-.272.047-.32.181a16.03 16.03 0 0 1-1.091 2.393c-.711 1.286-1.886 2.022-2.97 2.959-1.957 1.693-3.64 3.685-5.11 5.808-3 4.328-4.955 9.332-6.308 14.396-2.198 8.227-2.868 16.989-2.374 25.481.011.192.024.384.037.576.023.333.543.335.52 0z" fill="#FAAD3A"/>
    <path d="M58.177 154.387a.225.225 0 0 1-.044-.004c-5.913-1.018-11.37-3.314-13.905-5.848a.26.26 0 1 1 .367-.367c2.464 2.463 7.812 4.702 13.626 5.703a.26.26 0 0 1-.044.516z" fill="#292929"/>
    <path d="M32.957 196.065a.259.259 0 0 1-.26-.248c-.245-5.517-.728-33.655 13.955-45.837a.26.26 0 0 1 .333.4c-14.494 12.025-14.012 39.94-13.768 45.413a.26.26 0 0 1-.248.272h-.012z" fill="#292929"/>
    <path d="M83.568 94.275c4.29-1.04 6.13-2.472 8.97-2.761.964-3.081-2.26-8.374-4.523-9.337-2.31 1.54-4.765 2.502-6.16 2.744.673 4.545 1.713 9.354 1.713 9.354z" fill="#463363"/>
    <path d="M83.637 94.526c2.991-.75 5.829-2.39 8.901-2.752.117-.014.218-.07.251-.191.748-2.769-.896-5.84-2.593-7.925-.26-.32-1.753-2.069-2.312-1.705-1.856 1.206-3.906 2.29-6.098 2.717-.151.03-.202.189-.182.32a151.33 151.33 0 0 0 1.713 9.354c.071.328.572.19.502-.138a151.855 151.855 0 0 1-1.714-9.355l-.181.32c.898-.175 1.77-.47 2.61-.83.531-.229 1.051-.473 1.567-.734.27-.136 1.756-1.219 1.974-1.116 1.88.89 3.16 3.357 3.86 5.197.366.962.56 1.984.5 3.013-.053.925-1.563.842-2.317 1.08-2.23.705-4.338 1.671-6.62 2.244-.324.081-.186.582.14.5z" fill="#463363"/>
    <path d="M78.89 85.445c-2.744 0-5.572-.678-7.963-1.956a.26.26 0 0 1 .245-.459c3.164 1.691 7.117 2.3 10.575 1.628a.26.26 0 0 1 .099.51 15.55 15.55 0 0 1-2.955.277z" fill="#292929"/>
    <path d="M65.202 74.525c1.277 4.02 3.88 5.089 3.213-.92 11.334-6.785 11.73-16.117 10.142-19.366 7.002.94 11.696 4.115 10.613 12.056 7.435-1.949 6.93-14.51.504-16.82-.144-9.096-10.062-11.395-19.852-5.848-4.388 2.487-5.947 5.52-11.927 7.86-7.014 2.744-9.446 11.699-9.446 19.238 0 11.471-.067 17.083-9.09 24.085-9.025 7.004-17.494 15.893-12.273 26.928 3.176 6.712 10.107 6.28 10.107 6.28-1.949 9.024 3.609 14.365 8.95 14.005 0 0 1.517-18.769 3.466-26.999 1.95-8.23 5.775-11.623 12.2-14.871 6.425-3.248 8.072-4.394 7.436-10.613-.497-4.853-1.371-8.446-1.371-8.446-5.704 2.383-8.536-.922-9.169-3.32-1.01-3.827 4.26-6.786 6.497-3.25z" fill="#463363"/>
    <path d="M64.951 74.593c.3.9 1.996 4.962 3.41 2.99.27-.376.32-.907.378-1.352.058-.44.045-.89.035-1.333-.023-1.013.066-1.236.931-1.796A26.265 26.265 0 0 0 74.9 68.69c3.234-3.574 6.148-9.774 3.883-14.581l-.293.382c2.87.402 5.834 1.161 8.035 3.154 2.433 2.203 2.773 5.572 2.386 8.65-.022.172.181.293.328.251 4.055-1.144 5.798-5.232 5.624-9.172-.088-1.977-.709-3.95-1.835-5.58a7.566 7.566 0 0 0-1.756-1.775 6.172 6.172 0 0 0-1.241-.681c-.24-.103-.204-1.282-.25-1.596-.735-4.926-5.195-7.338-9.823-7.363-6.034-.033-11.077 3.286-15.556 6.945a26.691 26.691 0 0 1-3.803 2.62c-1.499.843-3.156 1.337-4.635 2.216-2.242 1.333-3.885 3.48-5.067 5.764-2.742 5.303-2.642 11.18-2.73 16.977-.077 5.14-.572 10.215-3.671 14.496-1.804 2.49-4.243 4.354-6.62 6.256-2.656 2.125-5.187 4.423-7.395 7.017-2.211 2.596-4.014 5.574-4.845 8.903-.873 3.492-.256 7.068 1.227 10.297 1.774 3.863 6.013 6.652 10.33 6.409a52.644 52.644 0 0 1-.25-.329c-.752 3.688-.503 7.595 1.768 10.722 1.71 2.355 4.524 3.758 7.434 3.612.15-.008.248-.113.26-.26.675-8.332 1.446-16.747 3.034-24.959 1.084-5.603 3.24-10.594 7.97-14.017 2.322-1.679 4.96-2.814 7.453-4.205 1.67-.933 3.355-2.05 4.187-3.838 1.043-2.24.528-5.057.233-7.394-.279-2.206-.635-4.421-1.157-6.584-.03-.127-.19-.233-.32-.182-3.262 1.297-7.16 1.07-8.663-2.573-1.475-3.578 3.458-7.074 5.837-3.615.188.274.639.014.448-.263-2.263-3.29-7.638-1.094-7.08 2.853.233 1.65 1.216 3.069 2.576 4.004 2.094 1.438 4.818.97 7.02.095-.106-.06-.213-.12-.319-.182.548 2.272.905 4.598 1.197 6.914.304 2.41.738 5.229-.623 7.406-1.296 2.074-4.071 3.2-6.153 4.26-2.344 1.193-4.622 2.483-6.617 4.213-3.992 3.462-5.639 8.469-6.593 13.507-.973 5.133-1.55 10.349-2.097 15.54a373.076 373.076 0 0 0-.853 9.02l.26-.26c-2.712.136-5.14-1.105-6.847-3.177-2.393-2.902-2.573-6.972-1.853-10.499.031-.156-.073-.339-.251-.329-3.915.221-7.627-2.143-9.528-5.459-3.704-6.465-1.463-13.551 2.93-18.959 2.14-2.636 4.702-4.92 7.325-7.06 2.347-1.914 4.717-3.708 6.62-6.092 2.971-3.725 3.85-8.244 4.075-12.895.28-5.765-.188-11.396 1.794-16.941.932-2.606 2.42-5.022 4.535-6.827 1.18-1.007 2.557-1.582 3.969-2.18 1.479-.625 2.868-1.44 4.18-2.364 2.132-1.504 3.99-3.348 6.207-4.743 2.788-1.754 6.026-2.939 9.307-3.273 2.583-.264 5.277.154 7.46 1.615 2.303 1.54 3.268 4.229 3.347 6.895.004.125.08.208.19.251 6.576 2.513 6.382 14.374-.504 16.318l.33.25c.39-3.109.013-6.258-2.169-8.65-2.16-2.367-5.586-3.228-8.635-3.655-.23-.033-.397.16-.293.381 1.161 2.465.653 5.566-.206 8.03-1.668 4.79-5.616 8.41-9.844 10.981-.072.044-.137.135-.128.225.064.64.527 3.883-.617 3.96-1.065.072-1.86-2.433-2.085-3.11-.105-.317-.608-.182-.502.137z" fill="#463363"/>
    <path d="M77.656 70.302c-1.32.175-1.481 2.85-.181 2.779 1.299-.072 1.263-2.924.18-2.78z" fill="#292929"/>
    <path d="M77.511 70.85a.26.26 0 0 1-.148-.474l.056-.039c.413-.284.803-.553.947-.811a.26.26 0 0 1 .455.253c-.203.364-.622.652-1.107.987l-.056.038a.26.26 0 0 1-.147.046zM87.114 67.237c-1.312.224-1.375 2.903-.079 2.784 1.296-.119 1.157-2.968.079-2.784z" fill="#292929"/>
    <path d="M86.98 67.791a.26.26 0 0 1-.156-.468l.068-.05c.396-.296.772-.576.904-.837a.26.26 0 0 1 .464.235c-.188.37-.591.67-1.058 1.02l-.066.049a.259.259 0 0 1-.155.051zM84.55 76.77a.26.26 0 0 1-.188-.44c.158-.164.309-.318.45-.462 1.491-1.517 1.892-1.925.422-4.16l-.075-.114c-1.722-2.62-1.964-3.137-.405-6.036a.26.26 0 1 1 .458.246c-1.457 2.709-1.283 2.973.381 5.504l.076.115c1.7 2.585 1.06 3.236-.485 4.81-.141.143-.29.294-.447.458a.259.259 0 0 1-.188.08zM73.973 68.1c-.922 1.668-.758 2.526.433 1.48 1.192-1.047 2.888-2.13 3.863-2.563.974-.433.033-1.654-1.517-1.371-.794.144-2.02 1.081-2.779 2.454z" fill="#292929"/>
    <path d="M77.205 65.864a2.28 2.28 0 0 0-.406.037c-.718.131-1.886 1.036-2.599 2.325-.487.883-.583 1.391-.557 1.547.068-.016.247-.085.592-.388 1.238-1.088 2.97-2.18 3.929-2.606.184-.081.263-.186.236-.313-.053-.252-.498-.602-1.195-.602zm-3.595 3.913.002.26v-.26h-.002zm.002.52a.46.46 0 0 1-.407-.227c-.263-.447.149-1.386.54-2.095.826-1.495 2.114-2.432 2.961-2.585.168-.03.336-.046.5-.046.966 0 1.599.523 1.703 1.015.08.377-.12.711-.534.895-.923.41-2.596 1.466-3.797 2.522-.4.35-.715.521-.966.521zM84.767 65.862c.937-1.696 2.489-3.393 3.284-3.176.795.216 1.154 1.3.686 1.624-.47.325-.831-.577-2.383.47-1.36.917-1.66 1.37-1.587 1.082z" fill="#292929"/>
    <path d="M87.904 62.927c-.507 0-1.452.877-2.27 2.041.166-.122.357-.257.575-.404.567-.383 1.061-.568 1.511-.568.233 0 .415.048.562.086.135.036.207.084.306.015.084-.058.116-.196.087-.368-.054-.315-.31-.688-.692-.793a.304.304 0 0 0-.079-.01zm-3.13 3.281h-.127l-.091-.105c-.09-.115-.056-.248-.042-.305l.025-.062c.96-1.735 2.61-3.567 3.58-3.301.62.168.989.743 1.068 1.206.065.377-.049.707-.303.883-.22.152-.48.127-.734.06a1.599 1.599 0 0 0-.43-.068c-.343 0-.742.156-1.22.48-.641.43-1.041.757-1.28.952-.24.195-.32.26-.447.26zM81.944 80.103c-.75 0-1.468-.291-2.147-.868-.569-.469-1.141-1.173-1.61-1.981a.26.26 0 1 1 .451-.26c.437.755.968 1.41 1.492 1.843.728.617 1.492.854 2.277.703.33-.084.724-.208 1.031-.48a.26.26 0 1 1 .345.388c-.39.347-.858.498-1.264.599a3.022 3.022 0 0 1-.575.056z" fill="#292929"/>
    <path d="M83.972 78.286c-.132 0-.265-.009-.397-.019-.418-.03-.839-.042-1.238-.097-.184-.026-.367-.051-.55-.065a21.197 21.197 0 0 1-1.375-.259 14.71 14.71 0 0 0-.393-.099 7.528 7.528 0 0 1-.828-.235 3.579 3.579 0 0 1-.47-.186 5.562 5.562 0 0 0-.327-.14.26.26 0 1 1 .184-.486c.124.047.241.1.356.151.148.067.287.13.417.167.271.098.523.16.79.224.133.032.265.064.397.1.436.1.835.168 1.31.247.172.012.366.039.56.066.422.058.81.066 1.204.094.311.023.618.006.956-.05l.096.511c-.23.039-.458.076-.692.076z" fill="#292929"/>
    <path d="M82.844 69.54c.306-.444.691-.784 1.196-.985.53-.21.95.052 1.393.314.29.172.55-.278.262-.449-.603-.358-1.093-.576-1.792-.366-.636.19-1.142.693-1.508 1.223-.19.277.26.537.45.263z" fill="#5569AF"/>
    <path d="M80.494 63.977c-6.431-4.002-10.748 7.31-5.636 11.057 2.684 1.967 5.92.34 7.239-2.383 1.322-2.731 1.003-6.79-1.603-8.674-.273-.196-.532.255-.263.45 2.291 1.655 2.468 5.04 1.61 7.49-.988 2.829-4.336 4.675-6.895 2.517-4.232-3.567-.486-13.6 5.285-10.008.285.178.546-.272.263-.449z" fill="#5569AF"/>
    <path d="m68.52 74.523 5.017-1.48c.32-.095.185-.597-.138-.501l-5.017 1.48c-.321.094-.184.596.138.5zM92.56 67.845c.358-2.184.325-5.856-1.937-7.087-.997-.543-2.178-.021-2.961.635-1.289 1.08-1.812 3.002-2.102 4.575-.394 2.13-.62 6.635 2.455 6.995 2.834.33 4.105-2.84 4.546-5.118.063-.328-.438-.468-.501-.139-.366 1.89-1.219 4.533-3.462 4.761-2.877.293-2.807-3.75-2.64-5.598.172-1.924 1.657-7.158 4.604-5.553 1.874 1.02 1.786 4.626 1.498 6.39-.054.328.447.469.5.139z" fill="#5569AF"/>
    <path d="M91.623 194.144c.591-.946-.421-2.412-.938-2.96-1.526-1.617-3.104-3.032-6.087-3.176-1.093-.053-3.543.436-4.62.193-1.746-.395-2.455-12.609-2.455-12.609-6.93.938-14.342 2.021-14.342 2.021s3.904 15.687 4.957 16.748c1.31 1.319 2.725 1.847 4.38 1.443 1.583-.386 4.239-.92 5.87-1.058 1.786-.153 3.242.013 4.91.577.698.236.79.827 2.119.338.535-.198 1.853.554 2.406.384 0 0 .914-.505 1.059-.722.144-.217 1.732.43 2.741-1.179z" fill="#FAD1D5"/>
    <path d="m46.337 140.941-.578 3.465s3.658 2.79 10.395 3.561c1.348 6.545 7.027 29.646 7.027 29.646 4.91 1.155 12.273-.097 14.582-1.636-.096-7.22-2.838-24.064-3.609-25.508 3.369.77 5.294.29 5.294.29 2.118-6.45 4.717-13.476 5.678-16.172.963-2.694 1.926-3.85 4.237-4.812 2.31-.963 10.01-4.331 8.47-16.749 4.908.674 12.128 1.829 12.128 1.829l-.192-20.598s-12.418-6.16-23.005-.963c3.273 3.08 2.214 8.472-3.754 11.359-5.968 2.888-14.054.385-18.77-5.39-5.39 1.54-12.802 6.161-14.727 16.074-1.924 9.914-3.176 25.604-3.176 25.604z" fill="#5569AF"/>
    <path d="m46.086 140.872-.578 3.465c-.02.127.018.216.12.293.847.638 1.834 1.113 2.795 1.547 1.005.455 2.049.818 3.106 1.133.432.129 4.39.798 4.404.871.744 3.595 1.613 7.166 2.46 10.737a2360.787 2360.787 0 0 0 4.537 18.765c.021.083.096.162.182.182 4.187.927 8.952.534 13.005-.84a8.297 8.297 0 0 0 1.777-.824c.339-.214.099-1.301.083-1.638-.083-1.835-.262-3.667-.459-5.493-.427-3.984-1-7.954-1.664-11.904a109.233 109.233 0 0 0-.861-4.602c-.156-.732-.279-1.548-.615-2.226l-.293.382c1.722.37 3.68.702 5.432.29.23-.054.287-.5.327-.623.292-.888.592-1.775.893-2.661a418.417 418.417 0 0 1 1.657-4.767c.88-2.493 1.783-4.977 2.682-7.464.908-2.514 1.864-4.427 4.44-5.504 2.245-.939 4.245-2.29 5.78-4.2 2.875-3.576 3.308-8.362 2.796-12.764l-.329.251c4.05.559 8.092 1.183 12.129 1.828.163.026.331-.067.329-.251l-.192-20.597c-.001-.087-.048-.185-.129-.225-7.016-3.456-16.113-4.373-23.268-.963-.152.073-.165.298-.052.409 1.846 1.816 2.19 4.318 1.074 6.632-1.279 2.654-4.21 4.37-6.957 5.105-5.995 1.605-12.471-1.582-16.273-6.137-.057-.069-.17-.091-.253-.067a21.918 21.918 0 0 0-9.683 5.866c-3.492 3.648-4.89 8.228-5.712 13.093-1.284 7.594-2.085 15.295-2.7 22.97-.026.335.494.332.52 0 .28-3.491.632-6.977 1.017-10.457.35-3.171.745-6.338 1.21-9.494.45-3.043.864-6.151 1.905-9.057 1.924-5.368 6.26-9.538 11.48-11.693.465-.193.94-.36 1.418-.518.731-.242.967.361 1.452.872 1.06 1.115 2.291 2.061 3.588 2.881a17.384 17.384 0 0 0 7.99 2.615c3.87.284 8.232-1.255 10.62-4.425 2.013-2.672 2.138-6.128-.329-8.554l-.052.408c5.848-2.787 12.512-2.423 18.588-.605 1.382.414 2.757.908 4.063 1.523.03.015-.039-.325-.034.156l.014 1.516.175 18.746.329-.25a570.417 570.417 0 0 0-12.129-1.829c-.148-.02-.35.064-.329.251.52 4.467.047 9.18-2.93 12.746-1.647 1.974-3.773 2.998-6.035 4.059-1.735.813-2.734 2.233-3.455 3.957-.852 2.037-1.522 4.172-2.268 6.249a466.57 466.57 0 0 0-3.099 8.883c-.058.173-.453 1.598-.463 1.6-.253.055-.51.076-.767.098-1.452.122-2.917-.096-4.332-.401a.263.263 0 0 0-.293.382c.553 1.121.673 2.599.905 3.809.458 2.39.84 4.794 1.198 7.201.415 2.792.776 5.594 1.065 8.403.12 1.167.221 2.336.3 3.507.035.512.06 1.024.08 1.536.03.699.043.798-.596 1.107-2.67 1.289-5.986 1.576-8.9 1.639a25.247 25.247 0 0 1-2.302-.071c-.246-.018-2.263-.245-2.249-.19l-.164-.668c-.84-3.425-1.674-6.851-2.501-10.279-1.502-6.217-3.065-12.432-4.362-18.696-.025-.122-.14-.178-.25-.191-3.33-.408-6.66-1.323-9.555-3.058a10.813 10.813 0 0 1-.614-.399c-.2-.14.064-.008.029.202l.078-.473.495-2.969c.055-.328-.446-.469-.5-.138z" fill="#5569AF"/>
    <path d="M56.154 148.227a.26.26 0 0 1-.255-.209c-1.597-7.892-3.336-15.482-4.228-18.458a.26.26 0 1 1 .498-.149c.896 2.989 2.64 10.598 4.24 18.504a.261.261 0 0 1-.255.312zM74.444 151.21a.26.26 0 0 1-.255-.212c-.13-.687-.487-1.492-.938-2.511-.526-1.187-1.181-2.664-1.753-4.585-.661-2.228-.803-7.304-.928-11.781-.076-2.744-.149-5.337-.332-6.839a.26.26 0 0 1 .227-.29.257.257 0 0 1 .29.227c.185 1.527.258 4.131.335 6.888.124 4.445.264 9.484.907 11.647.561 1.889 1.209 3.349 1.73 4.522.464 1.051.832 1.88.972 2.626a.259.259 0 0 1-.255.308zM97.929 113.672a.26.26 0 0 1-.258-.234c-.004-.027-.292-2.807-.577-4.704a.26.26 0 0 1 .515-.078c.286 1.909.576 4.701.579 4.729a.26.26 0 0 1-.26.287zM53.17 190.289a.26.26 0 0 1-.259-.247l-.337-6.593a.26.26 0 0 1 .247-.273c.136-.018.265.103.273.246l.337 6.594a.26.26 0 0 1-.247.272l-.013.001z" fill="#292929"/>
    <path d="M52.977 186.054a.26.26 0 0 1-.055-.514l4.38-.963a.26.26 0 1 1 .112.508l-4.38.963a.275.275 0 0 1-.057.006zM85.56 195.776a.26.26 0 0 1-.076-.509c.063-.019.077-.046.086-.072.079-.219-.165-.765-.37-1.076-.845-1.154-2.365-2.058-3.867-2.292-.652-.139-1.288-.094-1.962-.046-.297.03-.602.101-.923.176a17.07 17.07 0 0 1-.489.108.26.26 0 0 1-.101-.51c.157-.032.315-.068.472-.104.323-.076.658-.154.996-.188.688-.049 1.392-.099 2.102.052 1.616.252 3.27 1.237 4.199 2.507.07.108.635.983.432 1.549a.622.622 0 0 1-.422.393.257.257 0 0 1-.077.012z" fill="#292929"/>
    <path d="M88.352 195.825a.26.26 0 0 1-.116-.493c.385-.193.548-.379.58-.663.097-.4.083-.772-.034-1.082-.233-.835-1.005-1.547-1.569-2.067-.669-.621-1.55-.995-2.324-1.297-.773-.299-1.54-.372-2.414-.225-.375.025-.737.086-1.086.144-.36.06-.733.122-1.106.147-.14.017-.267-.099-.277-.243a.26.26 0 0 1 .243-.276c.347-.024.707-.083 1.055-.141.361-.061.736-.123 1.11-.147.945-.159 1.8-.079 2.663.257.82.319 1.754.717 2.489 1.4.609.561 1.444 1.331 1.71 2.287.146.386.166.868.05 1.335-.06.565-.49.852-.858 1.036a.255.255 0 0 1-.116.028z" fill="#292929"/>
    <path d="m132.051 73.37-1.299-5.198s3.368-8.758 5.196-9.048c1.83-.288 3.948-1.444 3.274-4.716-.674-3.272-2.311-2.503-2.311-2.503-1.635-2.79-3.08-2.598-4.042-2.117-2.599-3.465-8.182-3.947-11.263 1.733-3.079 5.678-2.02 16.555.098 29.26 3.273-2.213 10.347-7.41 10.347-7.41z" fill="#FAD1D5"/>
    <path d="M77.732 108.897c-3.514 0-9.073-.884-14.204-5.481a.26.26 0 1 1 .347-.387 20.58 20.58 0 0 0 15.173 5.304c3.695-.246 7.042-1.526 8.526-3.261 1.837-2.216 2.572-5.234 2.646-7.318.005-.144.14-.254.269-.25a.26.26 0 0 1 .25.268c-.1 2.81-1.134 5.664-2.767 7.635-1.574 1.84-5.062 3.191-8.89 3.445a20.31 20.31 0 0 1-1.35.045z" fill="#292929"/>
    <path d="M124.548 65.696c-1.876-.69-2.156-2.301-.621-3.58l8.295-6.912c1.535-1.28 3.069-.716 3.409 1.255l1.84 10.636c.341 1.971-.915 3.017-2.791 2.327l-10.132-3.726z" fill="#65B6DE"/>
    <path d="M133.071 55.428c.098 1.723 1.101 2.105 1.819 1.675-.287 1.914 1.436 2.296 1.915 1.865.478-.43-.145-6.028-3.494-5.598-.478 1.293-.24 2.058-.24 2.058z" fill="#FAD1D5"/>
    <path d="M129.747 47.412c-4.38-1.22-8.47 2.226-9.762 8.757-.59 2.978-.433 7.002-.039 10.926.722.066 1.435.187 2.14.347l.267-5.1c1.221.36 6.604 1.077 7.394-1.866.789-2.943-2.728-3.876-5.887-2.728.36-1.579 1.148-4.235 3.159-4.952 2.01-.718 3.229 4.45 5.526 3.158 2.297-1.291 1.579-7.321-2.798-8.542z" fill="#FAD1D5"/>
    <path d="M125.257 62.948c-1.28 0-2.452-.202-2.977-.357a.26.26 0 1 1 .146-.499c.91.268 4.138.717 5.934-.29.595-.334.977-.803 1.136-1.393.235-.88.072-1.584-.485-2.095-.995-.912-3.075-1.043-5.062-.321a.258.258 0 0 1-.26-.05.261.261 0 0 1-.082-.252c.658-2.895 1.745-4.576 3.324-5.14 1.117-.4 1.964.657 2.786 1.677 1.009 1.256 1.743 2.038 2.701 1.5.496-.28.852-.824 1.029-1.573.325-1.376-.033-3.107-.914-4.41a.26.26 0 0 1 .432-.29c.957 1.417 1.345 3.309.988 4.82-.211.894-.654 1.553-1.28 1.905-1.412.796-2.448-.49-3.361-1.626-.74-.918-1.439-1.786-2.206-1.514-1.318.471-2.264 1.885-2.883 4.314 2.022-.607 4.087-.389 5.139.577.489.448.997 1.266.636 2.612-.196.731-.662 1.307-1.385 1.712-.935.525-2.19.693-3.356.693z" fill="#292929"/>
    <path d="M134.121 57.522c-.078 0-.154-.006-.228-.02-.382-.067-1.034-.373-1.104-1.678a.26.26 0 1 1 .519-.027c.027.495.165 1.105.675 1.193.747.129 2.061-.85 2.701-2.358.336-.79.247-1.87-.239-2.888a.26.26 0 0 1 .469-.224c.557 1.167.648 2.376.248 3.316-.645 1.522-1.988 2.686-3.041 2.686z" fill="#292929"/>
    <path d="M136.193 59.356c-.367 0-.701-.115-.965-.339-.49-.415-.667-1.138-.497-2.034a.26.26 0 0 1 .511.097c-.133.704-.019 1.251.323 1.541.282.24.708.28 1.169.111a.26.26 0 1 1 .178.488 2.082 2.082 0 0 1-.719.136z" fill="#292929"/>
    <path d="m206.841 82.483-38.659-22.32c-3.85-2.223-10.152-2.223-14.003 0l-38.659 22.32c-3.851 2.223-7.002 7.68-7.002 12.127v44.64c0 4.446 3.151 9.904 7.002 12.128l38.659 22.319c3.851 2.223 10.153 2.223 14.003 0l38.659-22.319c3.851-2.224 7.001-7.682 7.001-12.128V94.61c0-4.446-3.15-9.904-7.001-12.127z" fill="#D8EFFB"/>
    <path d="M188.215 108.291c0-14.565-11.809-26.374-26.374-26.374s-26.373 11.809-26.373 26.374c0 10.522 6.163 19.602 15.075 23.835 2.882 1.75 2.889 4.024 2.763 8.083-.105 3.417-.336 6.17 1.239 7.616 1.257 1.378 4.048 2.337 7.296 2.337 3.249 0 6.039-.959 7.297-2.337 1.575-1.446 1.344-4.199 1.238-7.616-.125-4.059-.118-6.333 2.763-8.083 8.913-4.233 15.076-13.313 15.076-23.835z" fill="#FAAD3A"/>
    <path d="M188.475 108.291c-.078-11.39-7.388-21.559-18.163-25.257-10.868-3.731-23.065.34-29.899 9.44-7.169 9.546-6.722 23.039.56 32.362 1.819 2.328 4.068 4.3 6.54 5.907 1.261.819 2.734 1.348 3.881 2.324 1.148.976 1.527 2.399 1.649 3.841.259 3.056-.522 6.221.234 9.23.61 2.428 3.241 3.489 5.439 3.975 3.712.821 10.312.429 11.69-3.975 1.363-4.359-2.074-11.399 3.198-13.949 9.081-4.391 14.798-13.887 14.871-23.898.003-.336-.517-.336-.52 0a26.463 26.463 0 0 1-7.046 17.84c-2.147 2.323-4.745 4.195-7.568 5.609-2.105 1.055-3.028 2.892-3.221 5.168-.266 3.144.87 6.921-.515 9.871-1.474 3.141-6.693 3.307-9.563 3.022-1.718-.171-3.543-.695-4.913-1.777-1.375-1.087-1.584-2.739-1.634-4.382-.089-2.885.583-5.994-.312-8.802-.793-2.491-3.402-3.283-5.408-4.547-2.752-1.734-5.131-4.035-7.058-6.647-3.858-5.232-5.491-11.817-4.832-18.253 1.273-12.43 11.793-22.228 24.136-23.154 7.219-.541 14.385 2.098 19.674 6.995 5.284 4.892 8.212 11.891 8.26 19.057.002.335.522.336.52 0z" fill="#FAAD3A"/>
    <path d="M170.417 136.522c-2.742.61-5.614.934-8.576.934a39.47 39.47 0 0 1-8.575-.934c.109 1.044.084 2.253.04 3.687-.105 3.417-.336 6.17 1.239 7.616 1.257 1.378 4.048 2.337 7.296 2.337 3.249 0 6.039-.959 7.297-2.337 1.575-1.446 1.344-4.199 1.238-7.616-.044-1.434-.069-2.643.041-3.687z" fill="#463363"/>
    <path d="M170.347 136.271a40.203 40.203 0 0 1-17.012 0c-.153-.032-.345.074-.329.252.301 3.363-.86 7.359.623 10.519 1.312 2.796 5.55 3.342 8.212 3.38 2.841.04 6.677-.678 8.213-3.38.695-1.221.662-2.843.657-4.198-.007-2.108-.223-4.217-.034-6.321.03-.335-.491-.332-.52 0-.28 3.121.517 6.412-.253 9.476-.813 3.239-5.327 3.864-8.063 3.903-2.879.04-7.072-.737-8.063-3.903-.435-1.391-.3-2.994-.257-4.431.05-1.68.155-3.368.005-5.045l-.329.25a40.883 40.883 0 0 0 17.289 0c.327-.071.188-.572-.139-.502z" fill="#463363"/>
    <path d="M161.822 101.899a3.9 3.9 0 0 0-.605.046c-1.815.275-3.708 1.866-3.576 5.505.13 3.564 1.85 7.271 4.349 9.733.139-.159.27-.318.393-.475 3.164-4.01 3.92-9.575 3.249-12.049-.507-1.868-2.233-2.76-3.81-2.76zm5.533 18.127c1.926.281 3.913-.143 5.867-1.269 2.866-1.653 4.495-3.618 4.47-5.39a2.401 2.401 0 0 0-1.29-2.133c-.983-.531-2.228-.429-3.329.272-1.151.731-3.829 2.952-5.718 8.52zm-19.544-6.778c-.641 0-1.142.176-1.463.527-.495.538-.533 1.471-.101 2.495.824 1.954 3.411 4.283 7.986 4.417.441.013.863-.002 1.27-.041-1.406-3.51-3.38-6.237-5.987-7.085-.64-.209-1.214-.313-1.705-.313zm10.948 25.045h-.019a.52.52 0 0 1-.501-.538c.163-4.75-.563-11.074-2.356-16.104-.548.067-1.108.092-1.68.076-5.069-.149-7.97-2.814-8.915-5.053-.594-1.409-.484-2.756.294-3.603.498-.542 1.713-1.327 4.256-.5 3.084 1.005 5.251 4.101 6.726 7.913 2.012-.424 3.564-1.449 4.712-2.552-2.687-2.651-4.535-6.626-4.674-10.445-.157-4.321 2.2-6.228 4.459-6.571 2.538-.386 4.934 1.108 5.574 3.47.839 3.095-.342 9.044-3.435 12.967-.144.182-.29.358-.439.528.521.434 1.069.814 1.639 1.128a9.008 9.008 0 0 0 1.899.791c1.896-5.709 4.657-8.181 6.216-9.172 1.424-.907 3.062-1.021 4.381-.309a3.458 3.458 0 0 1 1.836 3.033c.018 1.27-.607 3.778-4.991 6.305-2.538 1.464-4.819 1.69-6.708 1.375-1.128 3.761-1.889 8.895-1.7 15.87a.521.521 0 0 1-.506.534.53.53 0 0 1-.534-.506c-.19-7.036.553-12.263 1.695-16.136a10.09 10.09 0 0 1-2.092-.875 11.58 11.58 0 0 1-1.849-1.283c-1.487 1.451-3.217 2.406-5.122 2.836 1.918 5.542 2.492 12.278 2.353 16.319a.52.52 0 0 1-.519.502z" fill="#463363"/>
    <path d="M161.571 140.861c-2.282 0-4.62-.232-6.906-.905a.26.26 0 0 1 .146-.499c4.531 1.333 9.299.895 13.414.382a.264.264 0 0 1 .29.225.26.26 0 0 1-.226.291c-2.107.263-4.384.506-6.718.506z" fill="#292929"/>
    <path d="M121.851 133c-1.568 1.228-3.08.62-3.359-1.353l-1.508-10.652c-.279-1.973 1.003-2.977 2.85-2.233l9.98 4.019c1.847.744 2.076 2.357.508 3.586L121.851 133z" fill="#ED4477"/>
    <path d="M158.578 159.799a6.982 6.982 0 0 0-.958.413c-.941.498-2.071 1.411-2.104 2.945-.02.898.266 1.512.827 1.773.676.316 1.674.072 2.427-.589.406-.357 1.298-1.351.816-2.872-.191-.601-.543-1.169-1.008-1.67zm-1.567 5.789c-.315 0-.617-.061-.888-.187-.435-.203-1.16-.765-1.127-2.255.03-1.394.876-2.599 2.381-3.393.251-.132.514-.251.787-.356a6.553 6.553 0 0 0-3.738-1.584c-1.108-.087-3.125.095-4.221 2.286a.26.26 0 1 1-.465-.233c.9-1.799 2.622-2.74 4.726-2.572a7.071 7.071 0 0 1 4.252 1.914c2.617-.795 5.933-.434 8.125.996a.26.26 0 0 1-.285.436c-2.004-1.308-5.007-1.67-7.44-1.009a4.83 4.83 0 0 1 .963 1.681c.4 1.258.037 2.537-.968 3.419-.632.556-1.4.857-2.102.857z" fill="#5569AF"/>
    <path d="M198.585 138.558a6.256 6.256 0 1 1-12.512-.002 6.256 6.256 0 0 1 12.512.002z" fill="#65B6DE"/>
    <path d="M199.085 92.386a3.031 3.031 0 0 1-4.248.577l-4.714-3.582a3.034 3.034 0 0 1 3.672-4.827l4.711 3.583a3.033 3.033 0 0 1 .579 4.249zM133.774 141.83a3.032 3.032 0 0 1 3.816 1.956l1.817 5.634a3.033 3.033 0 0 1-5.773 1.86l-1.816-5.634a3.033 3.033 0 0 1 1.956-3.816z" fill="#F8C1C6"/>
    <path d="M125.481 90.186a3.86 3.86 0 0 0-3.855 3.855 3.86 3.86 0 0 0 3.855 3.855 3.86 3.86 0 0 0 3.855-3.855 3.86 3.86 0 0 0-3.855-3.855zm0 8.23a4.38 4.38 0 0 1-4.375-4.375 4.38 4.38 0 0 1 4.375-4.375 4.38 4.38 0 0 1 4.375 4.375 4.38 4.38 0 0 1-4.375 4.375z" fill="#5569AF"/>
    <path d="M153.646 68.027c-.109 0-.216.007-.32.02-.64.162-1.118.584-1.39 1.249-.411 1.004-.268 2.455.34 3.45.544.887 1.291 1.538 2.155 1.909 1.389-1.55 2.484-3.52 1.662-5.162-.362-.96-1.483-1.466-2.447-1.466zm-4.929 10.28c-.867 0-1.809-.151-2.859-.45a.26.26 0 0 1 .143-.5c2.737.78 4.605.528 6.444-.87a14.51 14.51 0 0 0 1.609-1.429c-.888-.422-1.655-1.115-2.221-2.041-.689-1.125-.847-2.772-.378-3.918.334-.815.948-1.355 1.776-1.562 1.275-.163 2.851.451 3.338 1.748.966 1.93-.283 4.041-1.612 5.557.611.174 1.266.22 1.942.121a5.33 5.33 0 0 0 4.373-3.92.26.26 0 1 1 .502.134 5.848 5.848 0 0 1-4.801 4.301 5.138 5.138 0 0 1-2.405-.21 16.07 16.07 0 0 1-1.808 1.633c-1.245.946-2.532 1.407-4.043 1.407z" fill="#FAAD3A"/>
    <path d="M223.154 131.927c-.217-1.877-1.265-5.805-2.047-7.832-.577-1.495-.159-2.43-2.397-3.729-2.238-1.3-4.981-3.61-5.487-3.827-.505-.216-1.299-3.32-4.259-.577-2.959 2.743-6.207 2.96-7.001.361-1.517-.288-2.383-1.516-1.95-2.382.433-.867 3.898-3.249 3.898-3.249-1.732.938-4.764 1.155-5.197-.144-.434-1.299 1.01-2.311 3.465-3.032 2.455-.722 12.273-5.126 14.943-3.465 2.671 1.66 6.931 5.27 9.962 7.291 3.032 2.021 4.115 5.27 5.559 9.096 1.443 3.826 2.599 7.869 2.599 7.869s-3.787 6.653-12.088 3.62z" fill="#FAD1D5"/>
    <path d="M201.725 116.388c-.651 0-1.262-.252-1.74-.946a.26.26 0 0 1 .429-.294c.944 1.372 2.561.555 4.274-.482l.344-.207c.13-.069.251-.128.372-.188.43-.212.836-.413 1.161-.718a.26.26 0 0 1 .357.379c-.382.359-.843.586-1.289.805-.117.058-.233.116-.348.176l-.328.198c-.869.526-2.109 1.277-3.232 1.277zM200.616 111.657c-.286 0-.579-.031-.884-.112a.26.26 0 1 1 .132-.503c.687.181 1.341.063 2.033-.062.166-.03.334-.06.506-.087.562-.13 1.13-.315 1.722-.56.13-.067.265-.128.401-.19.13-.059.259-.118.4-.188.097-.049.192-.109.291-.169.196-.121.417-.258.668-.331a.26.26 0 1 1 .143.5c-.181.053-.363.165-.538.273a4.376 4.376 0 0 1-.331.191c-.147.074-.282.136-.418.197-.129.059-.259.118-.4.189a11.27 11.27 0 0 1-1.84.598 22.7 22.7 0 0 0-.511.089c-.464.083-.911.165-1.374.165z" fill="#292929"/>
    <path d="M219.696 105.135a2.233 2.233 0 0 1 .623 3.082l-5.991 9.02a2.229 2.229 0 0 1-3.08.622l-9.02-5.989a2.23 2.23 0 0 1-.623-3.081l5.99-9.02a2.229 2.229 0 0 1 3.081-.622l9.02 5.988z" fill="#5569AF"/>
    <path d="M267.802 79.155c-13.377.71-11.071 11.74-10.002 15.346.977 3.299-3.565 6.052-1.247 10.126 2.32 4.074 6.409 6.282 12.763 6.571 0 0-.315 7.076-.603 9.384l13.284-.866c-.557-4.092-1.757-12.579-.121-15.738.666-1.285 4.682 4.11 8.95-2.454 4.27-6.564-9.648-23.079-23.024-22.369z" fill="#FAD1D5"/>
    <path d="M269.304 111.398a.26.26 0 0 1-.26-.245.259.259 0 0 1 .244-.274c3.197-.19 6.603-1.497 9.111-3.498a.26.26 0 0 1 .324.406c-2.589 2.066-6.104 3.416-9.404 3.611h-.015zM269.711 96.042c1.329-.067 1.973 2.535.682 2.7-1.29.165-1.773-2.645-.682-2.7z" fill="#292929"/>
    <path d="M269.906 96.56a.257.257 0 0 1-.107-.022l-.08-.037c-.529-.238-.987-.443-1.25-.762a.26.26 0 1 1 .402-.33c.185.224.611.415 1.061.618l.08.036a.26.26 0 0 1-.106.497zM259.853 94.747c1.33-.019 1.879 2.605.583 2.723-1.295.119-1.676-2.709-.583-2.723z" fill="#292929"/>
    <path d="M260.038 95.272a.267.267 0 0 1-.116-.027l-.087-.044c-.516-.254-.962-.475-1.212-.802a.26.26 0 1 1 .412-.316c.177.23.591.436 1.03.652l.089.044a.26.26 0 0 1-.116.493zM264.076 101.945c-.85 0-1.699-.098-2.428-.751-.919-.822-.377-1.82-.018-2.481.525-.97 1.059-2.119 1.036-3.293-.02-.986-.396-1.444-.965-2.136l-.237-.29a.26.26 0 0 1 .04-.367.26.26 0 0 1 .365.041l.234.285c.592.721 1.059 1.29 1.083 2.457.025 1.295-.541 2.521-1.099 3.55-.426.784-.662 1.336-.092 1.846.733.657 1.648.635 2.616.61.148-.003.295-.007.444-.008h.002a.26.26 0 0 1 .001.52 21.07 21.07 0 0 0-.434.008c-.182.004-.365.009-.548.009zM264.102 104.041c.474.898.976 1.369 1.465 1.369.873 0 1.686-1.4 2.103-2.711-1.039.704-2.634 1.248-3.568 1.342zm1.465 1.889c-.78 0-1.492-.684-2.115-2.034a.26.26 0 0 1 .024-.261.272.272 0 0 1 .241-.107c.838.103 3.369-.788 4.217-1.722a.26.26 0 0 1 .447.225c-.324 1.619-1.411 3.899-2.814 3.899z" fill="#292929"/>
    <path d="M267.699 92.715c-.36-.902.521-1.92 2.145-1.234 1.21.51 2.395 1.67 2.972 2.753.578 1.082-.11.452-.795-.089s-1.618-1.173-3.315-1.137c-.595.012-.934.068-1.007-.293z" fill="#ED4477"/>
    <path d="M268.844 92.746c1.604 0 2.553.575 3.338 1.195l.232.184.08.066c-.605-1.033-1.712-2.032-2.751-2.471-.77-.325-1.453-.245-1.739.176a.766.766 0 0 0-.063.723c.025.104.032.139.32.139.075 0 .157-.002.246-.005l.337-.007zm4.14 2.34c-.197 0-.417-.17-.896-.555l-.227-.181c-.664-.524-1.499-1.084-3.017-1.084l-.321.007a7.89 7.89 0 0 1-.262.005c-.232 0-.713 0-.817-.511-.152-.37-.109-.81.13-1.163.426-.627 1.366-.787 2.371-.363 1.214.512 2.459 1.666 3.101 2.87.249.466.297.667.201.828a.352.352 0 0 1-.263.147z" fill="#ED4477"/>
    <path d="M257.02 89.686c1.154-1.973 5.775-6.931 12.224-9.675 0 6.064 3.223 15.497 10.683 15.737-.241 2.503-.529 4.332.096 4.572.627.242 2.695-1.106 3.032-4.09 1.783-1.925 6.063-1.3 7.026 1.733.963 3.032-1.972 7.748-7.362 5.583-.866-.145-1.926 1.443-1.733 4.908 4.379.482 9.193-1.059 11.841-5.582 2.645-4.524 2.165-10.057-.58-14.486-2.742-4.429-3.272-6.21-2.742-8.471 7.989 1.636 12.951-3.95 11.869-11.025-1.083-7.075-7.881-11.438-15.533-9.49-7.652 1.95-9.815 10.985-2.08 16.25-1.084 1.226-4.41.03-8.598-1.919-4.187-1.949-16.656-4.797-22.812 4.838-6.304 9.865 3.032 16.313 5.414 15.665-.866-2.6-.745-4.548-.745-4.548z" fill="#ED4477"/>
    <path d="m295.281 178.96 1.251-13.668 3.465 13.283-4.716.385zm23.485-12.899c-4.909-11.357-6.545-18.095-11.262-29.837-4.716-11.743-13.378-11.743-18.576-12.321-5.198-.577-6.874-2.946-7.164-6.795-10.683 3.947-12.761-1.098-12.953-.713-.915 5.68-2.695 5.679-8.857 4.813-6.159-.866-14.052 9.144-20.404 17.326 0 0-3.851-10.83-4.814-12.466-5.053 4.404-9.191 3.932-12.295 2.923 0 0 1.349 4.778 2.137 8.099-6.203 2.093 1.244 18.69 4.527 25.073 6.015 11.696 16.498 8.217 24.489-3.911 1.936 2.003 4.108 4.043 4.206 5.006.095.962.038 5.981-.443 8.868-.481 2.887-2.888 11.165-2.888 11.453 0 .29 3.08 7.797 3.08 7.797s30.223.578 30.128 4.909c4.619-.673 20.02.289 29.164-4.139 9.144-4.427 6.834-14.727 1.925-26.085z" fill="#65B6DE"/>
    <path d="M318.99 165.93c-2.714-6.3-4.973-12.757-7.265-19.217a282.864 282.864 0 0 0-3.78-10.085c-1.105-2.776-2.519-5.379-4.583-7.56-2.899-3.062-6.86-4.514-10.959-5.049-2.087-.272-4.226-.308-6.241-.967-2.748-.898-3.904-3.219-4.138-5.944-.013-.155-.157-.312-.329-.25-3.595 1.3-8.877 2.793-12.114-.158-.221-.202-.682-.874-.994-.436-.243.339-.238 1.207-.338 1.629a8.452 8.452 0 0 1-.542 1.593c-.411.889-1.097 1.472-2.037 1.729-2.194.601-4.525-.361-6.729-.315-2.247.048-4.362 1.361-6.11 2.647-5.347 3.931-9.434 9.612-13.465 14.803l.435.115a433.593 433.593 0 0 0-2.095-5.75c-.834-2.243-1.559-4.687-2.745-6.778-.088-.154-.284-.158-.408-.052-3.541 3.012-7.551 4.282-12.043 2.855-.19-.061-.372.134-.32.32a209.638 209.638 0 0 1 2.137 8.099l.182-.32c-3.439 1.263-2.678 5.991-2.1 8.773 1.018 4.902 3.069 9.628 5.209 14.131 2.026 4.263 4.627 8.961 9.737 9.776 5.238.835 10.018-3.201 13.22-6.835 1.188-1.347 2.248-2.807 3.243-4.301l-.408.052c.84.865 1.693 1.717 2.518 2.596.623.661 1.572 1.506 1.628 2.472.103 1.742-.005 3.515-.109 5.255-.219 3.633-1.179 7.086-2.122 10.585-.346 1.285-.712 2.565-1.038 3.855-.151.596.143 1.091.359 1.651.85 2.212 1.753 4.404 2.652 6.596.046.111.124.189.25.191 4.739.092 9.483.352 14.206.752 3.498.297 7.01.667 10.449 1.39 1.125.235 5.184.834 5.214 2.507.003.186.162.274.329.251 4.275-.593 8.693-.359 12.996-.665 5.29-.378 10.736-1.08 15.632-3.222 11.141-4.875 6.213-18.353 2.616-26.719-.132-.307-.58-.042-.449.262 2.155 5.012 4.315 10.447 4.271 15.989-.017 2.234-.584 4.419-1.843 6.277-1.49 2.199-3.942 3.446-6.361 4.349-4.959 1.851-10.4 2.349-15.645 2.659-3.764.223-7.616.05-11.355.569l.329.25c-.034-1.947-3.65-2.562-5.003-2.878-3.823-.893-7.785-1.257-11.69-1.582a232.257 232.257 0 0 0-10.936-.628c-.86-.03-1.72-.057-2.58-.077-.372-.008.148.373-.026-.05a873.88 873.88 0 0 1-.912-2.239 315.828 315.828 0 0 1-1.493-3.736c-.217-.553-.627-1.279-.509-1.759.661-2.689 1.459-5.343 2.13-8.031.773-3.092 1.089-6.153 1.165-9.341.022-.916.271-2.335-.165-3.196-.923-1.821-2.741-3.26-4.14-4.7-.122-.126-.317-.085-.408.053-3.099 4.651-7.446 9.791-13.252 10.85-5.595 1.02-9.188-3.701-11.389-8.129-2.083-4.19-3.943-8.539-5.237-13.042-.776-2.703-2.616-9.075 1.155-10.46.136-.05.217-.173.181-.319a210.487 210.487 0 0 0-2.136-8.099l-.32.32c4.679 1.486 8.865.144 12.548-2.99l-.408-.053c1.209 2.131 1.939 4.628 2.79 6.915a413.392 413.392 0 0 1 1.997 5.489c.058.162.304.283.435.115 4.088-5.264 8.221-10.944 13.642-14.929 2.195-1.615 4.498-2.606 7.242-2.229 1.82.249 3.943.67 5.719-.018 1.461-.565 2.052-2.111 2.414-3.511.128-.497.405-1.077 0-1.416.082.069.155.152.23.228.268.271.558.515.866.738 3.398 2.47 8.454 1.055 11.986-.222l-.329-.251c.168 1.951.688 3.811 2.187 5.157 1.665 1.494 4.057 1.785 6.189 1.996 4.35.433 8.536 1.226 11.989 4.116 2.485 2.079 4.168 4.952 5.385 7.916 1.427 3.477 2.711 7.017 3.97 10.558 2.312 6.502 4.586 13 7.317 19.341.132.307.58.042.449-.262z" fill="#65B6DE"/>
    <path d="m295.541 178.96 1.251-13.668-.512.069c1.156 4.428 2.311 8.855 3.465 13.283l.252-.329-4.716.385c-.332.027-.335.547 0 .52l4.716-.385c.168-.014.295-.156.25-.329l-3.465-13.283c-.078-.3-.485-.211-.51.069l-1.251 13.668c-.031.334.489.331.52 0z" fill="#65B6DE"/>
    <path d="M237.239 186.083c2.118-2.021 7.218-5.583 8.47-3.754 1.733-1.347 3.273-1.059 3.273-1.059 1.443-1.539 3.177-1.926 4.909.097 1.733 2.021 6.928 6.352 7.796 7.219.867.865 7.604.673 22.717-2.6 3.079 1.252 3.245 9.967 3.245 9.967-5.609.355-46.932.158-46.932.158l-3.478-10.028z" fill="#FAD1D5"/>
    <path d="M254.66 191.444a.26.26 0 0 1-.186-.078l-.071-.072a.277.277 0 0 1-.063-.106c-.237-.355-.369-.749-.497-1.132a31.002 31.002 0 0 1-.386-.806 30.566 30.566 0 0 0-.4-.837c-.317-.49-.613-1.045-.899-1.582-.226-.423-.457-.857-.704-1.268-.372.435-.772.854-1.161 1.263-.556.585-1.133 1.189-1.634 1.845l-.093.124c-.644.866-1.841 2.476-3.348 1.603a1.591 1.591 0 0 1-.821-.989c-.264-.923.269-1.985.51-2.398.369-.592.776-1.164 1.169-1.718.388-.547.788-1.112 1.146-1.682.193-.291.367-.591.54-.89.355-.615.723-1.249 1.228-1.755a.261.261 0 0 1 .368 0 .261.261 0 0 1 0 .368c-.457.457-.791 1.035-1.146 1.647-.179.309-.358.618-.554.911-.361.578-.766 1.149-1.158 1.702-.389.547-.79 1.114-1.148 1.685-.158.271-.669 1.236-.455 1.987.085.297.272.518.573.677 1.032.597 1.855-.35 2.679-1.458l.095-.128c.52-.68 1.106-1.295 1.673-1.89.485-.51.944-.991 1.366-1.511a.253.253 0 0 1 .216-.095.263.263 0 0 1 .205.118c.33.515.626 1.07.913 1.607.281.528.572 1.074.891 1.57.162.32.291.597.421.874.123.264.247.529.387.811a.302.302 0 0 1 .019.05c.141.417.273.811.528 1.131a.258.258 0 0 1-.031.357.255.255 0 0 1-.172.065z" fill="#292929"/>
    <path d="M241.402 189.495c-.614 0-1.231-.21-1.668-.745-.953-1.33.429-2.711.883-3.164 1.546-1.472 3.394-2.507 5.182-3.508a.26.26 0 1 1 .254.454c-1.759.985-3.579 2.003-5.073 3.426-1.035 1.034-1.301 1.823-.834 2.476.577.702 1.622.639 2.343.28.766-.349 1.482-.92 2.175-1.472l.342.392c-.735.587-1.477 1.178-2.292 1.549a3.008 3.008 0 0 1-1.312.312z" fill="#292929"/>
    <path d="M238.201 189.423a.261.261 0 0 1-.036-.518c.444-.063 1.121-.329 1.441-.648a.26.26 0 0 1 .367.368c-.415.415-1.204.72-1.735.795a.23.23 0 0 1-.037.003zM254.594 159.713a.258.258 0 0 1-.177-.07c-.892-.833-1.933-2.499-2.321-3.714-1.526-4.776-.302-9.744 1.247-14.401.084-.253-.33-.716-.603-1.023a7.213 7.213 0 0 1-.286-.334c-.274-.464-.528-.9-.781-1.337a.26.26 0 0 1 .095-.355.258.258 0 0 1 .355.094c.253.436.506.872.761 1.307.054.065.146.169.244.279.396.443.888.995.709 1.533-1.522 4.574-2.727 9.445-1.245 14.079.319 1.002 1.271 2.644 2.179 3.492a.26.26 0 0 1-.177.45zM226.513 137.644c-1.135 0-2.033-.186-2.548-.525a.26.26 0 0 1 .287-.435c1.56 1.029 7.056.381 11.451-2.618a.26.26 0 1 1 .294.429c-3.262 2.226-6.96 3.149-9.484 3.149zM241.693 145.211a.262.262 0 0 1-.255-.211c-.471-2.463-.869-3.74-2.245-7.19a.261.261 0 0 1 .484-.193c1.39 3.489 1.793 4.783 2.272 7.285a.26.26 0 0 1-.256.309zM300.069 178.594a.26.26 0 0 1-.25-.188c-.406-1.409-.839-3.025-1.298-4.737-.918-3.421-1.958-7.3-3.058-10.534-1.587-4.664-2.858-9.414-4.237-14.694a.259.259 0 0 1 .186-.317.256.256 0 0 1 .316.186c1.378 5.27 2.646 10.01 4.227 14.657 1.106 3.251 2.148 7.138 3.068 10.568.458 1.709.891 3.323 1.296 4.727a.261.261 0 0 1-.25.332z" fill="#292929"/>
    <path d="M284.186 185.958a.258.258 0 0 1-.182-.075c-.075-.074-.116-.215-.076-.313.04-.097.181-.168.286-.168.026 0 .056 0 .073-.008.017-.009.035-.015.053-.021.115-.028.23-.07.349-.112.176-.063.375-.134.6-.179.409-.059.769-.165 1.15-.276l.275-.08c.244-.043.459-.061.666-.08a9.79 9.79 0 0 0 .262-.024l-.043-.099c-.27-.617-.551-1.255-.42-1.976.192-1.237 1.358-2.099 1.851-2.411 1.314-.814 2.865-1.048 4.364-1.274.288-.044.574-.087.856-.134 1.223-.196 2.458-.262 3.652-.325.595-.032 1.19-.063 1.786-.11 1.419-.073 2.88-.147 4.35-.147h3.177a.26.26 0 1 1 0 .52h-3.177c-1.457 0-2.911.074-4.317.145-.592.047-1.192.079-1.791.111-1.181.063-2.402.127-3.596.319-.283.047-.572.091-.862.135-1.448.219-2.944.444-4.167 1.2-.43.274-1.453 1.023-1.613 2.057-.103.572.133 1.11.383 1.681.062.141.123.28.179.42a.256.256 0 0 1-.013.221.258.258 0 0 1-.177.131c-.202.04-.414.059-.639.078-.194.017-.395.034-.596.068l-.244.073c-.4.117-.777.228-1.207.289a3.715 3.715 0 0 0-.514.157c-.128.045-.25.089-.373.12a.586.586 0 0 1-.165.045.255.255 0 0 1-.14.042z" fill="#292929"/>
    <path d="M292.272 195.198a.26.26 0 0 1-.26-.26c0-1.949-.31-3.764-.921-5.395l-.126-.356c-.304-.861-.59-1.675-1.144-2.475-.504-.792-1.446-1.413-2.148-1.797a.258.258 0 0 1-.104-.352.258.258 0 0 1 .352-.104c.757.413 1.775 1.089 2.333 1.966.588.849.886 1.694 1.201 2.589l.124.35c.615 1.639.935 3.46.953 5.41V194.938a.26.26 0 0 1-.26.26zM263.18 185.669h-.015a.26.26 0 0 1-.245-.275c.048-.813.921-3.937 1.324-4.88.385-.898.633-1.79.895-2.735.111-.401.222-.803.346-1.21.979-3.218 1.813-6.131 2.104-9.185a14.69 14.69 0 0 0 .287-2.862c0-.919-.273-1.741-.563-2.612-.174-.553-.356-1.102-.539-1.653-.423-1.275-.861-2.594-1.2-3.949-.595-1.884-.785-3.784-.969-5.621-.075-.751.019-1.5.109-2.224.03-.238.06-.477.084-.716l.024-.242c.091-.92.186-1.871.365-2.766.148-.498.266-.972.385-1.448.12-.479.244-.974.391-1.464.204-.749.456-1.403.722-2.095.112-.291.226-.588.341-.902.321-1.017.609-2.052.913-3.148.232-.834.466-1.676.718-2.517.091-.461.214-.95.333-1.424.118-.473.24-.962.336-1.44.061-.22.109-.41.157-.596.116-.458.225-.889.436-1.381a.256.256 0 0 1 .341-.136.259.259 0 0 1 .136.341c-.194.454-.299.866-.409 1.303-.049.192-.098.387-.157.59-.092.471-.216.966-.336 1.445-.117.468-.238.952-.333 1.424-.257.862-.49 1.7-.72 2.53-.293 1.052-.595 2.14-.923 3.176-.119.328-.234.628-.347.921-.262.68-.509 1.322-.708 2.053-.146.484-.268.973-.387 1.447-.12.482-.241.965-.386 1.447-.167.846-.261 1.784-.35 2.692l-.025.242c-.024.243-.055.486-.085.728-.091.728-.176 1.416-.108 2.108.182 1.811.369 3.683.952 5.531.339 1.352.773 2.661 1.194 3.928.183.553.366 1.104.54 1.655.289.868.588 1.769.588 2.773 0 .974-.098 1.962-.293 2.938-.292 3.076-1.133 6.015-2.12 9.26-.123.403-.233.801-.343 1.198-.256.92-.519 1.871-.917 2.801-.382.89-1.239 3.948-1.284 4.706a.259.259 0 0 1-.259.244zM276.719 127.292c-.782 0-1.504-.418-2.058-1.22-.984-1.256-1.21-2.764-1.428-4.222a44.309 44.309 0 0 0-.143-.903 41.818 41.818 0 0 1-1.249 2.018l-.122.185c-.623.945-1.784 2.705-3.094 2.868-.492.061-.946-.101-1.361-.479-1.042-.967-.966-2.193-.893-3.379l.013-.221c.009-.143.134-.26.275-.245a.26.26 0 0 1 .244.275l-.013.223c-.069 1.114-.134 2.166.725 2.965.3.273.605.386.946.345 1.072-.134 2.188-1.826 2.724-2.639l.124-.187c.565-.848 1.071-1.713 1.559-2.55.054-.092.167-.159.275-.144.106.017.201.079.224.183.119.532.2 1.079.279 1.608.219 1.456.425 2.831 1.333 3.991.371.536 1.16 1.343 2.37.857.673-.24 1.952-.74 3.065-1.423a10.051 10.051 0 0 0 2.462-2.111.26.26 0 1 1 .399.334 10.595 10.595 0 0 1-2.588 2.219c-1.153.709-2.471 1.224-3.154 1.468a2.467 2.467 0 0 1-.914.184z" fill="#292929"/>
    <path d="M272.335 125.975a.682.682 0 0 0-.415.139c-.24.182-.337.494-.258.835.036.181.136.284.296.314a.699.699 0 0 0 .675-.321.792.792 0 0 0 .104-.602.35.35 0 0 0-.203-.249.261.261 0 0 1-.124-.112.628.628 0 0 0-.075-.004zm-.281 1.816a1 1 0 0 1-.189-.017c-.37-.067-.635-.335-.711-.716-.122-.53.05-1.054.451-1.358.39-.296.915-.326 1.372-.076a.26.26 0 0 1 .129.289.949.949 0 0 1 .133.292c.09.339.015.772-.178 1.03a1.212 1.212 0 0 1-1.007.556zM269.725 139.259c-.06 0-.106.027-.181.084a1.178 1.178 0 0 0-.466.829.731.731 0 0 0 .205.584c.309.271.495.171.554.136.33-.182.543-.838.479-1.227-.008-.044-.037-.188-.108-.202a.257.257 0 0 1-.165-.104l-.004-.001c-.163-.065-.247-.099-.314-.099zm-.057 2.198c-.208 0-.462-.076-.741-.322a1.26 1.26 0 0 1-.368-1c.033-.465.285-.917.673-1.208.393-.293.66-.188 1-.052a.282.282 0 0 1 .117.088c.253.067.426.29.48.618.096.587-.2 1.468-.74 1.766a.871.871 0 0 1-.421.11zM268.491 153.595a.258.258 0 0 1-.115.194c-.087.058-.15.186-.177.361-.051.334.045.701.164.849.14.171.267.234.378.181.237-.113.457-.651.368-1.096-.06-.301-.233-.454-.528-.468a.27.27 0 0 1-.09-.021zm.169 2.123c-.195 0-.446-.082-.7-.392-.229-.285-.343-.812-.274-1.256.05-.324.189-.571.402-.713a.26.26 0 0 1 .247-.023c.011-.138.122-.254.271-.237.529.025.908.356 1.013.885.132.66-.174 1.44-.655 1.667a.706.706 0 0 1-.304.069zM269.214 174.67a.263.263 0 0 1-.006.039c-.081.365.013.955.235 1.096.119.079.304-.029.436-.131.316-.264.371-.823.103-1.144-.101-.101-.268-.222-.438-.166l-.018.024a.92.92 0 0 1-.308.28l-.004.002zm.321 1.683a.676.676 0 0 1-.371-.11c-.474-.301-.574-1.149-.464-1.646a.26.26 0 0 1 .14-.178.26.26 0 0 1 .142-.214c.047-.024.088-.078.132-.134a.969.969 0 0 1 .091-.108.248.248 0 0 1 .067-.048c.351-.175.749-.08 1.094.265.47.562.387 1.442-.162 1.9-.264.203-.488.273-.669.273z" fill="#292929"/>
    <path d="M225.304 112.786c-1.011-1.107-3.562-2.454-5.823-3.561-1.919-.939-4.477.817-1.734 3.754 2.744 2.935 7.894 4.379 7.894 4.379" fill="#FAD1D5"/>
    <path d="M225.641 117.618a.242.242 0 0 1-.07-.01c-.213-.06-5.252-1.498-8.014-4.452-1.818-1.947-1.251-3.189-.922-3.633.613-.829 1.886-1.056 2.96-.532 2.187 1.07 4.833 2.45 5.901 3.621a.26.26 0 1 1-.384.35c-1.021-1.119-3.768-2.536-5.746-3.504-.838-.41-1.854-.245-2.314.374-.523.707-.191 1.817.885 2.969 2.664 2.849 7.723 4.292 7.774 4.306a.26.26 0 0 1-.07.511z" fill="#292929"/>
    <path d="M262.133 191.04h-20.525l-8.26-24.123c-.721-2.103-3.13-3.825-5.353-3.825h-35.05c-2.223 0-3.454 1.722-2.733 3.825l8.508 24.85c.932 2.413 1.04 4.399 3.459 4.399h59.954a2.564 2.564 0 0 0 0-5.126z" fill="#FAAD3A"/>
    <path d="M262.133 190.78h-20.321c-.401 0 .102.355-.007.034l-.938-2.739a48620.83 48620.83 0 0 1-3.805-11.114l-3.195-9.328c-.932-2.725-3.081-4.8-6.118-4.8H196.997c-1.764 0-4.135-.365-5.786.405-2.652 1.236-.941 4.652-.277 6.589l3.784 11.053 3.348 9.779c.766 2.236 1.214 5.767 4.15 5.767h59.904c3.676 0 3.618-5.403.013-5.646-.335-.022-.333.498 0 .52 3.174.214 2.795 4.606-.248 4.606H202.273c-2.307 0-2.702-2.453-3.307-4.22l-.705-2.061-7.184-20.982-.614-1.795c-.777-2.267.93-3.495 2.959-3.495h31.189c2.971 0 5.764-.292 7.851 2.43.575.752.826 1.758 1.129 2.643l1.477 4.313 6.288 18.37c.039.111.13.191.252.191h20.525c.335 0 .335-.52 0-.52z" fill="#FAAD3A"/>
    <path d="M239.797 192.179h-40.765a.26.26 0 0 1 0-.52h40.765a.26.26 0 1 1 0 .52zM213.17 176.084c-.597 0-1.089.237-1.426.683-.488.65-.588 1.644-.274 2.729.566 1.962 2.299 3.557 3.863 3.557.596 0 1.088-.237 1.425-.683.488-.65.588-1.645.274-2.729-.565-1.961-2.298-3.557-3.862-3.557zm2.163 7.489c-1.779 0-3.737-1.764-4.363-3.933-.359-1.242-.228-2.403.359-3.184.432-.576 1.085-.892 1.841-.892 1.78 0 3.737 1.764 4.362 3.933.36 1.242.229 2.403-.359 3.185-.432.575-1.085.891-1.84.891z" fill="#292929"/>
    <path d="M261.693 92.81c-1.231-1.498-3.063-2.798-3.804-2.44-.741.357-.901 1.487-.38 1.721.521.234.712-.72 2.428.029 1.504.655 1.88.96 1.756.69z" fill="#ED4477"/>
    <path d="M258.776 91.568c.367 0 .781.103 1.265.314.302.131.56.25.777.351-.966-.964-2.044-1.663-2.637-1.663a.419.419 0 0 0-.179.034c-.359.172-.542.586-.538.906.001.065.014.282.152.344.03.014.05.015.062.015.056 0 .139-.04.236-.085.194-.09.46-.216.862-.216zm2.908 1.6c-.121 0-.248-.06-.623-.242a31.59 31.59 0 0 0-1.227-.567c-.412-.18-.768-.271-1.058-.271-.286 0-.466.085-.64.167-.216.102-.476.189-.733.074-.282-.127-.454-.431-.459-.813-.006-.47.252-1.101.832-1.38a.927.927 0 0 1 .405-.086c1.027 0 2.679 1.337 3.713 2.595a.258.258 0 0 1 .036.057c.022.048.09.196 0 .336a.322.322 0 0 1-.246.13z" fill="#ED4477"/>
    <path d="M286.14 71.705a.571.571 0 0 0-.263.063c-.303.154-.499.57-.499 1.059 0 .803.181 1.683.569 2.772.249.866.664 1.71 1.085 2.5.565-1.374 1.638-4.671-.318-6.17-.151-.112-.359-.224-.574-.224zm.733 6.907a.262.262 0 0 1-.23-.137c-.459-.852-.92-1.772-1.19-2.717-.404-1.13-.595-2.066-.595-2.931 0-.695.3-1.278.783-1.523.243-.124.747-.26 1.385.208 2.257 1.73 1.085 5.338.477 6.809a.26.26 0 0 1-.385.116.26.26 0 0 1-.245.175z" fill="#292929"/>
    <path d="M287.382 78.496c.808.324 1.626.655 2.388.981l.354.145c.882.36 1.793.736 2.646.68.484-.027.875-.245 1.074-.597.2-.354.181-.791-.052-1.232-.653-1.186-2.251-1.336-3.424-1.102-.94.21-1.817.602-2.665.982l-.321.143zm5.225 2.331c-.911 0-1.847-.384-2.679-.724l-.357-.145c-.913-.391-1.903-.787-2.86-1.17a.26.26 0 0 1 .097-.501h.007a.262.262 0 0 1 .148-.174l.528-.234c.871-.39 1.772-.795 2.77-1.016 1.35-.27 3.198-.073 3.989 1.363.316.598.333 1.229.046 1.735-.287.51-.832.823-1.495.86a2.97 2.97 0 0 1-.194.006z" fill="#292929"/>
    <path d="M289.928 81.146a.262.262 0 0 1-.157-.052 9.663 9.663 0 0 1-.672-.573c-.275-.25-.56-.508-.876-.718-.407-.244-.763-.514-1.141-.8-.219-.165-.442-.334-.684-.503-.999-.8-1.856-1.657-2.764-2.565a.26.26 0 0 1 .368-.368c.897.898 1.744 1.746 2.708 2.516.233.163.462.336.686.505.366.278.712.54 1.105.775.359.239.657.51.947.773.142.128.278.252.417.368.153-.037.323.087.322.252v.13a.26.26 0 0 1-.259.26z" fill="#292929"/>
    <path d="M101.856 195.753h13.411l19.083-17.281c.641-.58.926-1.216.802-1.791-.124-.576-.646-1.04-1.47-1.305l-35.904-11.55c-.905-.291-1.676-.164-2.086.342-.328.406-.42 1.04-.26 1.784l6.424 29.801zm13.512.52h-13.722a.259.259 0 0 1-.254-.206l-6.469-30.006c-.194-.9-.064-1.689.364-2.219.548-.68 1.527-.873 2.65-.511l35.905 11.55c1.008.325 1.654.926 1.818 1.69.165.765-.177 1.577-.962 2.287l-19.155 17.348a.264.264 0 0 1-.175.067z" fill="#FAD1D5"/>
    <path d="M105.128 10.647c-1.504 2.957-1.68 6.39-.292 8.937 1.024 1.876 2.431 2.924 3.963 2.951 1.211.017 2.373-.652 3.055-1.804 1.009-1.704.835-3.996-.475-6.29-1.262-2.208-3.66-3.423-6.251-3.794zm3.729 12.409h-.067c-1.702-.03-3.309-1.205-4.41-3.223-1.442-2.645-1.297-6.182.201-9.252-1.861-.18-3.789.062-5.442.674-3.93 1.455-5.824 4.671-5.068 8.603a.26.26 0 0 1-.51.099c-.809-4.203 1.209-7.638 5.398-9.19 1.78-.658 3.868-.903 5.875-.675.441-.81.978-1.58 1.609-2.285 3.132-3.505 7.599-4.428 12.254-2.53a.26.26 0 0 1-.196.481c-4.44-1.808-8.694-.936-11.671 2.396a11.626 11.626 0 0 0-1.444 2.014c2.67.425 5.129 1.715 6.444 4.015 1.406 2.461 1.579 4.944.472 6.813-.766 1.294-2.05 2.06-3.445 2.06z" fill="#FAAD3A"/>
    <path d="M11.975 84.264c-.652 0-1.273.359-1.723 1.003-.71 1.017-1.07 2.945.051 5.303.813 1.71 2.373 2.657 4.051 2.979.997-2.278 1.158-4.96.248-6.969-.635-1.401-1.51-2.22-2.463-2.309a1.744 1.744 0 0 0-.164-.007zM8.4 98.619c-1.048 0-2.14-.269-3.246-.81a.26.26 0 0 1 .23-.468c2.591 1.272 5.099.922 7.06-.982a8.664 8.664 0 0 0 1.682-2.328c-1.777-.374-3.423-1.405-4.293-3.237-1.217-2.56-.802-4.688-.008-5.825.598-.855 1.456-1.299 2.36-1.215 1.148.105 2.174 1.033 2.89 2.612.95 2.097.805 4.878-.197 7.263a7.22 7.22 0 0 0 2.906-.258c2.378-.73 4.699-2.936 4.085-6.938a.26.26 0 1 1 .514-.078c.664 4.328-1.861 6.719-4.446 7.513a7.753 7.753 0 0 1-3.281.255c-.473.98-1.095 1.877-1.85 2.609-1.29 1.253-2.796 1.886-4.406 1.886z" fill="#FAD1D5"/>
    <path d="M323 128.447c1.305 2.791 3.717 4.882 6.374 5.324 1.96.326 3.53-.104 4.426-1.207.718-.886.878-2.105.427-3.261-.669-1.712-2.446-2.898-4.877-3.252-2.337-.341-4.595.714-6.35 2.396zm.28 13.877a.266.266 0 0 1-.119-.028c-3.557-1.825-4.923-5.287-3.653-9.262.538-1.683 1.555-3.356 2.874-4.698a11.27 11.27 0 0 1-.75-2.485c-.776-4.32 1.115-8.136 5.189-10.469a.259.259 0 0 1 .354.097.258.258 0 0 1-.096.354c-3.872 2.217-5.671 5.835-4.935 9.926.136.758.353 1.493.637 2.189 1.847-1.708 4.204-2.767 6.644-2.412 2.621.382 4.548 1.686 5.286 3.578.52 1.332.33 2.744-.508 3.778-1.003 1.236-2.793 1.743-4.914 1.392-2.767-.46-5.281-2.591-6.677-5.447-1.192 1.257-2.112 2.801-2.609 4.356-1.186 3.711.084 6.941 3.396 8.64a.26.26 0 0 1-.119.491z" fill="#FAAD3A"/>
    <path d="M294.857 27.36c-.48 0-.943.141-1.339.41l-7.673 5.213a2.38 2.38 0 0 0-1.005 1.533c-.12.63.011 1.269.369 1.796l5.212 7.673a2.399 2.399 0 0 0 1.989 1.047c.481 0 .944-.143 1.341-.412l7.671-5.21a2.4 2.4 0 0 0 .637-3.33l-5.212-7.672a2.399 2.399 0 0 0-1.99-1.049zm-2.447 18.192a2.92 2.92 0 0 1-2.42-1.276l-5.212-7.672a2.898 2.898 0 0 1-.448-2.186 2.89 2.89 0 0 1 1.223-1.866l7.673-5.212a2.89 2.89 0 0 1 1.631-.5c.973 0 1.878.476 2.421 1.275l5.212 7.673a2.923 2.923 0 0 1-.775 4.052l-7.672 5.21a2.9 2.9 0 0 1-1.633.502z" fill="#FAD1D5"/>
    <path d="M264.542 15.028A2.974 2.974 0 0 0 261.571 18a2.974 2.974 0 0 0 2.971 2.97 2.973 2.973 0 0 0 2.97-2.97 2.974 2.974 0 0 0-2.97-2.972zm0 6.461a3.494 3.494 0 0 1-3.491-3.49 3.495 3.495 0 0 1 3.491-3.49 3.495 3.495 0 0 1 3.49 3.49 3.494 3.494 0 0 1-3.49 3.49zM30.013 53.477a2.496 2.496 0 1 1-4.992-.001 2.496 2.496 0 0 1 4.992 0zM35.693 48.471a2.496 2.496 0 1 1-4.993 0 2.496 2.496 0 0 1 4.993 0zM36.655 55.787a2.494 2.494 0 0 1-2.496 2.495 2.494 2.494 0 1 1 0-4.99 2.495 2.495 0 0 1 2.496 2.495zM184.239 183.027c-.325 0-.641.07-.938.208a2.218 2.218 0 0 0-1.159 1.259 2.225 2.225 0 0 0 .07 1.71 2.247 2.247 0 0 0 2.031 1.295c.325 0 .641-.07.938-.207a2.222 2.222 0 0 0 1.159-1.26 2.218 2.218 0 0 0-.07-1.709 2.246 2.246 0 0 0-2.031-1.296zm.004 4.992a2.766 2.766 0 0 1-2.502-1.596 2.74 2.74 0 0 1-.087-2.108 2.744 2.744 0 0 1 1.428-1.552 2.73 2.73 0 0 1 1.157-.256c1.07 0 2.052.626 2.502 1.597.309.668.341 1.415.087 2.107a2.736 2.736 0 0 1-1.428 1.553 2.744 2.744 0 0 1-1.157.255zM177.308 179.98a2.24 2.24 0 0 0-2.026 3.177 2.246 2.246 0 0 0 2.031 1.296 2.24 2.24 0 0 0 2.026-3.177 2.246 2.246 0 0 0-2.031-1.296zm.005 4.993a2.767 2.767 0 0 1-2.502-1.597 2.76 2.76 0 0 1 2.497-3.916c1.07 0 2.053.627 2.502 1.597a2.759 2.759 0 0 1-2.497 3.916zM183.54 176.029a2.24 2.24 0 0 0-2.025 3.178 2.242 2.242 0 0 0 2.027 1.295c.326 0 .642-.07.94-.209a2.22 2.22 0 0 0 1.16-1.258 2.22 2.22 0 0 0-.072-1.71 2.245 2.245 0 0 0-2.03-1.296zm.002 4.993a2.763 2.763 0 0 1-2.499-1.597 2.759 2.759 0 0 1 2.497-3.916c1.07 0 2.052.627 2.502 1.597.309.668.341 1.416.088 2.107a2.736 2.736 0 0 1-1.429 1.552 2.74 2.74 0 0 1-1.159.257z" fill="#65B6DE"/>
    <path d="M316.416 93.432c-.325 0-.64.07-.938.208a2.22 2.22 0 0 0-1.158 1.259c-.205.56-.18 1.168.071 1.71a2.245 2.245 0 0 0 2.031 1.295 2.24 2.24 0 0 0 2.025-3.177 2.245 2.245 0 0 0-2.031-1.295zm.006 4.992a2.766 2.766 0 0 1-2.503-1.597 2.74 2.74 0 0 1-.087-2.107 2.733 2.733 0 0 1 1.428-1.552c.366-.17.755-.256 1.156-.256 1.071 0 2.052.626 2.503 1.596a2.76 2.76 0 0 1-2.497 3.916zM309.487 90.385c-.325 0-.641.07-.938.208a2.222 2.222 0 0 0-1.159 1.26 2.215 2.215 0 0 0 .071 1.709 2.244 2.244 0 0 0 2.03 1.296 2.238 2.238 0 0 0 2.026-3.177 2.245 2.245 0 0 0-2.03-1.296zm.004 4.992a2.764 2.764 0 0 1-2.502-1.596 2.737 2.737 0 0 1-.088-2.108 2.739 2.739 0 0 1 1.429-1.552 2.73 2.73 0 0 1 1.157-.256c1.069 0 2.052.627 2.502 1.597a2.76 2.76 0 0 1-2.498 3.915zM315.719 86.434a2.24 2.24 0 0 0-2.027 3.177 2.244 2.244 0 0 0 2.029 1.295c.325 0 .641-.07.94-.208a2.22 2.22 0 0 0 1.159-1.259c.206-.56.18-1.168-.072-1.71a2.242 2.242 0 0 0-2.029-1.295zm.002 4.992a2.765 2.765 0 0 1-2.5-1.596 2.76 2.76 0 0 1 2.498-3.916c1.07 0 2.051.627 2.501 1.596.31.668.341 1.417.089 2.108a2.74 2.74 0 0 1-1.429 1.552 2.74 2.74 0 0 1-1.159.256z" fill="#5569AF"/>
    <path d="M333.173 196.613H.52a.52.52 0 0 1 0-1.04h332.653a.52.52 0 0 1 0 1.04z" fill="#fff"/>
</svg>
