<svg width="19" height="18" viewBox="0 0 19 18" fill="none" xmlns="http://www.w3.org/2000/svg">
<path d="M14.645 3.21362C14.062 3.21362 13.5894 3.68624 13.5894 4.26874C13.5894 4.85175 14.062 5.32436 14.645 5.32436C15.2275 5.32436 15.7001 4.85175 15.7001 4.26874C15.7001 3.68624 15.2275 3.21362 14.645 3.21362Z" fill="white"/>
<path d="M9.95312 11.8392C8.38723 11.8392 7.11335 10.5654 7.11335 8.99999C7.11335 7.43411 8.38723 6.16025 9.95312 6.16025C11.5185 6.16025 12.7924 7.43411 12.7924 8.99999C12.7924 10.5654 11.5185 11.8392 9.95312 11.8392ZM9.95312 4.56689C7.50865 4.56689 5.52002 6.55553 5.52002 8.99999C5.52002 11.4439 7.50865 13.4326 9.95312 13.4326C12.3971 13.4326 14.3857 11.4439 14.3857 8.99999C14.3857 6.55553 12.3971 4.56689 9.95312 4.56689Z" fill="white"/>
<path d="M6.2862 1.69357C4.23855 1.69357 2.57295 3.35917 2.57295 5.40682V12.5932C2.57295 14.6408 4.23855 16.3064 6.2862 16.3064H13.4726C15.5202 16.3064 17.1863 14.6408 17.1863 12.5932V5.40682C17.1863 3.35917 15.5202 1.69357 13.4726 1.69357H6.2862ZM13.4726 18H6.2862C3.30451 18 0.879883 15.5744 0.879883 12.5932V5.40682C0.879883 2.42513 3.30451 0 6.2862 0H13.4726C16.4537 0 18.8794 2.42513 18.8794 5.40682V12.5932C18.8794 15.5744 16.4537 18 13.4726 18Z" fill="white"/>
</svg>
