<svg width="23" height="18" viewBox="0 0 23 18" fill="none" xmlns="http://www.w3.org/2000/svg">
<path d="M22.6594 2.15762C21.9644 2.47202 21.1967 2.66229 20.4473 2.78795C20.8029 2.72842 21.3254 2.08436 21.535 1.82389C21.8545 1.42707 22.1196 0.974281 22.2686 0.485381C22.288 0.447225 22.3027 0.399404 22.2641 0.370406C22.2163 0.351583 22.1852 0.361255 22.147 0.380079C21.3102 0.82828 20.4453 1.15336 19.5245 1.38382C19.4482 1.40265 19.3912 1.38382 19.3434 1.33549C19.2676 1.24951 19.1953 1.16812 19.1144 1.10147C18.7273 0.772318 18.3121 0.51387 17.8441 0.323092C17.2295 0.0727911 16.558 -0.0335303 15.8961 0.00920395C15.2516 0.0514295 14.6192 0.232542 14.0479 0.531173C13.475 0.830313 12.9638 1.24697 12.5563 1.7491C12.1355 2.26903 11.8252 2.88207 11.666 3.53275C11.5133 4.16053 11.5256 4.7812 11.6192 5.4156C11.6334 5.52091 11.6237 5.53515 11.5286 5.52091C7.9272 4.9847 4.94191 3.69656 2.51826 0.934605C2.41295 0.814542 2.35599 0.814537 2.27001 0.943757C1.20928 2.53357 1.72361 5.08695 3.04837 6.34202C3.22541 6.5099 3.40655 6.67677 3.60241 6.82939C3.53068 6.84414 2.64953 6.74901 1.86352 6.34202C1.75872 6.27537 1.70531 6.31404 1.69615 6.43308C1.68649 6.60504 1.70123 6.76326 1.72463 6.94946C1.92813 8.56064 3.04432 10.0507 4.57258 10.6327C4.75369 10.7091 4.95465 10.7757 5.15 10.8093C4.80202 10.8856 4.44337 10.94 3.44471 10.8617C3.32057 10.8383 3.27325 10.9003 3.32056 11.0199C4.07147 13.0645 5.69027 13.6735 6.90361 14.0199C7.0659 14.0484 7.22872 14.0484 7.39152 14.0866C7.38135 14.1013 7.37166 14.1013 7.36199 14.1156C6.96009 14.7286 5.56514 15.185 4.91547 15.4119C3.73418 15.825 2.44757 16.0107 1.19912 15.8875C0.999693 15.858 0.95747 15.8606 0.903544 15.8875C0.8486 15.9216 0.895912 15.9694 0.960523 16.0213C1.21388 16.1887 1.47179 16.3368 1.73481 16.4802C2.52743 16.9004 3.35414 17.2352 4.219 17.4738C8.6832 18.7065 13.7116 17.8004 17.0637 14.4702C19.6959 11.8547 20.6188 8.24776 20.6188 4.63671C20.6188 4.49528 20.7857 4.41744 20.8844 4.34266C21.5696 3.82832 22.1221 3.21224 22.6329 2.52493C22.7479 2.37027 22.7489 2.23291 22.7489 2.17644C22.7489 2.16677 22.7489 2.15762 22.7489 2.15762C22.7489 2.09962 22.7479 2.11743 22.6594 2.15762Z" fill="white"/>
</svg>
